{"glyphs":{"0":{"ha":582,"x_min":39,"x_max":544,"o":"m 292 892 q 429 851 374 892 q 515 710 485 810 q 544 438 544 611 q 515 166 544 265 q 429 26 485 67 q 292 -15 374 -15 q 153 25 208 -15 q 68 165 97 65 q 39 438 39 265 q 68 711 39 611 q 153 851 97 811 q 292 892 208 892 m 292 763 q 233 733 253 763 q 205 644 213 704 q 197 482 197 585 l 197 393 q 205 232 197 292 q 233 143 213 172 q 292 114 253 114 q 349 144 329 114 q 377 233 369 174 q 385 393 385 292 l 385 482 q 377 644 385 585 q 349 733 369 704 q 292 763 329 763 z "},"1":{"ha":582,"x_min":49,"x_max":581,"o":"m 581 0 l 50 0 l 50 129 l 247 129 l 247 676 l 49 676 l 49 778 q 188 812 107 785 q 325 875 268 839 l 401 875 l 401 129 l 581 129 l 581 0 z "},"2":{"ha":582,"x_min":42,"x_max":544,"o":"m 304 892 q 475 835 410 892 q 540 664 540 779 q 509 519 540 590 q 434 391 478 449 q 326 263 390 333 l 276 204 q 233 143 250 172 l 544 143 l 544 0 l 42 0 l 42 31 q 68 157 42 100 q 126 258 90 211 q 221 371 161 304 q 306 472 275 432 q 359 562 338 513 q 381 665 381 611 q 361 731 381 703 q 299 760 342 760 q 233 722 254 760 q 211 626 211 685 l 211 575 l 53 575 q 50 592 51 579 q 49 625 49 606 q 122 825 49 758 q 304 892 194 892 z "},"3":{"ha":582,"x_min":32,"x_max":544,"o":"m 288 892 q 464 828 399 892 q 529 651 529 765 q 499 532 529 578 q 414 456 468 486 l 414 449 q 509 374 474 428 q 544 236 544 319 q 474 53 544 121 q 292 -15 404 -15 q 100 55 168 -15 q 32 247 32 125 l 32 269 l 192 269 l 192 244 q 217 147 192 181 q 289 114 242 114 q 360 146 335 114 q 385 243 385 178 q 281 381 385 381 l 238 381 l 238 510 l 282 510 q 344 544 319 510 q 368 644 368 579 q 347 733 368 704 q 289 763 326 763 q 228 731 250 763 q 207 640 207 700 l 207 615 l 47 615 l 47 651 q 115 826 47 760 q 288 892 182 892 z "},"4":{"ha":582,"x_min":10,"x_max":568,"o":"m 385 892 q 315 672 361 788 q 221 462 269 556 q 143 326 172 368 l 325 326 l 325 522 q 374 640 349 571 q 411 761 399 708 l 478 761 l 478 326 l 568 326 l 568 197 l 478 197 l 478 0 l 325 0 l 325 197 l 10 197 l 10 321 q 133 587 76 436 q 231 892 190 738 l 385 892 z "},"5":{"ha":582,"x_min":39,"x_max":553,"o":"m 215 526 q 339 569 271 569 q 493 497 433 569 q 553 286 553 424 q 485 64 553 143 q 296 -15 417 -15 q 109 62 179 -15 q 39 272 39 139 l 197 272 q 224 156 197 199 q 296 113 250 113 q 368 157 342 113 q 394 286 394 201 q 369 403 394 361 q 304 444 344 444 q 211 369 243 444 l 63 392 l 93 875 l 515 875 l 515 732 l 226 732 l 215 526 z "},"6":{"ha":582,"x_min":39,"x_max":544,"o":"m 292 892 q 465 814 408 892 q 521 607 521 736 l 364 607 q 347 724 364 685 q 286 763 329 763 q 230 730 249 763 q 205 640 211 697 q 196 481 199 583 q 254 532 218 514 q 332 550 290 550 q 490 472 435 550 q 544 268 544 394 q 513 119 544 183 q 427 19 482 54 q 303 -15 372 -15 q 106 82 172 -15 q 39 413 39 179 q 103 783 39 675 q 292 892 167 892 m 296 425 q 229 383 253 425 q 206 268 206 340 q 229 157 206 200 q 296 114 253 114 q 363 156 340 114 q 386 268 386 199 q 364 383 386 340 q 296 425 342 425 z "},"7":{"ha":582,"x_min":29,"x_max":553,"o":"m 553 772 q 369 428 444 611 q 294 65 294 246 q 296 0 294 31 l 128 0 q 202 392 128 197 q 388 732 276 586 l 29 732 l 29 875 l 553 875 l 553 772 z "},"8":{"ha":582,"x_min":39,"x_max":544,"o":"m 292 892 q 465 822 403 892 q 526 647 526 753 q 502 533 526 585 q 431 449 478 481 q 544 240 544 393 q 481 56 544 128 q 292 -15 418 -15 q 101 56 164 -15 q 39 240 39 128 q 150 449 39 393 q 81 532 104 481 q 57 647 57 583 q 118 822 57 753 q 292 892 179 892 m 292 764 q 233 732 253 764 q 213 638 213 700 q 233 543 213 575 q 292 511 253 511 q 350 543 329 511 q 371 638 371 575 q 350 732 371 700 q 292 764 329 764 m 292 385 q 220 349 244 385 q 196 247 196 314 q 220 147 196 181 q 292 113 244 113 q 362 147 338 113 q 386 247 386 181 q 362 349 386 313 q 292 385 338 385 z "},"9":{"ha":582,"x_min":39,"x_max":544,"o":"m 281 892 q 478 794 411 892 q 544 464 544 696 q 481 94 544 203 q 292 -15 417 -15 q 118 63 175 -15 q 61 269 61 140 l 218 269 q 236 153 218 192 q 296 114 254 114 q 367 180 350 114 q 386 394 383 246 q 328 344 364 363 q 250 325 292 325 q 93 403 147 325 q 39 608 39 482 q 70 758 39 694 q 156 857 101 822 q 281 892 211 892 m 286 763 q 219 720 242 763 q 196 608 196 678 q 219 492 196 535 q 286 450 242 450 q 353 492 331 450 q 376 608 376 535 q 353 720 376 678 q 286 763 331 763 z "},"\r":{"ha":0,"x_min":0,"x_max":0,"o":""}," ":{"ha":292,"x_min":0,"x_max":0,"o":""},"A":{"ha":756,"x_min":0,"x_max":754,"o":"m 588 0 l 535 172 l 211 172 l 158 0 l 0 0 l 282 875 l 472 875 l 754 0 l 588 0 m 369 729 q 361 676 368 717 q 346 611 354 636 l 256 318 l 490 318 l 401 611 q 385 678 393 639 q 375 729 376 717 l 369 729 z "},"Á":{"ha":756,"x_min":0,"x_max":754,"o":"m 417 960 l 290 960 l 400 1128 l 553 1128 l 554 1124 l 417 960 m 588 0 l 535 172 l 211 172 l 158 0 l 0 0 l 282 875 l 472 875 l 754 0 l 588 0 m 369 729 q 361 676 368 717 q 346 611 354 636 l 256 318 l 490 318 l 401 611 q 385 678 393 639 q 375 729 376 717 l 369 729 z "},"Ă":{"ha":756,"x_min":0,"x_max":754,"o":"m 549 1128 q 527 1063 549 1094 q 466 1010 506 1031 q 376 990 426 990 q 288 1010 326 990 q 229 1063 250 1031 q 208 1128 208 1094 l 303 1128 q 326 1099 306 1113 q 376 1085 347 1085 q 431 1099 408 1085 q 454 1128 453 1113 l 549 1128 m 588 0 l 535 172 l 211 172 l 158 0 l 0 0 l 282 875 l 472 875 l 754 0 l 588 0 m 369 729 q 361 676 368 717 q 346 611 354 636 l 256 318 l 490 318 l 401 611 q 385 678 393 639 q 375 729 376 717 l 369 729 z "},"Â":{"ha":756,"x_min":0,"x_max":754,"o":"m 435 954 l 378 1043 l 321 954 l 207 954 l 317 1128 l 442 1128 l 550 954 l 435 954 m 588 0 l 535 172 l 211 172 l 158 0 l 0 0 l 282 875 l 472 875 l 754 0 l 588 0 m 369 729 q 361 676 368 717 q 346 611 354 636 l 256 318 l 490 318 l 401 611 q 385 678 393 639 q 375 729 376 717 l 369 729 z "},"Ä":{"ha":756,"x_min":0,"x_max":754,"o":"m 204 988 l 204 1128 l 331 1128 l 331 988 l 204 988 m 425 988 l 425 1128 l 554 1128 l 554 988 l 425 988 m 588 0 l 535 172 l 211 172 l 158 0 l 0 0 l 282 875 l 472 875 l 754 0 l 588 0 m 369 729 q 361 676 368 717 q 346 611 354 636 l 256 318 l 490 318 l 401 611 q 385 678 393 639 q 375 729 376 717 l 369 729 z "},"À":{"ha":756,"x_min":0,"x_max":754,"o":"m 339 960 l 203 1124 l 204 1128 l 357 1128 l 467 960 l 339 960 m 588 0 l 535 172 l 211 172 l 158 0 l 0 0 l 282 875 l 472 875 l 754 0 l 588 0 m 369 729 q 361 676 368 717 q 346 611 354 636 l 256 318 l 490 318 l 401 611 q 385 678 393 639 q 375 729 376 717 l 369 729 z "},"Ā":{"ha":756,"x_min":0,"x_max":754,"o":"m 215 969 l 215 1081 l 542 1081 l 542 969 l 215 969 m 588 0 l 535 172 l 211 172 l 158 0 l 0 0 l 282 875 l 472 875 l 754 0 l 588 0 m 369 729 q 361 676 368 717 q 346 611 354 636 l 256 318 l 490 318 l 401 611 q 385 678 393 639 q 375 729 376 717 l 369 729 z "},"Ą":{"ha":756,"x_min":0,"x_max":801,"o":"m 801 -154 l 801 -225 q 718 -243 760 -243 q 628 -215 665 -243 q 590 -128 590 -187 q 603 -66 590 -90 q 630 -24 615 -42 q 649 0 644 -6 l 588 0 l 535 172 l 211 172 l 158 0 l 0 0 l 282 875 l 472 875 l 754 0 q 728 -37 740 -12 q 717 -89 717 -61 q 731 -135 717 -117 q 774 -154 744 -154 l 801 -154 m 490 318 l 401 611 q 385 678 393 639 q 375 729 376 717 l 369 729 q 361 676 368 717 q 346 611 354 636 l 256 318 l 490 318 z "},"Å":{"ha":756,"x_min":0,"x_max":754,"o":"m 378 1165 q 465 1129 429 1165 q 501 1043 501 1093 q 465 956 501 992 q 378 919 429 919 q 292 956 328 919 q 256 1043 256 992 q 292 1130 256 1094 q 378 1165 328 1165 m 378 1103 q 337 1085 354 1103 q 319 1043 319 1068 q 337 1001 319 1018 q 378 985 354 985 q 419 1001 401 985 q 436 1043 436 1018 q 419 1085 436 1068 q 378 1103 401 1103 m 588 0 l 535 172 l 211 172 l 158 0 l 0 0 l 282 875 l 472 875 l 754 0 l 588 0 m 369 729 q 361 676 368 717 q 346 611 354 636 l 256 318 l 490 318 l 401 611 q 385 678 393 639 q 375 729 376 717 l 369 729 z "},"Ǻ":{"ha":756,"x_min":0,"x_max":754,"o":"m 324 1083 l 413 1222 l 567 1222 l 567 1218 l 449 1083 l 324 1083 m 378 1049 q 465 1014 429 1049 q 501 931 501 979 q 478 860 501 893 l 754 0 l 588 0 l 535 172 l 211 172 l 158 0 l 0 0 l 278 861 q 256 931 256 888 q 292 1014 256 979 q 378 1049 328 1049 m 378 985 q 336 969 353 985 q 319 931 319 954 q 337 889 319 906 q 378 872 354 872 q 419 889 401 872 q 436 931 436 906 q 419 969 436 954 q 378 985 403 985 m 369 729 q 361 676 368 717 q 346 611 354 636 l 256 318 l 490 318 l 401 611 q 385 678 393 639 q 375 729 376 717 l 369 729 z "},"Ã":{"ha":756,"x_min":0,"x_max":754,"o":"m 592 1128 q 560 1019 592 1067 q 467 972 528 972 q 428 978 446 972 q 379 996 411 983 q 335 1013 353 1007 q 297 1018 317 1018 q 263 1008 275 1018 q 247 972 251 997 l 164 972 q 196 1080 164 1032 q 289 1128 228 1128 q 331 1122 310 1128 q 378 1103 351 1115 q 422 1086 404 1092 q 458 1081 440 1081 q 492 1091 479 1081 q 508 1128 504 1101 l 592 1128 m 588 0 l 535 172 l 211 172 l 158 0 l 0 0 l 282 875 l 472 875 l 754 0 l 588 0 m 369 729 q 361 676 368 717 q 346 611 354 636 l 256 318 l 490 318 l 401 611 q 385 678 393 639 q 375 729 376 717 l 369 729 z "},"Æ":{"ha":1047,"x_min":-10,"x_max":992,"o":"m 558 731 l 611 521 l 929 521 l 929 375 l 646 375 l 701 146 l 992 146 l 992 0 l 571 0 l 529 172 l 206 172 l 142 0 l -10 0 l 325 875 l 985 875 l 985 731 l 558 731 m 400 697 q 391 674 394 686 q 382 650 388 661 l 258 318 l 494 318 l 417 650 l 404 697 l 400 697 z "},"Ǽ":{"ha":1047,"x_min":-10,"x_max":992,"o":"m 563 960 l 435 960 l 544 1128 l 699 1128 l 699 1124 l 563 960 m 558 731 l 611 521 l 929 521 l 929 375 l 646 375 l 701 146 l 992 146 l 992 0 l 571 0 l 529 172 l 206 172 l 142 0 l -10 0 l 325 875 l 985 875 l 985 731 l 558 731 m 400 697 q 389 667 393 681 l 376 635 l 258 318 l 494 318 l 419 639 q 411 668 415 650 q 404 697 407 686 l 400 697 z "},"B":{"ha":756,"x_min":76,"x_max":713,"o":"m 454 875 q 624 815 557 875 q 692 658 692 754 q 654 533 692 585 q 557 460 617 481 l 557 456 q 669 375 625 433 q 713 236 713 317 q 678 110 713 164 q 584 28 643 57 q 454 0 525 0 l 76 0 l 76 875 l 454 875 m 408 521 q 494 552 464 521 q 525 629 525 583 q 495 704 525 678 q 417 731 465 731 l 240 731 l 240 521 l 408 521 m 426 146 q 512 174 479 146 q 544 256 544 203 q 513 343 544 310 q 419 376 481 376 l 240 376 l 240 146 l 426 146 z "},"C":{"ha":756,"x_min":43,"x_max":714,"o":"m 392 892 q 626 806 538 892 q 714 550 714 721 l 546 550 q 504 700 546 649 q 392 751 463 751 q 257 678 301 751 q 213 469 213 604 l 213 406 q 259 198 213 271 q 397 125 306 125 q 513 176 471 125 q 554 325 554 226 l 714 325 q 626 72 714 158 q 392 -15 538 -15 q 133 98 224 -15 q 43 438 43 211 q 133 778 43 665 q 392 892 224 892 z "},"Ć":{"ha":756,"x_min":43,"x_max":714,"o":"m 431 960 l 303 960 l 413 1128 l 567 1128 l 568 1124 l 431 960 m 392 892 q 626 806 538 892 q 714 550 714 721 l 546 550 q 504 700 546 649 q 392 751 463 751 q 257 678 301 751 q 213 469 213 604 l 213 406 q 259 198 213 271 q 397 125 306 125 q 513 176 471 125 q 554 325 554 226 l 714 325 q 626 72 714 158 q 392 -15 538 -15 q 133 98 224 -15 q 43 438 43 211 q 133 778 43 665 q 392 892 224 892 z "},"Č":{"ha":756,"x_min":43,"x_max":714,"o":"m 219 1128 l 335 1128 l 392 1040 l 449 1128 l 564 1128 l 456 954 l 329 954 l 219 1128 m 392 892 q 626 806 538 892 q 714 550 714 721 l 546 550 q 504 700 546 649 q 392 751 463 751 q 257 678 301 751 q 213 469 213 604 l 213 406 q 259 198 213 271 q 397 125 306 125 q 513 176 471 125 q 554 325 554 226 l 714 325 q 626 72 714 158 q 392 -15 538 -15 q 133 98 224 -15 q 43 438 43 211 q 133 778 43 665 q 392 892 224 892 z "},"Ç":{"ha":756,"x_min":43,"x_max":714,"o":"m 392 892 q 626 806 538 892 q 714 550 714 721 l 546 550 q 504 700 546 649 q 392 751 463 751 q 257 678 301 751 q 213 469 213 604 l 213 406 q 259 198 213 271 q 397 125 306 125 q 513 176 471 125 q 554 325 554 226 l 714 325 q 634 81 714 168 q 422 -14 554 -6 l 419 -42 q 492 -66 464 -44 q 519 -129 519 -87 q 477 -209 519 -186 q 381 -232 435 -232 q 274 -222 325 -232 l 274 -160 l 364 -160 q 410 -129 410 -160 q 400 -106 410 -112 q 367 -99 390 -99 l 325 -99 l 335 -11 q 118 117 193 6 q 43 438 43 229 q 133 778 43 665 q 392 892 224 892 z "},"Ĉ":{"ha":756,"x_min":43,"x_max":714,"o":"m 392 1043 l 335 954 l 219 954 l 329 1128 l 456 1128 l 564 954 l 449 954 l 392 1043 m 392 892 q 626 806 538 892 q 714 550 714 721 l 546 550 q 504 700 546 649 q 392 751 463 751 q 257 678 301 751 q 213 469 213 604 l 213 406 q 259 198 213 271 q 397 125 306 125 q 513 176 471 125 q 554 325 554 226 l 714 325 q 626 72 714 158 q 392 -15 538 -15 q 133 98 224 -15 q 43 438 43 211 q 133 778 43 665 q 392 892 224 892 z "},"Ċ":{"ha":756,"x_min":43,"x_max":714,"o":"m 324 1128 l 460 1128 l 460 981 l 324 981 l 324 1128 m 392 892 q 626 806 538 892 q 714 550 714 721 l 546 550 q 504 700 546 649 q 392 751 463 751 q 257 678 301 751 q 213 469 213 604 l 213 406 q 259 198 213 271 q 397 125 306 125 q 513 176 471 125 q 554 325 554 226 l 714 325 q 626 72 714 158 q 392 -15 538 -15 q 133 98 224 -15 q 43 438 43 211 q 133 778 43 665 q 392 892 224 892 z "},"D":{"ha":756,"x_min":76,"x_max":713,"o":"m 361 875 q 620 767 528 875 q 713 450 713 658 q 620 115 713 229 q 361 0 528 0 l 76 0 l 76 875 l 361 875 m 347 146 q 492 216 440 146 q 544 419 544 286 l 544 482 q 492 667 544 604 q 347 731 440 731 l 240 731 l 240 146 l 347 146 z "},"Ð":{"ha":756,"x_min":13,"x_max":713,"o":"m 76 875 l 361 875 q 620 767 528 875 q 713 450 713 658 q 620 115 713 229 q 361 0 528 0 l 76 0 l 76 399 l 13 399 l 13 507 l 76 507 l 76 875 m 400 507 l 400 399 l 240 399 l 240 146 l 347 146 q 492 216 440 146 q 544 419 544 286 l 544 482 q 492 667 544 604 q 347 731 440 731 l 240 731 l 240 507 l 400 507 z "},"Ď":{"ha":756,"x_min":76,"x_max":713,"o":"m 151 1128 l 267 1128 l 325 1040 l 381 1128 l 496 1128 l 388 954 l 261 954 l 151 1128 m 361 875 q 620 767 528 875 q 713 450 713 658 q 620 115 713 229 q 361 0 528 0 l 76 0 l 76 875 l 361 875 m 347 146 q 492 216 440 146 q 544 419 544 286 l 544 482 q 492 667 544 604 q 347 731 440 731 l 240 731 l 240 146 l 347 146 z "},"Đ":{"ha":756,"x_min":13,"x_max":713,"o":"m 76 875 l 361 875 q 620 767 528 875 q 713 450 713 658 q 620 115 713 229 q 361 0 528 0 l 76 0 l 76 399 l 13 399 l 13 507 l 76 507 l 76 875 m 400 507 l 400 399 l 240 399 l 240 146 l 347 146 q 492 216 440 146 q 544 419 544 286 l 544 482 q 492 667 544 604 q 347 731 440 731 l 240 731 l 240 507 l 400 507 z "},"E":{"ha":699,"x_min":76,"x_max":643,"o":"m 635 875 l 635 731 l 240 731 l 240 521 l 578 521 l 578 375 l 240 375 l 240 146 l 643 146 l 643 0 l 76 0 l 76 875 l 635 875 z "},"É":{"ha":699,"x_min":76,"x_max":643,"o":"m 389 960 l 261 960 l 371 1128 l 525 1128 l 526 1124 l 389 960 m 240 731 l 240 521 l 578 521 l 578 375 l 240 375 l 240 146 l 643 146 l 643 0 l 76 0 l 76 875 l 635 875 l 635 731 l 240 731 z "},"Ĕ":{"ha":699,"x_min":76,"x_max":643,"o":"m 519 1128 q 499 1063 519 1094 q 439 1010 478 1031 q 349 990 400 990 q 260 1010 299 990 q 200 1063 221 1031 q 179 1128 179 1094 l 274 1128 q 299 1099 278 1113 q 349 1085 319 1085 q 401 1099 379 1085 q 425 1128 424 1113 l 519 1128 m 635 875 l 635 731 l 240 731 l 240 521 l 578 521 l 578 375 l 240 375 l 240 146 l 643 146 l 643 0 l 76 0 l 76 875 l 635 875 z "},"Ě":{"ha":699,"x_min":76,"x_max":643,"o":"m 178 1128 l 292 1128 l 350 1040 l 406 1128 l 521 1128 l 413 954 l 288 954 l 178 1128 m 635 875 l 635 731 l 240 731 l 240 521 l 578 521 l 578 375 l 240 375 l 240 146 l 643 146 l 643 0 l 76 0 l 76 875 l 635 875 z "},"Ê":{"ha":699,"x_min":76,"x_max":643,"o":"m 350 1043 l 292 954 l 178 954 l 288 1128 l 413 1128 l 521 954 l 406 954 l 350 1043 m 635 875 l 635 731 l 240 731 l 240 521 l 578 521 l 578 375 l 240 375 l 240 146 l 643 146 l 643 0 l 76 0 l 76 875 l 635 875 z "},"Ë":{"ha":699,"x_min":76,"x_max":643,"o":"m 174 988 l 174 1128 l 301 1128 l 301 988 l 174 988 m 397 988 l 397 1128 l 525 1128 l 525 988 l 397 988 m 240 731 l 240 521 l 578 521 l 578 375 l 240 375 l 240 146 l 643 146 l 643 0 l 76 0 l 76 875 l 635 875 l 635 731 l 240 731 z "},"Ė":{"ha":699,"x_min":76,"x_max":643,"o":"m 281 1128 l 418 1128 l 418 981 l 281 981 l 281 1128 m 635 875 l 635 731 l 240 731 l 240 521 l 578 521 l 578 375 l 240 375 l 240 146 l 643 146 l 643 0 l 76 0 l 76 875 l 635 875 z "},"È":{"ha":699,"x_min":76,"x_max":643,"o":"m 311 960 l 172 1124 l 174 1128 l 326 1128 l 436 960 l 311 960 m 240 731 l 240 521 l 578 521 l 578 375 l 240 375 l 240 146 l 643 146 l 643 0 l 76 0 l 76 875 l 635 875 l 635 731 l 240 731 z "},"Ē":{"ha":699,"x_min":76,"x_max":643,"o":"m 186 1081 l 511 1081 l 511 969 l 186 969 l 186 1081 m 635 875 l 635 731 l 240 731 l 240 521 l 578 521 l 578 375 l 240 375 l 240 146 l 643 146 l 643 0 l 76 0 l 76 875 l 635 875 z "},"Ę":{"ha":699,"x_min":76,"x_max":689,"o":"m 240 521 l 578 521 l 578 375 l 240 375 l 240 146 l 643 146 l 643 0 q 616 -40 628 -15 q 604 -89 604 -64 q 618 -135 604 -117 q 661 -154 632 -154 l 689 -154 l 689 -225 q 606 -243 647 -243 q 515 -215 553 -243 q 478 -128 478 -187 q 492 -58 478 -87 q 535 0 507 -28 l 76 0 l 76 875 l 635 875 l 635 731 l 240 731 l 240 521 z "},"F":{"ha":640,"x_min":76,"x_max":590,"o":"m 590 875 l 590 731 l 240 731 l 240 510 l 540 510 l 540 364 l 240 364 l 240 0 l 76 0 l 76 875 l 590 875 z "},"G":{"ha":815,"x_min":43,"x_max":750,"o":"m 386 476 l 750 476 l 750 0 l 644 0 l 615 97 q 513 14 574 43 q 382 -15 451 -15 q 131 97 218 -15 q 43 438 43 210 q 139 778 43 665 q 414 892 235 892 q 581 854 504 892 q 704 744 658 817 q 750 569 750 671 l 582 569 q 533 703 582 654 q 410 751 483 751 q 261 678 310 751 q 213 469 213 604 l 213 406 q 262 197 213 268 q 411 125 311 125 q 535 183 488 125 q 582 335 582 240 l 386 335 l 386 476 z "},"Ğ":{"ha":815,"x_min":43,"x_max":750,"o":"m 407 990 q 318 1010 357 990 q 258 1063 279 1031 q 238 1128 238 1094 l 332 1128 q 356 1099 335 1113 q 407 1085 378 1085 q 459 1099 438 1085 q 483 1128 481 1113 l 578 1128 q 556 1063 578 1094 q 496 1010 535 1031 q 407 990 457 990 m 386 476 l 750 476 l 750 0 l 644 0 l 615 97 q 513 14 574 43 q 382 -15 451 -15 q 131 97 218 -15 q 43 438 43 210 q 139 778 43 665 q 414 892 235 892 q 581 854 504 892 q 704 744 658 817 q 750 569 750 671 l 582 569 q 533 703 582 654 q 410 751 483 751 q 261 678 310 751 q 213 469 213 604 l 213 406 q 262 197 213 268 q 411 125 311 125 q 535 183 488 125 q 582 335 582 240 l 386 335 l 386 476 z "},"Ĝ":{"ha":815,"x_min":43,"x_max":750,"o":"m 351 954 l 238 954 l 347 1128 l 471 1128 l 579 954 l 465 954 l 408 1043 l 351 954 m 386 476 l 750 476 l 750 0 l 644 0 l 615 97 q 513 14 574 43 q 382 -15 451 -15 q 131 97 218 -15 q 43 438 43 210 q 139 778 43 665 q 414 892 235 892 q 581 854 504 892 q 704 744 658 817 q 750 569 750 671 l 582 569 q 533 703 582 654 q 410 751 483 751 q 261 678 310 751 q 213 469 213 604 l 213 406 q 262 197 213 268 q 411 125 311 125 q 535 183 488 125 q 582 335 582 240 l 386 335 l 386 476 z "},"Ģ":{"ha":815,"x_min":43,"x_max":750,"o":"m 386 476 l 750 476 l 750 0 l 644 0 l 615 97 q 513 14 574 43 q 382 -15 451 -15 q 131 97 218 -15 q 43 438 43 210 q 139 778 43 665 q 414 892 235 892 q 581 854 504 892 q 704 744 658 817 q 750 569 750 671 l 582 569 q 533 703 582 654 q 410 751 483 751 q 261 678 310 751 q 213 469 213 604 l 213 406 q 262 197 213 268 q 411 125 311 125 q 535 183 488 125 q 582 335 582 240 l 386 335 l 386 476 m 310 -71 l 467 -71 l 467 -214 l 408 -335 l 325 -335 l 371 -226 l 310 -226 l 310 -71 z "},"Ġ":{"ha":815,"x_min":43,"x_max":750,"o":"m 476 981 l 339 981 l 339 1128 l 476 1128 l 476 981 m 386 476 l 750 476 l 750 0 l 644 0 l 615 97 q 513 14 574 43 q 382 -15 451 -15 q 131 97 218 -15 q 43 438 43 210 q 139 778 43 665 q 414 892 235 892 q 581 854 504 892 q 704 744 658 817 q 750 569 750 671 l 582 569 q 533 703 582 654 q 410 751 483 751 q 261 678 310 751 q 213 469 213 604 l 213 406 q 262 197 213 268 q 411 125 311 125 q 535 183 488 125 q 582 335 582 240 l 386 335 l 386 476 z "},"H":{"ha":756,"x_min":76,"x_max":679,"o":"m 515 0 l 515 375 l 240 375 l 240 0 l 76 0 l 76 875 l 240 875 l 240 521 l 515 521 l 515 875 l 679 875 l 679 0 l 515 0 z "},"Ħ":{"ha":756,"x_min":13,"x_max":743,"o":"m 679 0 l 515 0 l 515 367 l 240 367 l 240 0 l 76 0 l 76 625 l 13 625 l 13 736 l 76 736 l 76 875 l 240 875 l 240 736 l 515 736 l 515 875 l 679 875 l 679 736 l 743 736 l 743 625 l 679 625 l 679 0 m 240 625 l 240 511 l 515 511 l 515 625 l 240 625 z "},"Ĥ":{"ha":756,"x_min":76,"x_max":679,"o":"m 435 954 l 378 1043 l 321 954 l 207 954 l 317 1128 l 442 1128 l 550 954 l 435 954 m 515 0 l 515 375 l 240 375 l 240 0 l 76 0 l 76 875 l 240 875 l 240 521 l 515 521 l 515 875 l 679 875 l 679 0 l 515 0 z "},"I":{"ha":292,"x_min":64,"x_max":226,"o":"m 64 875 l 226 875 l 226 0 l 64 0 l 64 875 z "},"Ĳ":{"ha":874,"x_min":64,"x_max":797,"o":"m 64 0 l 64 875 l 226 875 l 226 0 l 64 0 m 797 208 q 733 42 797 99 q 550 -15 669 -15 q 367 42 431 -15 q 303 208 303 100 l 303 276 l 465 276 l 465 221 q 487 149 465 174 q 550 125 508 125 q 633 221 633 125 l 633 875 l 797 875 l 797 208 z "},"Í":{"ha":292,"x_min":58,"x_max":322,"o":"m 185 960 l 58 960 l 168 1128 l 321 1128 l 322 1124 l 185 960 m 64 0 l 64 875 l 226 875 l 226 0 l 64 0 z "},"Ĭ":{"ha":292,"x_min":-26,"x_max":317,"o":"m 317 1128 q 295 1063 317 1094 q 235 1010 274 1031 q 146 990 196 990 q 56 1010 96 990 q -5 1063 17 1031 q -26 1128 -26 1094 l 71 1128 q 95 1099 74 1113 q 146 1085 117 1085 q 198 1099 176 1085 q 222 1128 219 1113 l 317 1128 m 64 875 l 226 875 l 226 0 l 64 0 l 64 875 z "},"Î":{"ha":292,"x_min":-28,"x_max":318,"o":"m 147 1043 l 89 954 l -28 954 l 83 1128 l 210 1128 l 318 954 l 204 954 l 147 1043 m 64 875 l 226 875 l 226 0 l 64 0 l 64 875 z "},"Ï":{"ha":292,"x_min":-29,"x_max":322,"o":"m -29 988 l -29 1128 l 99 1128 l 99 988 l -29 988 m 193 988 l 193 1128 l 322 1128 l 322 988 l 193 988 m 64 0 l 64 875 l 226 875 l 226 0 l 64 0 z "},"İ":{"ha":292,"x_min":64,"x_max":226,"o":"m 78 1128 l 215 1128 l 215 981 l 78 981 l 78 1128 m 64 875 l 226 875 l 226 0 l 64 0 l 64 875 z "},"Ì":{"ha":292,"x_min":-31,"x_max":233,"o":"m 107 960 l -31 1124 l -29 1128 l 124 1128 l 233 960 l 107 960 m 64 0 l 64 875 l 226 875 l 226 0 l 64 0 z "},"Ī":{"ha":292,"x_min":-17,"x_max":310,"o":"m -17 1081 l 310 1081 l 310 969 l -17 969 l -17 1081 m 64 875 l 226 875 l 226 0 l 64 0 l 64 875 z "},"Į":{"ha":292,"x_min":64,"x_max":275,"o":"m 226 0 q 189 -89 189 -50 q 203 -135 189 -117 q 247 -154 217 -154 l 275 -154 l 275 -225 q 190 -243 233 -243 q 102 -215 140 -243 q 64 -128 64 -187 q 78 -57 64 -86 q 119 0 93 -28 l 64 0 l 64 875 l 226 875 l 226 0 z "},"Ĩ":{"ha":292,"x_min":-69,"x_max":361,"o":"m 361 1128 q 329 1019 361 1067 q 236 972 297 972 q 197 978 215 972 q 147 996 178 983 q 103 1013 121 1007 q 67 1018 85 1018 q 33 1008 44 1018 q 15 972 21 997 l -69 972 q -37 1080 -69 1032 q 57 1128 -6 1128 q 99 1122 78 1128 q 146 1103 119 1115 q 190 1086 172 1092 q 226 1081 208 1081 q 260 1091 249 1081 q 276 1128 271 1101 l 361 1128 m 64 875 l 226 875 l 226 0 l 64 0 l 64 875 z "},"J":{"ha":582,"x_min":11,"x_max":506,"o":"m 506 208 q 442 42 506 99 q 258 -15 378 -15 q 76 42 140 -15 q 11 208 11 100 l 11 276 l 174 276 l 174 221 q 196 149 174 174 q 258 125 218 125 q 342 221 342 125 l 342 875 l 506 875 l 506 208 z "},"Ĵ":{"ha":582,"x_min":11,"x_max":611,"o":"m 499 954 l 440 1043 l 383 954 l 268 954 l 378 1128 l 504 1128 l 611 954 l 499 954 m 506 208 q 442 42 506 99 q 258 -15 378 -15 q 76 42 140 -15 q 11 208 11 100 l 11 276 l 174 276 l 174 221 q 196 149 174 174 q 258 125 218 125 q 342 221 342 125 l 342 875 l 506 875 l 506 208 z "},"K":{"ha":756,"x_min":76,"x_max":753,"o":"m 744 875 l 485 519 l 753 0 l 568 0 l 378 392 l 242 224 l 242 0 l 76 0 l 76 875 l 242 875 l 242 428 l 563 875 l 744 875 z "},"Ķ":{"ha":756,"x_min":76,"x_max":753,"o":"m 744 875 l 485 519 l 753 0 l 568 0 l 378 392 l 242 224 l 242 0 l 76 0 l 76 875 l 242 875 l 242 428 l 563 875 l 744 875 m 317 -335 l 361 -226 l 299 -226 l 299 -71 l 457 -71 l 457 -214 l 399 -335 l 317 -335 z "},"L":{"ha":640,"x_min":76,"x_max":611,"o":"m 611 153 l 611 0 l 76 0 l 76 875 l 240 875 l 240 153 l 611 153 z "},"Ĺ":{"ha":640,"x_min":74,"x_max":611,"o":"m 201 960 l 74 960 l 183 1128 l 336 1128 l 338 1124 l 201 960 m 611 153 l 611 0 l 76 0 l 76 875 l 240 875 l 240 153 l 611 153 z "},"Ľ":{"ha":640,"x_min":76,"x_max":611,"o":"m 611 153 l 611 0 l 76 0 l 76 875 l 240 875 l 240 153 l 611 153 m 526 501 l 435 501 l 504 700 l 435 700 l 435 875 l 611 875 l 611 717 l 526 501 z "},"Ļ":{"ha":640,"x_min":76,"x_max":611,"o":"m 611 153 l 611 0 l 76 0 l 76 875 l 240 875 l 240 153 l 611 153 m 340 -335 l 258 -335 l 303 -226 l 242 -226 l 242 -71 l 399 -71 l 399 -214 l 340 -335 z "},"Ŀ":{"ha":640,"x_min":76,"x_max":611,"o":"m 611 153 l 611 0 l 76 0 l 76 875 l 240 875 l 240 153 l 611 153 m 400 522 l 400 669 l 536 669 l 536 522 l 400 522 z "},"Ł":{"ha":640,"x_min":0,"x_max":611,"o":"m 389 701 l 389 578 l 240 446 l 240 153 l 611 153 l 611 0 l 76 0 l 76 303 l 0 236 l 0 357 l 76 424 l 76 875 l 240 875 l 240 569 l 389 701 z "},"M":{"ha":872,"x_min":68,"x_max":804,"o":"m 654 0 l 654 557 q 656 640 654 597 q 660 699 658 682 l 654 699 q 649 668 651 690 l 633 600 l 501 0 l 360 0 l 238 563 q 206 699 224 613 l 201 699 q 205 638 203 682 q 207 557 207 593 l 207 0 l 68 0 l 68 875 l 297 875 l 406 393 q 426 287 414 357 q 440 194 438 217 l 446 194 q 458 290 449 218 q 475 393 468 361 l 582 875 l 804 875 l 804 0 l 654 0 z "},"N":{"ha":756,"x_min":76,"x_max":679,"o":"m 535 0 l 263 482 l 224 565 l 218 561 q 219 531 218 553 q 221 489 221 510 l 221 0 l 76 0 l 76 875 l 221 875 l 492 393 q 514 351 500 379 q 532 313 528 322 l 535 315 l 535 389 l 535 875 l 679 875 l 679 0 l 535 0 z "},"Ń":{"ha":756,"x_min":76,"x_max":679,"o":"m 417 960 l 290 960 l 400 1128 l 553 1128 l 554 1124 l 417 960 m 535 0 l 263 482 l 224 565 l 218 561 q 219 531 218 553 q 221 489 221 510 l 221 0 l 76 0 l 76 875 l 221 875 l 492 393 q 514 351 500 379 q 532 313 528 322 l 535 315 l 535 389 l 535 875 l 679 875 l 679 0 l 535 0 z "},"Ň":{"ha":756,"x_min":76,"x_max":679,"o":"m 317 954 l 207 1128 l 321 1128 l 378 1040 l 435 1128 l 550 1128 l 442 954 l 317 954 m 535 0 l 263 482 l 224 565 l 218 561 q 219 531 218 553 q 221 489 221 510 l 221 0 l 76 0 l 76 875 l 221 875 l 492 393 q 514 351 500 379 q 532 313 528 322 l 535 315 l 535 389 l 535 875 l 679 875 l 679 0 l 535 0 z "},"Ņ":{"ha":756,"x_min":76,"x_max":679,"o":"m 535 0 l 263 482 l 224 565 l 218 561 q 219 531 218 553 q 221 489 221 510 l 221 0 l 76 0 l 76 875 l 221 875 l 492 393 q 514 351 500 379 q 532 313 528 322 l 535 315 l 535 389 l 535 875 l 679 875 l 679 0 l 535 0 m 399 -335 l 317 -335 l 361 -226 l 299 -226 l 299 -71 l 457 -71 l 457 -214 l 399 -335 z "},"Ŋ":{"ha":757,"x_min":76,"x_max":679,"o":"m 679 -51 q 643 -181 679 -129 q 522 -232 607 -232 q 464 -228 494 -232 q 413 -217 433 -224 l 413 -104 l 469 -104 q 531 -42 531 -104 l 531 0 l 263 482 l 224 565 l 218 561 q 219 531 218 553 q 221 489 221 510 l 221 0 l 76 0 l 76 875 l 221 875 l 492 393 q 514 351 500 379 q 532 313 528 322 l 535 315 l 535 389 l 535 875 l 679 875 l 679 -51 z "},"Ñ":{"ha":756,"x_min":76,"x_max":679,"o":"m 592 1128 q 560 1019 592 1067 q 467 972 528 972 q 428 978 446 972 q 379 996 411 983 q 335 1013 353 1007 q 297 1018 317 1018 q 263 1008 275 1018 q 247 972 251 997 l 164 972 q 196 1080 164 1032 q 289 1128 228 1128 q 331 1122 310 1128 q 378 1103 351 1115 q 422 1086 404 1092 q 458 1081 440 1081 q 492 1091 479 1081 q 508 1128 504 1101 l 592 1128 m 535 0 l 263 482 l 224 565 l 218 561 q 219 531 218 553 q 221 489 221 510 l 221 0 l 76 0 l 76 875 l 221 875 l 492 393 q 514 351 500 379 q 532 313 528 322 l 535 315 l 535 389 l 535 875 l 679 875 l 679 0 l 535 0 z "},"O":{"ha":815,"x_min":43,"x_max":771,"o":"m 407 892 q 676 778 581 892 q 771 438 771 665 q 676 98 771 211 q 407 -15 581 -15 q 138 98 233 -15 q 43 438 43 211 q 138 778 43 664 q 407 892 233 892 m 407 751 q 262 677 311 751 q 213 469 213 603 l 213 406 q 262 199 213 272 q 407 125 311 125 q 553 199 503 125 q 603 406 603 272 l 603 469 q 553 677 603 603 q 407 751 503 751 z "},"Ó":{"ha":815,"x_min":43,"x_max":771,"o":"m 446 960 l 319 960 l 429 1128 l 583 1128 l 585 1124 l 446 960 m 407 892 q 676 778 581 892 q 771 438 771 665 q 676 98 771 211 q 407 -15 581 -15 q 138 98 233 -15 q 43 438 43 211 q 138 778 43 664 q 407 892 233 892 m 407 751 q 262 677 311 751 q 213 469 213 603 l 213 406 q 262 199 213 272 q 407 125 311 125 q 553 199 503 125 q 603 406 603 272 l 603 469 q 553 677 603 603 q 407 751 503 751 z "},"Ŏ":{"ha":815,"x_min":43,"x_max":771,"o":"m 578 1128 q 556 1063 578 1094 q 496 1010 535 1031 q 407 990 457 990 q 318 1010 357 990 q 258 1063 279 1031 q 238 1128 238 1094 l 332 1128 q 356 1099 335 1113 q 407 1085 378 1085 q 459 1099 438 1085 q 483 1128 481 1113 l 578 1128 m 407 892 q 676 778 581 892 q 771 438 771 665 q 676 98 771 211 q 407 -15 581 -15 q 138 98 233 -15 q 43 438 43 211 q 138 778 43 664 q 407 892 233 892 m 407 751 q 262 677 311 751 q 213 469 213 603 l 213 406 q 262 199 213 272 q 407 125 311 125 q 553 199 503 125 q 603 406 603 272 l 603 469 q 553 677 603 603 q 407 751 503 751 z "},"Ô":{"ha":815,"x_min":43,"x_max":771,"o":"m 408 1043 l 351 954 l 238 954 l 347 1128 l 471 1128 l 579 954 l 465 954 l 408 1043 m 407 892 q 676 778 581 892 q 771 438 771 665 q 676 98 771 211 q 407 -15 581 -15 q 138 98 233 -15 q 43 438 43 211 q 138 778 43 664 q 407 892 233 892 m 407 751 q 262 677 311 751 q 213 469 213 603 l 213 406 q 262 199 213 272 q 407 125 311 125 q 553 199 503 125 q 603 406 603 272 l 603 469 q 553 677 603 603 q 407 751 503 751 z "},"Ö":{"ha":815,"x_min":43,"x_max":771,"o":"m 232 988 l 232 1128 l 360 1128 l 360 988 l 232 988 m 457 988 l 457 1128 l 583 1128 l 583 988 l 457 988 m 407 892 q 676 778 581 892 q 771 438 771 665 q 676 98 771 211 q 407 -15 581 -15 q 138 98 233 -15 q 43 438 43 211 q 138 778 43 664 q 407 892 233 892 m 407 751 q 262 677 311 751 q 213 469 213 603 l 213 406 q 262 199 213 272 q 407 125 311 125 q 553 199 503 125 q 603 406 603 272 l 603 469 q 553 677 603 603 q 407 751 503 751 z "},"Ò":{"ha":815,"x_min":43,"x_max":771,"o":"m 368 960 l 231 1124 l 232 1128 l 386 1128 l 496 960 l 368 960 m 407 892 q 676 778 581 892 q 771 438 771 665 q 676 98 771 211 q 407 -15 581 -15 q 138 98 233 -15 q 43 438 43 211 q 138 778 43 664 q 407 892 233 892 m 407 751 q 262 677 311 751 q 213 469 213 603 l 213 406 q 262 199 213 272 q 407 125 311 125 q 553 199 503 125 q 603 406 603 272 l 603 469 q 553 677 603 603 q 407 751 503 751 z "},"Ő":{"ha":815,"x_min":43,"x_max":771,"o":"m 365 960 l 264 960 l 344 1128 l 471 1128 l 472 1124 l 365 960 m 544 960 l 443 960 l 522 1128 l 650 1128 l 651 1124 l 544 960 m 407 892 q 676 778 581 892 q 771 438 771 665 q 676 98 771 211 q 407 -15 581 -15 q 138 98 233 -15 q 43 438 43 211 q 138 778 43 664 q 407 892 233 892 m 407 751 q 262 677 311 751 q 213 469 213 603 l 213 406 q 262 199 213 272 q 407 125 311 125 q 553 199 503 125 q 603 406 603 272 l 603 469 q 553 677 603 603 q 407 751 503 751 z "},"Ō":{"ha":815,"x_min":43,"x_max":771,"o":"m 246 1081 l 571 1081 l 571 969 l 246 969 l 246 1081 m 407 892 q 676 778 581 892 q 771 438 771 665 q 676 98 771 211 q 407 -15 581 -15 q 138 98 233 -15 q 43 438 43 211 q 138 778 43 664 q 407 892 233 892 m 407 751 q 262 677 311 751 q 213 469 213 603 l 213 406 q 262 199 213 272 q 407 125 311 125 q 553 199 503 125 q 603 406 603 272 l 603 469 q 553 677 603 603 q 407 751 503 751 z "},"Ø":{"ha":815,"x_min":43,"x_max":771,"o":"m 675 779 q 771 438 771 664 q 676 98 771 211 q 407 -15 581 -15 q 210 35 292 -15 l 158 -47 l 50 -47 l 140 96 q 43 438 43 213 q 138 778 43 664 q 407 892 233 892 q 606 840 524 892 l 657 924 l 765 924 l 675 779 m 407 751 q 262 677 311 751 q 213 469 213 603 l 213 406 q 236 247 213 310 l 522 711 q 407 751 478 751 m 292 165 q 407 125 336 125 q 553 199 503 125 q 603 406 603 272 l 603 469 q 578 625 603 563 l 292 165 z "},"Ǿ":{"ha":815,"x_min":43,"x_max":771,"o":"m 446 960 l 319 960 l 429 1128 l 583 1128 l 585 1124 l 446 960 m 675 779 q 771 438 771 664 q 676 98 771 211 q 407 -15 581 -15 q 210 35 292 -15 l 158 -47 l 50 -47 l 140 96 q 43 438 43 213 q 138 778 43 664 q 407 892 233 892 q 606 840 524 892 l 657 924 l 765 924 l 675 779 m 407 751 q 262 677 311 751 q 213 469 213 603 l 213 406 q 236 247 213 310 l 522 711 q 407 751 478 751 m 292 165 q 407 125 336 125 q 553 199 503 125 q 603 406 603 272 l 603 469 q 578 625 603 563 l 292 165 z "},"Õ":{"ha":815,"x_min":43,"x_max":771,"o":"m 622 1128 q 590 1019 622 1067 q 497 972 558 972 q 459 978 476 972 q 410 996 442 983 q 365 1013 383 1007 q 328 1018 347 1018 q 294 1008 306 1018 q 279 972 282 997 l 192 972 q 224 1080 192 1032 q 319 1128 257 1128 q 358 1122 340 1128 q 407 1104 375 1117 q 490 1081 457 1081 q 538 1128 532 1081 l 622 1128 m 407 892 q 676 778 581 892 q 771 438 771 665 q 676 98 771 211 q 407 -15 581 -15 q 138 98 233 -15 q 43 438 43 211 q 138 778 43 664 q 407 892 233 892 m 407 751 q 262 677 311 751 q 213 469 213 603 l 213 406 q 262 199 213 272 q 407 125 311 125 q 553 199 503 125 q 603 406 603 272 l 603 469 q 553 677 603 603 q 407 751 503 751 z "},"Œ":{"ha":1047,"x_min":39,"x_max":1011,"o":"m 329 892 q 521 797 449 892 l 521 875 l 1003 875 l 1003 731 l 685 731 l 685 521 l 947 521 l 947 375 l 685 375 l 685 146 l 1011 146 l 1011 0 l 521 0 l 521 78 q 329 -15 450 -15 q 115 98 190 -15 q 39 438 39 211 q 115 778 39 665 q 329 892 190 892 m 363 751 q 245 685 283 751 q 207 469 207 618 l 207 406 q 245 192 207 258 q 363 125 283 125 q 481 192 443 125 q 519 406 519 258 l 519 469 q 481 685 519 618 q 363 751 443 751 z "},"P":{"ha":699,"x_min":76,"x_max":664,"o":"m 76 0 l 76 875 l 390 875 q 593 803 522 875 q 664 613 664 731 q 589 414 664 489 q 390 339 514 339 l 240 339 l 240 0 l 76 0 m 372 483 q 464 518 432 483 q 496 613 496 553 q 463 699 496 667 q 372 731 431 731 l 240 731 l 240 483 l 372 483 z "},"Þ":{"ha":699,"x_min":76,"x_max":664,"o":"m 390 721 q 593 648 522 721 q 664 457 664 575 q 589 258 664 333 q 390 183 514 183 l 240 183 l 240 0 l 76 0 l 76 875 l 240 875 l 240 721 l 390 721 m 240 328 l 372 328 q 464 362 432 328 q 496 457 496 396 q 463 543 496 511 q 372 575 431 575 l 240 575 l 240 328 z "},"Q":{"ha":815,"x_min":43,"x_max":771,"o":"m 43 438 q 138 778 43 664 q 407 892 233 892 q 676 778 581 892 q 771 438 771 665 q 722 172 771 276 q 581 22 672 68 l 750 -158 l 549 -158 l 424 -15 l 407 -15 q 138 98 233 -15 q 43 438 43 211 m 213 406 q 262 199 213 272 q 407 125 311 125 q 553 199 503 125 q 603 406 603 272 l 603 469 q 553 677 603 603 q 407 751 503 751 q 262 677 311 751 q 213 469 213 603 l 213 406 z "},"R":{"ha":756,"x_min":76,"x_max":732,"o":"m 443 875 q 642 806 572 875 q 711 625 711 738 q 672 488 711 547 q 565 401 633 429 l 732 0 l 556 0 l 410 365 l 240 365 l 240 0 l 76 0 l 76 875 l 443 875 m 240 510 l 421 510 q 535 625 535 510 q 508 703 535 675 q 426 731 481 731 l 240 731 l 240 510 z "},"Ŕ":{"ha":756,"x_min":76,"x_max":732,"o":"m 417 960 l 290 960 l 400 1128 l 553 1128 l 554 1124 l 417 960 m 443 875 q 642 806 572 875 q 711 625 711 738 q 672 488 711 547 q 565 401 633 429 l 732 0 l 556 0 l 410 365 l 240 365 l 240 0 l 76 0 l 76 875 l 443 875 m 240 510 l 421 510 q 535 625 535 510 q 508 703 535 675 q 426 731 481 731 l 240 731 l 240 510 z "},"Ř":{"ha":756,"x_min":76,"x_max":732,"o":"m 317 954 l 207 1128 l 321 1128 l 378 1040 l 435 1128 l 550 1128 l 442 954 l 317 954 m 443 875 q 642 806 572 875 q 711 625 711 738 q 672 488 711 547 q 565 401 633 429 l 732 0 l 556 0 l 410 365 l 240 365 l 240 0 l 76 0 l 76 875 l 443 875 m 240 510 l 421 510 q 535 625 535 510 q 508 703 535 675 q 426 731 481 731 l 240 731 l 240 510 z "},"Ŗ":{"ha":756,"x_min":76,"x_max":732,"o":"m 443 875 q 642 806 572 875 q 711 625 711 738 q 672 488 711 547 q 565 401 633 429 l 732 0 l 556 0 l 410 365 l 240 365 l 240 0 l 76 0 l 76 875 l 443 875 m 240 510 l 421 510 q 535 625 535 510 q 508 703 535 675 q 426 731 481 731 l 240 731 l 240 510 m 399 -335 l 317 -335 l 361 -226 l 299 -226 l 299 -71 l 457 -71 l 457 -214 l 399 -335 z "},"S":{"ha":699,"x_min":39,"x_max":650,"o":"m 349 892 q 553 827 474 892 q 633 633 633 763 l 633 618 l 467 618 l 467 629 q 435 718 467 685 q 347 751 403 751 q 257 725 289 751 q 225 657 225 699 q 247 598 225 621 q 300 561 268 575 q 390 529 332 547 q 524 478 472 504 q 613 401 576 453 q 650 263 650 349 q 567 52 650 119 q 340 -15 485 -15 q 190 16 258 -15 q 80 108 121 47 q 39 257 39 169 l 39 285 l 210 285 l 208 264 q 245 163 208 201 q 349 125 282 125 q 449 155 417 125 q 481 228 481 185 q 458 299 481 271 q 400 342 435 326 q 306 378 365 358 q 177 430 226 404 q 92 508 128 456 q 57 646 57 560 q 97 781 57 725 q 202 864 136 836 q 349 892 268 892 z "},"Ś":{"ha":699,"x_min":39,"x_max":650,"o":"m 389 960 l 261 960 l 371 1128 l 525 1128 l 526 1124 l 389 960 m 349 892 q 553 827 474 892 q 633 633 633 763 l 633 618 l 467 618 l 467 629 q 435 718 467 685 q 347 751 403 751 q 257 725 289 751 q 225 657 225 699 q 247 598 225 621 q 300 561 268 575 q 390 529 332 547 q 524 478 472 504 q 613 401 576 453 q 650 263 650 349 q 567 52 650 119 q 340 -15 485 -15 q 190 16 258 -15 q 80 108 121 47 q 39 257 39 169 l 39 285 l 210 285 l 208 264 q 245 163 208 201 q 349 125 282 125 q 449 155 417 125 q 481 228 481 185 q 458 299 481 271 q 400 342 435 326 q 306 378 365 358 q 177 430 226 404 q 92 508 128 456 q 57 646 57 560 q 97 781 57 725 q 202 864 136 836 q 349 892 268 892 z "},"Š":{"ha":699,"x_min":39,"x_max":650,"o":"m 178 1128 l 292 1128 l 350 1040 l 406 1128 l 521 1128 l 413 954 l 288 954 l 178 1128 m 349 892 q 553 827 474 892 q 633 633 633 763 l 633 618 l 467 618 l 467 629 q 435 718 467 685 q 347 751 403 751 q 257 725 289 751 q 225 657 225 699 q 247 598 225 621 q 300 561 268 575 q 390 529 332 547 q 524 478 472 504 q 613 401 576 453 q 650 263 650 349 q 567 52 650 119 q 340 -15 485 -15 q 190 16 258 -15 q 80 108 121 47 q 39 257 39 169 l 39 285 l 210 285 l 208 264 q 245 163 208 201 q 349 125 282 125 q 449 155 417 125 q 481 228 481 185 q 458 299 481 271 q 400 342 435 326 q 306 378 365 358 q 177 430 226 404 q 92 508 128 456 q 57 646 57 560 q 97 781 57 725 q 202 864 136 836 q 349 892 268 892 z "},"Ş":{"ha":699,"x_min":39,"x_max":650,"o":"m 349 892 q 553 827 474 892 q 633 633 633 763 l 633 618 l 467 618 l 467 629 q 435 718 467 685 q 347 751 403 751 q 257 725 289 751 q 225 657 225 699 q 247 598 225 621 q 300 561 268 575 q 390 529 332 547 q 524 478 472 504 q 613 401 576 453 q 650 263 650 349 q 576 61 650 128 q 374 -14 503 -6 l 371 -42 q 444 -66 417 -44 q 472 -129 472 -87 q 430 -209 472 -186 q 333 -232 388 -232 q 225 -222 281 -232 l 225 -160 l 317 -160 q 351 -153 340 -160 q 363 -129 363 -146 q 353 -106 363 -112 q 319 -99 343 -99 l 278 -99 l 288 -11 q 108 72 178 1 q 39 257 39 142 l 39 285 l 210 285 l 208 264 q 245 163 208 201 q 349 125 282 125 q 449 155 417 125 q 481 228 481 185 q 458 299 481 271 q 400 342 435 326 q 306 378 365 358 q 177 430 226 404 q 92 508 128 456 q 57 646 57 560 q 97 781 57 725 q 202 864 136 836 q 349 892 268 892 z "},"Ŝ":{"ha":699,"x_min":39,"x_max":650,"o":"m 350 1043 l 292 954 l 178 954 l 288 1128 l 413 1128 l 521 954 l 406 954 l 350 1043 m 349 892 q 553 827 474 892 q 633 633 633 763 l 633 618 l 467 618 l 467 629 q 435 718 467 685 q 347 751 403 751 q 257 725 289 751 q 225 657 225 699 q 247 598 225 621 q 300 561 268 575 q 390 529 332 547 q 524 478 472 504 q 613 401 576 453 q 650 263 650 349 q 567 52 650 119 q 340 -15 485 -15 q 190 16 258 -15 q 80 108 121 47 q 39 257 39 169 l 39 285 l 210 285 l 208 264 q 245 163 208 201 q 349 125 282 125 q 449 155 417 125 q 481 228 481 185 q 458 299 481 271 q 400 342 435 326 q 306 378 365 358 q 177 430 226 404 q 92 508 128 456 q 57 646 57 560 q 97 781 57 725 q 202 864 136 836 q 349 892 268 892 z "},"Ș":{"ha":699,"x_min":39,"x_max":650,"o":"m 39 0 m 349 892 q 553 827 474 892 q 633 633 633 763 l 633 618 l 467 618 l 467 629 q 435 718 467 685 q 347 751 403 751 q 257 725 289 751 q 225 657 225 699 q 247 598 225 621 q 300 561 268 575 q 390 529 332 547 q 524 478 472 504 q 613 401 576 453 q 650 263 650 349 q 567 52 650 119 q 340 -15 485 -15 q 190 16 258 -15 q 80 108 121 47 q 39 257 39 169 l 39 285 l 210 285 l 208 264 q 245 163 208 201 q 349 125 282 125 q 449 155 417 125 q 481 228 481 185 q 458 299 481 271 q 400 342 435 326 q 306 378 365 358 q 177 430 226 404 q 92 508 128 456 q 57 646 57 560 q 97 781 57 725 q 202 864 136 836 q 349 892 268 892 m 288 -335 l 335 -226 l 271 -226 l 271 -71 l 429 -71 l 429 -214 l 371 -335 l 288 -335 z "},"T":{"ha":640,"x_min":22,"x_max":619,"o":"m 401 731 l 401 0 l 239 0 l 239 731 l 22 731 l 22 875 l 619 875 l 619 731 l 401 731 z "},"Ŧ":{"ha":640,"x_min":22,"x_max":619,"o":"m 401 731 l 401 501 l 544 501 l 544 392 l 401 392 l 401 0 l 239 0 l 239 392 l 94 392 l 94 501 l 239 501 l 239 731 l 22 731 l 22 875 l 619 875 l 619 731 l 401 731 z "},"Ť":{"ha":640,"x_min":22,"x_max":619,"o":"m 258 954 l 149 1128 l 263 1128 l 321 1040 l 376 1128 l 492 1128 l 383 954 l 258 954 m 401 731 l 401 0 l 239 0 l 239 731 l 22 731 l 22 875 l 619 875 l 619 731 l 401 731 z "},"Ţ":{"ha":640,"x_min":22,"x_max":619,"o":"m 346 0 l 342 -42 q 414 -66 386 -44 q 442 -129 442 -87 q 399 -209 442 -186 q 303 -232 357 -232 q 196 -222 249 -232 l 196 -160 l 288 -160 q 321 -153 310 -160 q 332 -129 332 -146 q 322 -106 332 -112 q 289 -99 313 -99 l 247 -99 l 260 0 l 239 0 l 239 731 l 22 731 l 22 875 l 619 875 l 619 731 l 401 731 l 401 0 l 346 0 z "},"Ț":{"ha":640,"x_min":22,"x_max":619,"o":"m 401 731 l 401 0 l 239 0 l 239 731 l 22 731 l 22 875 l 619 875 l 619 731 l 401 731 m 340 -335 l 258 -335 l 303 -226 l 242 -226 l 242 -71 l 399 -71 l 399 -214 l 340 -335 z "},"U":{"ha":756,"x_min":78,"x_max":679,"o":"m 679 275 q 600 59 679 133 q 378 -15 521 -15 q 156 59 235 -15 q 78 275 78 133 l 78 875 l 242 875 l 242 281 q 277 165 242 206 q 378 125 313 125 q 480 165 444 125 q 515 281 515 206 l 515 875 l 679 875 l 679 275 z "},"Ú":{"ha":756,"x_min":78,"x_max":679,"o":"m 417 960 l 290 960 l 400 1128 l 553 1128 l 554 1124 l 417 960 m 679 275 q 600 59 679 133 q 378 -15 521 -15 q 156 59 235 -15 q 78 275 78 133 l 78 875 l 242 875 l 242 281 q 277 165 242 206 q 378 125 313 125 q 480 165 444 125 q 515 281 515 206 l 515 875 l 679 875 l 679 275 z "},"Ŭ":{"ha":756,"x_min":78,"x_max":679,"o":"m 549 1128 q 527 1063 549 1094 q 466 1010 506 1031 q 376 990 426 990 q 288 1010 326 990 q 229 1063 250 1031 q 208 1128 208 1094 l 303 1128 q 326 1099 306 1113 q 376 1085 347 1085 q 431 1099 408 1085 q 454 1128 453 1113 l 549 1128 m 679 275 q 600 59 679 133 q 378 -15 521 -15 q 156 59 235 -15 q 78 275 78 133 l 78 875 l 242 875 l 242 281 q 277 165 242 206 q 378 125 313 125 q 480 165 444 125 q 515 281 515 206 l 515 875 l 679 875 l 679 275 z "},"Û":{"ha":756,"x_min":78,"x_max":679,"o":"m 435 954 l 378 1043 l 321 954 l 207 954 l 317 1128 l 442 1128 l 550 954 l 435 954 m 679 275 q 600 59 679 133 q 378 -15 521 -15 q 156 59 235 -15 q 78 275 78 133 l 78 875 l 242 875 l 242 281 q 277 165 242 206 q 378 125 313 125 q 480 165 444 125 q 515 281 515 206 l 515 875 l 679 875 l 679 275 z "},"Ü":{"ha":756,"x_min":78,"x_max":679,"o":"m 204 988 l 204 1128 l 331 1128 l 331 988 l 204 988 m 425 988 l 425 1128 l 554 1128 l 554 988 l 425 988 m 679 275 q 600 59 679 133 q 378 -15 521 -15 q 156 59 235 -15 q 78 275 78 133 l 78 875 l 242 875 l 242 281 q 277 165 242 206 q 378 125 313 125 q 480 165 444 125 q 515 281 515 206 l 515 875 l 679 875 l 679 275 z "},"Ù":{"ha":756,"x_min":78,"x_max":679,"o":"m 339 960 l 203 1124 l 204 1128 l 357 1128 l 467 960 l 339 960 m 679 275 q 600 59 679 133 q 378 -15 521 -15 q 156 59 235 -15 q 78 275 78 133 l 78 875 l 242 875 l 242 281 q 277 165 242 206 q 378 125 313 125 q 480 165 444 125 q 515 281 515 206 l 515 875 l 679 875 l 679 275 z "},"Ű":{"ha":756,"x_min":78,"x_max":679,"o":"m 335 960 l 233 960 l 314 1128 l 440 1128 l 442 1124 l 335 960 m 513 960 l 413 960 l 492 1128 l 619 1128 l 621 1124 l 513 960 m 679 275 q 600 59 679 133 q 378 -15 521 -15 q 156 59 235 -15 q 78 275 78 133 l 78 875 l 242 875 l 242 281 q 277 165 242 206 q 378 125 313 125 q 480 165 444 125 q 515 281 515 206 l 515 875 l 679 875 l 679 275 z "},"Ū":{"ha":756,"x_min":78,"x_max":679,"o":"m 215 969 l 215 1081 l 542 1081 l 542 969 l 215 969 m 679 275 q 600 59 679 133 q 378 -15 521 -15 q 156 59 235 -15 q 78 275 78 133 l 78 875 l 242 875 l 242 281 q 277 165 242 206 q 378 125 313 125 q 480 165 444 125 q 515 281 515 206 l 515 875 l 679 875 l 679 275 z "},"Ų":{"ha":756,"x_min":78,"x_max":679,"o":"m 679 875 l 679 285 q 638 107 679 178 q 517 6 596 36 q 490 -34 503 -10 q 478 -82 478 -58 q 492 -129 478 -110 q 536 -149 507 -149 l 565 -149 l 565 -218 q 479 -237 513 -237 q 392 -210 429 -237 q 354 -121 354 -182 q 392 -15 354 -60 l 378 -15 q 156 62 235 -15 q 78 285 78 139 l 78 875 l 242 875 l 242 290 q 277 167 242 210 q 378 125 313 125 q 480 167 444 125 q 515 290 515 210 l 515 875 l 679 875 z "},"Ů":{"ha":756,"x_min":78,"x_max":679,"o":"m 378 1165 q 465 1129 429 1165 q 501 1043 501 1093 q 465 956 501 992 q 378 919 429 919 q 292 956 328 919 q 256 1043 256 992 q 292 1130 256 1094 q 378 1165 328 1165 m 378 1103 q 337 1085 354 1103 q 319 1043 319 1068 q 337 1001 319 1018 q 378 985 354 985 q 419 1001 401 985 q 436 1043 436 1018 q 419 1085 436 1068 q 378 1103 401 1103 m 679 275 q 600 59 679 133 q 378 -15 521 -15 q 156 59 235 -15 q 78 275 78 133 l 78 875 l 242 875 l 242 281 q 277 165 242 206 q 378 125 313 125 q 480 165 444 125 q 515 281 515 206 l 515 875 l 679 875 l 679 275 z "},"Ũ":{"ha":756,"x_min":78,"x_max":679,"o":"m 592 1128 q 560 1019 592 1067 q 467 972 528 972 q 428 978 446 972 q 379 996 411 983 q 335 1013 353 1007 q 297 1018 317 1018 q 263 1008 275 1018 q 247 972 251 997 l 164 972 q 196 1080 164 1032 q 289 1128 228 1128 q 331 1122 310 1128 q 378 1103 351 1115 q 422 1086 404 1092 q 458 1081 440 1081 q 492 1091 479 1081 q 508 1128 504 1101 l 592 1128 m 679 275 q 600 59 679 133 q 378 -15 521 -15 q 156 59 235 -15 q 78 275 78 133 l 78 875 l 242 875 l 242 281 q 277 165 242 206 q 378 125 313 125 q 480 165 444 125 q 515 281 515 206 l 515 875 l 679 875 l 679 275 z "},"V":{"ha":699,"x_min":0,"x_max":699,"o":"m 0 875 l 169 875 l 353 249 l 358 249 l 539 875 l 699 875 l 432 0 l 267 0 l 0 875 z "},"W":{"ha":988,"x_min":0,"x_max":986,"o":"m 513 557 q 502 628 507 586 q 496 682 497 669 l 490 682 q 483 630 489 668 q 472 557 478 592 l 356 0 l 190 0 l 0 875 l 161 875 l 267 336 q 277 271 272 313 q 283 215 282 229 l 289 215 q 295 272 290 229 q 304 336 300 314 l 411 875 l 597 875 l 700 336 q 711 272 706 315 q 718 215 717 229 l 722 215 q 728 269 724 228 q 739 336 733 310 l 846 875 l 986 875 l 797 0 l 633 0 l 513 557 z "},"Ẃ":{"ha":988,"x_min":0,"x_max":986,"o":"m 533 960 l 406 960 l 515 1128 l 669 1128 l 671 1124 l 533 960 m 633 0 l 513 557 q 502 628 507 586 q 496 682 497 669 l 490 682 q 483 630 489 668 q 472 557 478 592 l 356 0 l 190 0 l 0 875 l 161 875 l 267 336 q 277 271 272 313 q 283 215 282 229 l 289 215 q 295 272 290 229 q 304 336 300 314 l 411 875 l 597 875 l 700 336 q 711 272 706 315 q 718 215 717 229 l 722 215 q 728 269 724 228 q 739 336 733 310 l 846 875 l 986 875 l 797 0 l 633 0 z "},"Ŵ":{"ha":988,"x_min":0,"x_max":986,"o":"m 496 1043 l 438 954 l 324 954 l 433 1128 l 557 1128 l 665 954 l 551 954 l 496 1043 m 513 557 q 502 628 507 586 q 496 682 497 669 l 490 682 q 483 630 489 668 q 472 557 478 592 l 356 0 l 190 0 l 0 875 l 161 875 l 267 336 q 277 271 272 313 q 283 215 282 229 l 289 215 q 295 272 290 229 q 304 336 300 314 l 411 875 l 597 875 l 700 336 q 711 272 706 315 q 718 215 717 229 l 722 215 q 728 269 724 228 q 739 336 733 310 l 846 875 l 986 875 l 797 0 l 633 0 l 513 557 z "},"Ẅ":{"ha":988,"x_min":0,"x_max":986,"o":"m 319 988 l 319 1128 l 446 1128 l 446 988 l 319 988 m 543 988 l 543 1128 l 671 1128 l 671 988 l 543 988 m 633 0 l 513 557 q 502 628 507 586 q 496 682 497 669 l 490 682 q 483 630 489 668 q 472 557 478 592 l 356 0 l 190 0 l 0 875 l 161 875 l 267 336 q 277 271 272 313 q 283 215 282 229 l 289 215 q 295 272 290 229 q 304 336 300 314 l 411 875 l 597 875 l 700 336 q 711 272 706 315 q 718 215 717 229 l 722 215 q 728 269 724 228 q 739 336 733 310 l 846 875 l 986 875 l 797 0 l 633 0 z "},"Ẁ":{"ha":988,"x_min":0,"x_max":986,"o":"m 457 960 l 318 1124 l 319 1128 l 472 1128 l 582 960 l 457 960 m 633 0 l 513 557 q 502 628 507 586 q 496 682 497 669 l 490 682 q 483 630 489 668 q 472 557 478 592 l 356 0 l 190 0 l 0 875 l 161 875 l 267 336 q 277 271 272 313 q 283 215 282 229 l 289 215 q 295 272 290 229 q 304 336 300 314 l 411 875 l 597 875 l 700 336 q 711 272 706 315 q 718 215 717 229 l 722 215 q 728 269 724 228 q 739 336 733 310 l 846 875 l 986 875 l 797 0 l 633 0 z "},"X":{"ha":699,"x_min":0,"x_max":697,"o":"m 697 0 l 515 0 l 346 331 l 339 331 l 171 0 l 0 0 l 247 460 l 24 875 l 206 875 l 353 589 l 358 589 l 504 875 l 675 875 l 447 463 l 697 0 z "},"Y":{"ha":699,"x_min":0,"x_max":699,"o":"m 268 0 l 268 331 l 0 875 l 172 875 l 351 492 l 357 492 l 535 875 l 699 875 l 432 331 l 432 0 l 268 0 z "},"Ý":{"ha":699,"x_min":0,"x_max":699,"o":"m 389 960 l 261 960 l 371 1128 l 525 1128 l 526 1124 l 389 960 m 432 0 l 268 0 l 268 331 l 0 875 l 172 875 l 351 492 l 357 492 l 535 875 l 699 875 l 432 331 l 432 0 z "},"Ŷ":{"ha":699,"x_min":0,"x_max":699,"o":"m 350 1043 l 292 954 l 178 954 l 288 1128 l 413 1128 l 521 954 l 406 954 l 350 1043 m 268 0 l 268 331 l 0 875 l 172 875 l 351 492 l 357 492 l 535 875 l 699 875 l 432 331 l 432 0 l 268 0 z "},"Ÿ":{"ha":699,"x_min":0,"x_max":699,"o":"m 174 988 l 174 1128 l 301 1128 l 301 988 l 174 988 m 397 988 l 397 1128 l 525 1128 l 525 988 l 397 988 m 432 0 l 268 0 l 268 331 l 0 875 l 172 875 l 351 492 l 357 492 l 535 875 l 699 875 l 432 331 l 432 0 z "},"Ỳ":{"ha":699,"x_min":0,"x_max":699,"o":"m 311 960 l 172 1124 l 174 1128 l 326 1128 l 436 960 l 311 960 m 432 0 l 268 0 l 268 331 l 0 875 l 172 875 l 351 492 l 357 492 l 535 875 l 699 875 l 432 331 l 432 0 z "},"Z":{"ha":640,"x_min":21,"x_max":613,"o":"m 244 146 l 613 146 l 613 0 l 21 0 l 21 63 l 381 731 l 47 731 l 47 875 l 604 875 l 604 811 l 244 146 z "},"Ź":{"ha":640,"x_min":21,"x_max":613,"o":"m 358 960 l 232 960 l 342 1128 l 496 1128 l 497 1124 l 358 960 m 244 146 l 613 146 l 613 0 l 21 0 l 21 63 l 381 731 l 47 731 l 47 875 l 604 875 l 604 811 l 244 146 z "},"Ž":{"ha":640,"x_min":21,"x_max":613,"o":"m 258 954 l 149 1128 l 263 1128 l 321 1040 l 376 1128 l 492 1128 l 383 954 l 258 954 m 244 146 l 613 146 l 613 0 l 21 0 l 21 63 l 381 731 l 47 731 l 47 875 l 604 875 l 604 811 l 244 146 z "},"Ż":{"ha":640,"x_min":21,"x_max":613,"o":"m 251 981 l 251 1128 l 389 1128 l 389 981 l 251 981 m 244 146 l 613 146 l 613 0 l 21 0 l 21 63 l 381 731 l 47 731 l 47 875 l 604 875 l 604 811 l 244 146 z "},"a":{"ha":582,"x_min":17,"x_max":572,"o":"m 278 688 q 449 636 392 688 q 506 490 506 585 l 506 158 q 516 125 506 136 q 542 114 526 114 l 572 114 l 572 6 q 481 -15 536 -15 q 405 9 436 -15 q 363 72 374 33 l 357 72 q 287 6 325 28 q 186 -15 249 -15 q 69 27 122 -15 q 17 174 17 69 q 104 356 17 303 q 351 408 192 408 l 351 478 q 336 540 351 518 q 281 563 321 563 q 220 541 239 563 q 201 492 201 519 l 201 472 l 50 472 q 49 501 49 479 q 111 636 49 585 q 278 688 174 688 m 351 297 q 175 188 175 297 q 250 113 175 113 q 326 153 301 113 q 351 258 351 194 l 351 297 z "},"á":{"ha":582,"x_min":17,"x_max":572,"o":"m 315 754 l 189 754 l 299 924 l 453 924 l 454 918 l 315 754 m 278 688 q 449 636 392 688 q 506 490 506 585 l 506 158 q 516 125 506 136 q 542 114 526 114 l 572 114 l 572 6 q 481 -15 536 -15 q 405 9 436 -15 q 363 72 374 33 l 357 72 q 287 6 325 28 q 186 -15 249 -15 q 69 27 122 -15 q 17 174 17 69 q 104 356 17 303 q 351 408 192 408 l 351 478 q 336 540 351 518 q 281 563 321 563 q 220 541 239 563 q 201 492 201 519 l 201 472 l 50 472 q 49 501 49 479 q 111 636 49 585 q 278 688 174 688 m 351 297 q 175 188 175 297 q 250 113 175 113 q 326 153 301 113 q 351 258 351 194 l 351 297 z "},"ă":{"ha":582,"x_min":17,"x_max":572,"o":"m 447 924 q 426 859 447 890 q 365 808 404 828 q 276 788 326 788 q 188 808 226 788 q 127 859 149 828 q 106 924 106 890 l 203 924 q 227 894 206 908 q 276 881 249 881 q 328 894 307 881 q 353 924 350 908 l 447 924 m 278 688 q 449 636 392 688 q 506 490 506 585 l 506 158 q 516 125 506 136 q 542 114 526 114 l 572 114 l 572 6 q 481 -15 536 -15 q 405 9 436 -15 q 363 72 374 33 l 357 72 q 287 6 325 28 q 186 -15 249 -15 q 69 27 122 -15 q 17 174 17 69 q 104 356 17 303 q 351 408 192 408 l 351 478 q 336 540 351 518 q 281 563 321 563 q 220 541 239 563 q 201 492 201 519 l 201 472 l 50 472 q 49 501 49 479 q 111 636 49 585 q 278 688 174 688 m 351 297 q 175 188 175 297 q 250 113 175 113 q 326 153 301 113 q 351 258 351 194 l 351 297 z "},"â":{"ha":582,"x_min":17,"x_max":572,"o":"m 278 839 l 219 751 l 106 751 l 215 924 l 340 924 l 449 751 l 335 751 l 278 839 m 278 688 q 449 636 392 688 q 506 490 506 585 l 506 158 q 516 125 506 136 q 542 114 526 114 l 572 114 l 572 6 q 481 -15 536 -15 q 405 9 436 -15 q 363 72 374 33 l 357 72 q 287 6 325 28 q 186 -15 249 -15 q 69 27 122 -15 q 17 174 17 69 q 104 356 17 303 q 351 408 192 408 l 351 478 q 336 540 351 518 q 281 563 321 563 q 220 541 239 563 q 201 492 201 519 l 201 472 l 50 472 q 49 501 49 479 q 111 636 49 585 q 278 688 174 688 m 351 297 q 175 188 175 297 q 250 113 175 113 q 326 153 301 113 q 351 258 351 194 l 351 297 z "},"ä":{"ha":582,"x_min":17,"x_max":572,"o":"m 103 785 l 103 924 l 229 924 l 229 785 l 103 785 m 325 785 l 325 924 l 453 924 l 453 785 l 325 785 m 278 688 q 449 636 392 688 q 506 490 506 585 l 506 158 q 516 125 506 136 q 542 114 526 114 l 572 114 l 572 6 q 481 -15 536 -15 q 405 9 436 -15 q 363 72 374 33 l 357 72 q 287 6 325 28 q 186 -15 249 -15 q 69 27 122 -15 q 17 174 17 69 q 104 356 17 303 q 351 408 192 408 l 351 478 q 336 540 351 518 q 281 563 321 563 q 220 541 239 563 q 201 492 201 519 l 201 472 l 50 472 q 49 501 49 479 q 111 636 49 585 q 278 688 174 688 m 351 297 q 175 188 175 297 q 250 113 175 113 q 326 153 301 113 q 351 258 351 194 l 351 297 z "},"à":{"ha":582,"x_min":17,"x_max":572,"o":"m 239 754 l 101 918 l 103 924 l 256 924 l 365 754 l 239 754 m 278 688 q 449 636 392 688 q 506 490 506 585 l 506 158 q 516 125 506 136 q 542 114 526 114 l 572 114 l 572 6 q 481 -15 536 -15 q 405 9 436 -15 q 363 72 374 33 l 357 72 q 287 6 325 28 q 186 -15 249 -15 q 69 27 122 -15 q 17 174 17 69 q 104 356 17 303 q 351 408 192 408 l 351 478 q 336 540 351 518 q 281 563 321 563 q 220 541 239 563 q 201 492 201 519 l 201 472 l 50 472 q 49 501 49 479 q 111 636 49 585 q 278 688 174 688 m 351 297 q 175 188 175 297 q 250 113 175 113 q 326 153 301 113 q 351 258 351 194 l 351 297 z "},"ā":{"ha":582,"x_min":17,"x_max":572,"o":"m 114 875 l 440 875 l 440 765 l 114 765 l 114 875 m 278 688 q 449 636 392 688 q 506 490 506 585 l 506 158 q 516 125 506 136 q 542 114 526 114 l 572 114 l 572 6 q 481 -15 536 -15 q 405 9 436 -15 q 363 72 374 33 l 357 72 q 287 6 325 28 q 186 -15 249 -15 q 69 27 122 -15 q 17 174 17 69 q 104 356 17 303 q 351 408 192 408 l 351 478 q 336 540 351 518 q 281 563 321 563 q 220 541 239 563 q 201 492 201 519 l 201 472 l 50 472 q 49 501 49 479 q 111 636 49 585 q 278 688 174 688 m 351 297 q 175 188 175 297 q 250 113 175 113 q 326 153 301 113 q 351 258 351 194 l 351 297 z "},"ą":{"ha":582,"x_min":17,"x_max":619,"o":"m 619 -219 q 535 -237 569 -237 q 446 -210 483 -237 q 408 -122 408 -183 q 447 -11 408 -60 q 394 18 415 -4 q 363 72 372 40 l 357 72 q 287 6 325 28 q 186 -15 249 -15 q 69 27 122 -15 q 17 174 17 69 q 104 356 17 303 q 351 408 192 408 l 351 478 q 336 540 351 518 q 281 563 321 563 q 220 541 239 563 q 201 492 201 519 l 201 472 l 50 472 q 49 501 49 479 q 111 636 49 585 q 278 688 174 688 q 449 636 392 688 q 506 490 506 585 l 506 158 q 516 125 506 136 q 542 114 526 114 l 572 114 l 572 6 q 547 -35 558 -11 q 535 -83 535 -60 q 548 -130 535 -111 q 590 -149 561 -149 l 619 -149 l 619 -219 m 351 297 q 175 188 175 297 q 250 113 175 113 q 326 153 301 113 q 351 258 351 194 l 351 297 z "},"å":{"ha":582,"x_min":17,"x_max":572,"o":"m 278 963 q 365 926 329 963 q 400 839 400 889 q 365 752 400 788 q 278 717 329 717 q 191 752 228 717 q 154 839 154 788 q 190 926 154 890 q 278 963 226 963 m 278 897 q 235 881 253 897 q 218 839 218 864 q 235 797 218 814 q 278 781 253 781 q 318 797 301 781 q 335 839 335 814 q 318 881 335 864 q 278 897 301 897 m 278 688 q 449 636 392 688 q 506 490 506 585 l 506 158 q 516 125 506 136 q 542 114 526 114 l 572 114 l 572 6 q 481 -15 536 -15 q 405 9 436 -15 q 363 72 374 33 l 357 72 q 287 6 325 28 q 186 -15 249 -15 q 69 27 122 -15 q 17 174 17 69 q 104 356 17 303 q 351 408 192 408 l 351 478 q 336 540 351 518 q 281 563 321 563 q 220 541 239 563 q 201 492 201 519 l 201 472 l 50 472 q 49 501 49 479 q 111 636 49 585 q 278 688 174 688 m 351 297 q 175 188 175 297 q 250 113 175 113 q 326 153 301 113 q 351 258 351 194 l 351 297 z "},"ǻ":{"ha":639,"x_min":17,"x_max":572,"o":"m 349 981 l 222 981 l 318 1128 l 471 1128 l 472 1124 l 349 981 m 278 953 q 365 918 329 953 q 400 835 400 883 q 365 751 400 786 q 278 717 329 717 q 191 751 228 717 q 154 835 154 785 q 190 918 154 883 q 278 953 226 953 m 278 892 q 235 875 253 892 q 218 835 218 858 q 235 794 218 810 q 278 778 253 778 q 318 794 301 778 q 335 835 335 810 q 318 875 335 858 q 278 892 301 892 m 278 688 q 449 636 392 688 q 506 490 506 585 l 506 158 q 516 125 506 136 q 542 114 526 114 l 572 114 l 572 6 q 481 -15 536 -15 q 405 9 436 -15 q 363 72 374 33 l 357 72 q 287 6 325 28 q 186 -15 249 -15 q 69 27 122 -15 q 17 174 17 69 q 104 356 17 303 q 351 408 192 408 l 351 478 q 336 540 351 518 q 281 563 321 563 q 220 541 239 563 q 201 492 201 519 l 201 472 l 50 472 q 49 501 49 479 q 111 636 49 585 q 278 688 174 688 m 351 297 q 175 188 175 297 q 250 113 175 113 q 326 153 301 113 q 351 258 351 194 l 351 297 z "},"ã":{"ha":582,"x_min":17,"x_max":572,"o":"m 492 924 q 460 815 492 863 q 365 767 428 767 q 325 773 344 767 q 278 792 306 779 q 196 815 228 815 q 147 767 153 815 l 63 767 q 94 876 63 828 q 188 924 126 924 q 227 917 208 924 q 276 899 246 911 q 358 875 326 875 q 391 886 379 875 q 407 924 403 897 l 492 924 m 278 688 q 449 636 392 688 q 506 490 506 585 l 506 158 q 516 125 506 136 q 542 114 526 114 l 572 114 l 572 6 q 481 -15 536 -15 q 405 9 436 -15 q 363 72 374 33 l 357 72 q 287 6 325 28 q 186 -15 249 -15 q 69 27 122 -15 q 17 174 17 69 q 104 356 17 303 q 351 408 192 408 l 351 478 q 336 540 351 518 q 281 563 321 563 q 220 541 239 563 q 201 492 201 519 l 201 472 l 50 472 q 49 501 49 479 q 111 636 49 585 q 278 688 174 688 m 351 297 q 175 188 175 297 q 250 113 175 113 q 326 153 301 113 q 351 258 351 194 l 351 297 z "},"æ":{"ha":931,"x_min":47,"x_max":881,"o":"m 639 688 q 821 601 761 688 q 881 335 881 515 l 881 297 l 540 297 q 565 156 542 203 q 644 110 589 110 q 706 144 683 110 q 729 238 729 178 l 881 238 q 816 49 881 113 q 644 -15 751 -15 q 443 75 507 -15 q 355 8 403 32 q 242 -15 307 -15 q 108 27 168 -15 q 47 174 47 69 q 134 356 47 303 q 381 408 221 408 l 381 478 q 365 540 381 518 q 311 563 350 563 q 249 541 268 563 q 229 492 229 519 l 229 472 l 81 472 q 79 501 79 479 q 142 636 79 585 q 306 688 204 688 q 478 622 419 688 q 639 688 540 688 m 639 563 q 568 523 592 563 q 542 408 544 483 l 721 408 q 700 522 721 482 q 639 563 679 563 m 381 297 q 253 272 303 297 q 204 188 204 247 q 281 113 204 113 q 356 153 332 113 q 381 258 381 194 l 381 297 z "},"ǽ":{"ha":931,"x_min":47,"x_max":881,"o":"m 504 754 l 378 754 l 489 924 l 642 924 l 643 918 l 504 754 m 639 688 q 821 601 761 688 q 881 335 881 515 l 881 297 l 540 297 q 565 156 542 203 q 644 110 589 110 q 706 144 683 110 q 729 238 729 178 l 881 238 q 816 49 881 113 q 644 -15 751 -15 q 443 75 507 -15 q 355 8 403 32 q 242 -15 307 -15 q 108 27 168 -15 q 47 174 47 69 q 134 356 47 303 q 381 408 221 408 l 381 478 q 365 540 381 518 q 311 563 350 563 q 249 541 268 563 q 229 492 229 519 l 229 472 l 81 472 q 79 501 79 479 q 142 636 79 585 q 306 688 204 688 q 478 622 419 688 q 639 688 540 688 m 639 563 q 568 523 592 563 q 542 408 544 483 l 721 408 q 700 522 721 482 q 639 563 679 563 m 381 297 q 253 272 303 297 q 204 188 204 247 q 281 113 204 113 q 356 153 332 113 q 381 258 381 194 l 381 297 z "},"b":{"ha":640,"x_min":71,"x_max":588,"o":"m 229 603 q 288 665 247 642 q 381 688 329 688 q 531 599 474 688 q 588 336 588 511 q 531 72 588 160 q 371 -15 474 -15 q 283 9 322 -15 q 219 82 244 33 l 214 82 l 197 0 l 71 0 l 71 924 l 224 924 l 224 603 l 229 603 m 325 547 q 248 499 272 547 q 224 358 224 451 l 224 313 q 247 171 224 218 q 325 124 271 124 q 403 171 379 124 q 428 313 428 218 l 428 360 q 403 501 428 454 q 325 547 379 547 z "},"c":{"ha":582,"x_min":51,"x_max":536,"o":"m 301 688 q 474 622 413 688 q 536 419 536 556 l 381 419 q 301 557 381 557 q 233 508 254 557 q 213 360 213 460 l 213 313 q 234 163 213 211 q 306 114 256 114 q 366 148 347 114 q 385 253 385 182 l 536 253 q 476 51 536 117 q 306 -15 415 -15 q 113 69 175 -15 q 51 335 51 154 q 114 601 51 515 q 301 688 176 688 z "},"ć":{"ha":582,"x_min":51,"x_max":536,"o":"m 342 754 l 215 754 l 325 924 l 478 924 l 478 918 l 342 754 m 301 688 q 474 622 413 688 q 536 419 536 556 l 381 419 q 301 557 381 557 q 233 508 254 557 q 213 360 213 460 l 213 313 q 234 163 213 211 q 306 114 256 114 q 366 148 347 114 q 385 253 385 182 l 536 253 q 476 51 536 117 q 306 -15 415 -15 q 113 69 175 -15 q 51 335 51 154 q 114 601 51 515 q 301 688 176 688 z "},"č":{"ha":582,"x_min":51,"x_max":536,"o":"m 132 924 l 247 924 l 303 835 l 360 924 l 475 924 l 367 751 l 242 751 l 132 924 m 301 688 q 474 622 413 688 q 536 419 536 556 l 381 419 q 301 557 381 557 q 233 508 254 557 q 213 360 213 460 l 213 313 q 234 163 213 211 q 306 114 256 114 q 366 148 347 114 q 385 253 385 182 l 536 253 q 476 51 536 117 q 306 -15 415 -15 q 113 69 175 -15 q 51 335 51 154 q 114 601 51 515 q 301 688 176 688 z "},"ç":{"ha":582,"x_min":51,"x_max":536,"o":"m 301 688 q 474 622 413 688 q 536 419 536 556 l 381 419 q 301 557 381 557 q 233 508 254 557 q 213 360 213 460 l 213 313 q 234 163 213 211 q 306 114 256 114 q 366 148 347 114 q 385 253 385 182 l 536 253 q 483 60 536 125 q 335 -14 431 -6 l 332 -42 q 406 -66 378 -44 q 433 -129 433 -87 q 391 -209 433 -186 q 293 -232 349 -232 q 186 -222 240 -232 l 186 -160 l 278 -160 q 324 -129 324 -160 q 314 -106 324 -112 q 281 -99 304 -99 l 239 -99 l 249 -10 q 99 90 147 6 q 51 335 51 175 q 114 601 51 515 q 301 688 176 688 z "},"ĉ":{"ha":582,"x_min":51,"x_max":536,"o":"m 303 839 l 247 751 l 132 751 l 242 924 l 367 924 l 475 751 l 360 751 l 303 839 m 301 688 q 474 622 413 688 q 536 419 536 556 l 381 419 q 301 557 381 557 q 233 508 254 557 q 213 360 213 460 l 213 313 q 234 163 213 211 q 306 114 256 114 q 366 148 347 114 q 385 253 385 182 l 536 253 q 476 51 536 117 q 306 -15 415 -15 q 113 69 175 -15 q 51 335 51 154 q 114 601 51 515 q 301 688 176 688 z "},"ċ":{"ha":582,"x_min":51,"x_max":536,"o":"m 236 924 l 371 924 l 371 775 l 236 775 l 236 924 m 301 688 q 474 622 413 688 q 536 419 536 556 l 381 419 q 301 557 381 557 q 233 508 254 557 q 213 360 213 460 l 213 313 q 234 163 213 211 q 306 114 256 114 q 366 148 347 114 q 385 253 385 182 l 536 253 q 476 51 536 117 q 306 -15 415 -15 q 113 69 175 -15 q 51 335 51 154 q 114 601 51 515 q 301 688 176 688 z "},"d":{"ha":640,"x_min":51,"x_max":569,"o":"m 426 82 l 421 82 q 356 9 396 33 q 268 -15 317 -15 q 108 72 165 -15 q 51 336 51 160 q 109 599 51 511 q 260 688 167 688 q 351 665 311 688 q 410 603 392 642 l 417 603 l 417 924 l 569 924 l 569 0 l 442 0 l 426 82 m 314 547 q 236 500 260 547 q 213 360 213 453 l 213 313 q 236 171 213 218 q 314 124 260 124 q 392 171 368 124 q 417 313 417 218 l 417 358 q 392 499 417 451 q 314 547 368 547 z "},"ð":{"ha":640,"x_min":51,"x_max":589,"o":"m 329 924 q 393 863 347 908 l 558 876 l 558 785 l 464 775 q 589 335 589 593 q 522 70 589 156 q 321 -15 456 -15 q 118 70 185 -15 q 51 335 51 156 q 113 597 51 506 q 285 688 175 688 q 347 678 314 688 l 351 682 q 303 760 332 718 l 138 746 l 138 839 l 233 847 q 186 897 217 867 l 167 918 l 169 924 l 329 924 m 321 557 q 238 508 263 557 q 213 360 213 460 l 213 313 q 238 163 213 211 q 321 114 263 114 q 404 163 379 114 q 429 313 429 211 l 429 360 q 404 508 429 460 q 321 557 379 557 z "},"ď":{"ha":753,"x_min":51,"x_max":786,"o":"m 426 82 l 421 82 q 356 9 396 33 q 268 -15 317 -15 q 108 72 165 -15 q 51 336 51 160 q 109 599 51 511 q 260 688 167 688 q 351 665 311 688 q 410 603 392 642 l 417 603 l 417 924 l 569 924 l 569 0 l 442 0 l 426 82 m 610 501 l 679 700 l 610 700 l 610 875 l 786 875 l 786 717 l 700 501 l 610 501 m 314 547 q 236 500 260 547 q 213 360 213 453 l 213 313 q 236 171 213 218 q 314 124 260 124 q 392 171 368 124 q 417 313 417 218 l 417 358 q 392 499 417 451 q 314 547 368 547 z "},"đ":{"ha":644,"x_min":51,"x_max":639,"o":"m 639 856 l 639 744 l 569 744 l 569 0 l 442 0 l 426 82 l 421 82 q 356 9 396 33 q 268 -15 317 -15 q 108 72 165 -15 q 51 336 51 160 q 109 599 51 511 q 260 688 167 688 q 351 665 311 688 q 410 603 392 642 l 417 603 l 417 744 l 247 744 l 247 856 l 417 856 l 417 924 l 569 924 l 569 856 l 639 856 m 314 547 q 236 500 260 547 q 213 360 213 453 l 213 313 q 236 171 213 218 q 314 124 260 124 q 392 171 368 124 q 417 313 417 218 l 417 358 q 392 499 417 451 q 314 547 368 547 z "},"e":{"ha":582,"x_min":39,"x_max":540,"o":"m 297 688 q 480 601 419 688 q 540 335 540 515 l 540 297 l 200 297 q 224 156 201 203 q 303 110 247 110 q 366 144 343 110 q 389 238 389 178 l 540 238 q 475 49 540 113 q 303 -15 410 -15 q 39 335 39 -15 q 297 688 39 688 m 297 563 q 227 524 250 563 q 201 408 204 485 l 381 408 q 360 523 381 483 q 297 563 339 563 z "},"é":{"ha":582,"x_min":39,"x_max":540,"o":"m 329 754 l 204 754 l 314 924 l 467 924 l 468 918 l 329 754 m 297 688 q 480 601 419 688 q 540 335 540 515 l 540 297 l 200 297 q 224 156 201 203 q 303 110 247 110 q 366 144 343 110 q 389 238 389 178 l 540 238 q 475 49 540 113 q 303 -15 410 -15 q 39 335 39 -15 q 297 688 39 688 m 297 563 q 227 524 250 563 q 201 408 204 485 l 381 408 q 360 523 381 483 q 297 563 339 563 z "},"ĕ":{"ha":582,"x_min":39,"x_max":540,"o":"m 463 924 q 441 859 463 890 q 381 808 419 828 q 292 788 342 788 q 203 808 242 788 q 142 859 164 828 q 121 924 121 890 l 215 924 q 240 894 219 908 q 292 881 261 881 q 344 894 322 881 q 368 924 365 908 l 463 924 m 297 688 q 480 601 419 688 q 540 335 540 515 l 540 297 l 200 297 q 224 156 201 203 q 303 110 247 110 q 366 144 343 110 q 389 238 389 178 l 540 238 q 475 49 540 113 q 303 -15 410 -15 q 39 335 39 -15 q 297 688 39 688 m 297 563 q 227 524 250 563 q 201 408 204 485 l 381 408 q 360 523 381 483 q 297 563 339 563 z "},"ě":{"ha":582,"x_min":39,"x_max":540,"o":"m 119 924 l 236 924 l 292 835 l 349 924 l 464 924 l 356 751 l 229 751 l 119 924 m 297 688 q 480 601 419 688 q 540 335 540 515 l 540 297 l 200 297 q 224 156 201 203 q 303 110 247 110 q 366 144 343 110 q 389 238 389 178 l 540 238 q 475 49 540 113 q 303 -15 410 -15 q 39 335 39 -15 q 297 688 39 688 m 297 563 q 227 524 250 563 q 201 408 204 485 l 381 408 q 360 523 381 483 q 297 563 339 563 z "},"ê":{"ha":582,"x_min":39,"x_max":540,"o":"m 292 839 l 236 751 l 119 751 l 229 924 l 356 924 l 464 751 l 349 751 l 292 839 m 297 688 q 480 601 419 688 q 540 335 540 515 l 540 297 l 200 297 q 224 156 201 203 q 303 110 247 110 q 366 144 343 110 q 389 238 389 178 l 540 238 q 475 49 540 113 q 303 -15 410 -15 q 39 335 39 -15 q 297 688 39 688 m 297 563 q 227 524 250 563 q 201 408 204 485 l 381 408 q 360 523 381 483 q 297 563 339 563 z "},"ë":{"ha":582,"x_min":39,"x_max":540,"o":"m 115 785 l 115 924 l 244 924 l 244 785 l 115 785 m 339 785 l 339 924 l 468 924 l 468 785 l 339 785 m 297 688 q 480 601 419 688 q 540 335 540 515 l 540 297 l 200 297 q 224 156 201 203 q 303 110 247 110 q 366 144 343 110 q 389 238 389 178 l 540 238 q 475 49 540 113 q 303 -15 410 -15 q 39 335 39 -15 q 297 688 39 688 m 297 563 q 227 524 250 563 q 201 408 204 485 l 381 408 q 360 523 381 483 q 297 563 339 563 z "},"ė":{"ha":582,"x_min":39,"x_max":540,"o":"m 224 924 l 360 924 l 360 775 l 224 775 l 224 924 m 297 688 q 480 601 419 688 q 540 335 540 515 l 540 297 l 200 297 q 224 156 201 203 q 303 110 247 110 q 366 144 343 110 q 389 238 389 178 l 540 238 q 475 49 540 113 q 303 -15 410 -15 q 39 335 39 -15 q 297 688 39 688 m 297 563 q 227 524 250 563 q 201 408 204 485 l 381 408 q 360 523 381 483 q 297 563 339 563 z "},"è":{"ha":582,"x_min":39,"x_max":540,"o":"m 253 754 l 115 918 l 115 924 l 269 924 l 381 754 l 253 754 m 297 688 q 480 601 419 688 q 540 335 540 515 l 540 297 l 200 297 q 224 156 201 203 q 303 110 247 110 q 366 144 343 110 q 389 238 389 178 l 540 238 q 475 49 540 113 q 303 -15 410 -15 q 39 335 39 -15 q 297 688 39 688 m 297 563 q 227 524 250 563 q 201 408 204 485 l 381 408 q 360 523 381 483 q 297 563 339 563 z "},"ē":{"ha":582,"x_min":39,"x_max":540,"o":"m 129 875 l 456 875 l 456 765 l 129 765 l 129 875 m 297 688 q 480 601 419 688 q 540 335 540 515 l 540 297 l 200 297 q 224 156 201 203 q 303 110 247 110 q 366 144 343 110 q 389 238 389 178 l 540 238 q 475 49 540 113 q 303 -15 410 -15 q 39 335 39 -15 q 297 688 39 688 m 297 563 q 227 524 250 563 q 201 408 204 485 l 381 408 q 360 523 381 483 q 297 563 339 563 z "},"ę":{"ha":582,"x_min":39,"x_max":540,"o":"m 540 297 l 200 297 q 224 156 201 203 q 303 110 247 110 q 366 144 343 110 q 389 238 389 178 l 540 238 q 507 90 540 149 q 413 6 474 32 q 387 -35 399 -11 q 375 -82 375 -58 q 390 -129 375 -110 q 433 -149 404 -149 l 461 -149 l 461 -218 q 376 -237 410 -237 q 288 -210 326 -237 q 250 -121 250 -182 q 288 -15 250 -60 q 101 76 164 -10 q 39 335 39 163 q 297 688 39 688 q 480 601 419 688 q 540 335 540 515 l 540 297 m 381 408 q 360 523 381 483 q 297 563 339 563 q 227 524 250 563 q 201 408 204 485 l 381 408 z "},"f":{"ha":349,"x_min":11,"x_max":349,"o":"m 238 933 q 297 929 264 933 q 349 918 329 925 l 349 804 l 286 804 q 232 750 232 804 l 232 672 l 349 672 l 349 543 l 232 543 l 232 0 l 79 0 l 79 543 l 11 543 l 11 672 l 79 672 l 79 754 q 116 882 79 831 q 238 933 153 933 z "},"g":{"ha":640,"x_min":21,"x_max":633,"o":"m 621 785 q 511 613 621 646 q 552 544 538 583 q 567 458 567 504 q 501 291 567 353 q 317 229 436 229 l 253 229 q 219 218 232 229 q 207 189 207 207 q 218 160 207 172 q 247 149 229 149 l 478 149 q 589 101 544 149 q 633 -26 633 53 q 604 -133 633 -86 q 524 -206 575 -181 q 414 -232 474 -232 l 169 -232 q 63 -189 106 -232 q 21 -78 21 -146 q 106 60 21 10 q 66 100 81 75 q 51 158 51 125 q 79 231 51 200 q 150 278 107 263 q 90 353 111 307 q 69 458 69 400 q 133 626 69 564 q 317 688 197 688 q 429 667 381 688 q 478 727 463 693 q 494 785 494 761 l 621 785 m 317 574 q 247 544 271 574 q 222 458 222 514 q 247 374 222 404 q 317 344 271 344 q 388 374 364 344 q 413 458 413 404 q 388 544 413 514 q 317 574 364 574 m 238 7 q 193 -11 211 7 q 175 -53 175 -29 q 193 -99 175 -82 q 238 -115 211 -115 l 408 -115 q 458 -99 438 -115 q 478 -53 478 -82 q 459 -9 478 -25 q 414 7 440 7 l 238 7 z "},"ğ":{"ha":640,"x_min":21,"x_max":633,"o":"m 490 924 q 469 859 490 890 q 408 808 447 828 q 319 788 369 788 q 231 808 269 788 q 170 859 192 828 q 149 924 149 890 l 244 924 q 269 894 247 908 q 319 881 290 881 q 372 894 350 881 q 396 924 393 908 l 490 924 m 621 785 q 511 613 621 646 q 552 544 538 583 q 567 458 567 504 q 501 291 567 353 q 317 229 436 229 l 253 229 q 219 218 232 229 q 207 189 207 207 q 218 160 207 172 q 247 149 229 149 l 478 149 q 589 101 544 149 q 633 -26 633 53 q 604 -133 633 -86 q 524 -206 575 -181 q 414 -232 474 -232 l 169 -232 q 63 -189 106 -232 q 21 -78 21 -146 q 106 60 21 10 q 66 100 81 75 q 51 158 51 125 q 79 231 51 200 q 150 278 107 263 q 90 353 111 307 q 69 458 69 400 q 133 626 69 564 q 317 688 197 688 q 429 667 381 688 q 478 727 463 693 q 494 785 494 761 l 621 785 m 317 574 q 247 544 271 574 q 222 458 222 514 q 247 374 222 404 q 317 344 271 344 q 388 374 364 344 q 413 458 413 404 q 388 544 413 514 q 317 574 364 574 m 238 7 q 193 -11 211 7 q 175 -53 175 -29 q 193 -99 175 -82 q 238 -115 211 -115 l 408 -115 q 458 -99 438 -115 q 478 -53 478 -82 q 459 -9 478 -25 q 414 7 440 7 l 238 7 z "},"ĝ":{"ha":640,"x_min":21,"x_max":633,"o":"m 321 839 l 263 751 l 149 751 l 258 924 l 383 924 l 492 751 l 376 751 l 321 839 m 621 785 q 511 613 621 646 q 552 544 538 583 q 567 458 567 504 q 501 291 567 353 q 317 229 436 229 l 253 229 q 219 218 232 229 q 207 189 207 207 q 218 160 207 172 q 247 149 229 149 l 478 149 q 589 101 544 149 q 633 -26 633 53 q 604 -133 633 -86 q 524 -206 575 -181 q 414 -232 474 -232 l 169 -232 q 63 -189 106 -232 q 21 -78 21 -146 q 106 60 21 10 q 66 100 81 75 q 51 158 51 125 q 79 231 51 200 q 150 278 107 263 q 90 353 111 307 q 69 458 69 400 q 133 626 69 564 q 317 688 197 688 q 429 667 381 688 q 521 785 521 672 l 621 785 m 317 574 q 247 544 271 574 q 222 458 222 514 q 247 374 222 404 q 317 344 271 344 q 388 374 364 344 q 413 458 413 404 q 388 544 413 514 q 317 574 364 574 m 238 7 q 193 -11 211 7 q 175 -53 175 -29 q 193 -99 175 -82 q 238 -115 211 -115 l 408 -115 q 458 -99 438 -115 q 478 -53 478 -82 q 459 -9 478 -25 q 414 7 440 7 l 238 7 z "},"ģ":{"ha":640,"x_min":21,"x_max":633,"o":"m 385 910 l 385 754 l 225 754 l 225 897 l 285 1018 l 368 1018 l 322 910 l 385 910 m 621 785 q 511 613 621 646 q 552 544 538 583 q 567 458 567 504 q 501 291 567 353 q 317 229 436 229 l 253 229 q 219 218 232 229 q 207 189 207 207 q 218 160 207 172 q 247 149 229 149 l 478 149 q 589 101 544 149 q 633 -26 633 53 q 604 -133 633 -86 q 524 -206 575 -181 q 414 -232 474 -232 l 169 -232 q 63 -189 106 -232 q 21 -78 21 -146 q 106 60 21 10 q 66 100 81 75 q 51 158 51 125 q 79 231 51 200 q 150 278 107 263 q 90 353 111 307 q 69 458 69 400 q 133 626 69 564 q 317 688 197 688 q 429 667 381 688 q 478 727 463 693 q 494 785 494 761 l 621 785 m 317 574 q 247 544 271 574 q 222 458 222 514 q 247 374 222 404 q 317 344 271 344 q 388 374 364 344 q 413 458 413 404 q 388 544 413 514 q 317 574 364 574 m 238 7 q 193 -11 211 7 q 175 -53 175 -29 q 193 -99 175 -82 q 238 -115 211 -115 l 408 -115 q 458 -99 438 -115 q 478 -53 478 -82 q 459 -9 478 -25 q 414 7 440 7 l 238 7 z "},"ġ":{"ha":640,"x_min":21,"x_max":633,"o":"m 251 924 l 389 924 l 389 775 l 251 775 l 251 924 m 621 785 q 511 613 621 646 q 552 544 538 583 q 567 458 567 504 q 501 291 567 353 q 317 229 436 229 l 253 229 q 219 218 232 229 q 207 189 207 207 q 218 160 207 172 q 247 149 229 149 l 478 149 q 589 101 544 149 q 633 -26 633 53 q 604 -133 633 -86 q 524 -206 575 -181 q 414 -232 474 -232 l 169 -232 q 63 -189 106 -232 q 21 -78 21 -146 q 106 60 21 10 q 66 100 81 75 q 51 158 51 125 q 79 231 51 200 q 150 278 107 263 q 90 353 111 307 q 69 458 69 400 q 133 626 69 564 q 317 688 197 688 q 429 667 381 688 q 478 727 463 693 q 494 785 494 761 l 621 785 m 317 574 q 247 544 271 574 q 222 458 222 514 q 247 374 222 404 q 317 344 271 344 q 388 374 364 344 q 413 458 413 404 q 388 544 413 514 q 317 574 364 574 m 238 7 q 193 -11 211 7 q 175 -53 175 -29 q 193 -99 175 -82 q 238 -115 211 -115 l 408 -115 q 458 -99 438 -115 q 478 -53 478 -82 q 459 -9 478 -25 q 414 7 440 7 l 238 7 z "},"h":{"ha":640,"x_min":71,"x_max":569,"o":"m 228 600 q 296 663 254 638 q 392 688 338 688 q 522 635 474 688 q 569 471 569 583 l 569 0 l 417 0 l 417 429 q 394 519 417 492 q 328 547 371 547 q 253 509 283 547 q 224 413 224 471 l 224 0 l 71 0 l 71 924 l 224 924 l 224 600 l 228 600 z "},"ħ":{"ha":640,"x_min":0,"x_max":569,"o":"m 392 856 l 392 744 l 224 744 l 224 600 l 228 600 q 296 663 254 638 q 392 688 338 688 q 522 635 474 688 q 569 471 569 583 l 569 0 l 417 0 l 417 429 q 394 519 417 492 q 328 547 371 547 q 253 509 283 547 q 224 413 224 471 l 224 0 l 71 0 l 71 744 l 0 744 l 0 856 l 71 856 l 71 924 l 224 924 l 224 856 l 392 856 z "},"ĥ":{"ha":640,"x_min":-28,"x_max":569,"o":"m 144 1043 l 86 954 l -28 954 l 82 1128 l 207 1128 l 315 954 l 201 954 l 144 1043 m 228 600 q 296 663 254 638 q 392 688 338 688 q 522 635 474 688 q 569 471 569 583 l 569 0 l 417 0 l 417 429 q 394 519 417 492 q 328 547 371 547 q 253 509 283 547 q 224 413 224 471 l 224 0 l 71 0 l 71 924 l 224 924 l 224 600 l 228 600 z "},"i":{"ha":292,"x_min":69,"x_max":222,"o":"m 69 924 l 222 924 l 222 785 l 69 785 l 69 924 m 69 672 l 222 672 l 222 0 l 69 0 l 69 672 z "},"ı":{"ha":292,"x_min":69,"x_max":222,"o":"m 69 672 l 222 672 l 222 0 l 69 0 l 69 672 z "},"í":{"ha":292,"x_min":58,"x_max":322,"o":"m 185 754 l 58 754 l 168 924 l 321 924 l 322 918 l 185 754 m 69 0 l 69 672 l 222 672 l 222 0 l 69 0 z "},"ĭ":{"ha":292,"x_min":-26,"x_max":317,"o":"m 317 924 q 295 859 317 890 q 235 808 274 828 q 146 788 196 788 q 56 808 96 788 q -5 859 17 828 q -26 924 -26 890 l 71 924 q 95 894 74 908 q 146 881 117 881 q 198 894 176 881 q 222 924 219 908 l 317 924 m 69 672 l 222 672 l 222 0 l 69 0 l 69 672 z "},"î":{"ha":292,"x_min":-28,"x_max":318,"o":"m 147 839 l 89 751 l -28 751 l 83 924 l 210 924 l 318 751 l 204 751 l 147 839 m 69 672 l 222 672 l 222 0 l 69 0 l 69 672 z "},"ï":{"ha":292,"x_min":-29,"x_max":322,"o":"m -29 785 l -29 924 l 99 924 l 99 785 l -29 785 m 193 785 l 193 924 l 322 924 l 322 785 l 193 785 m 69 0 l 69 672 l 222 672 l 222 0 l 69 0 z "},"ì":{"ha":292,"x_min":-31,"x_max":233,"o":"m 107 754 l -31 918 l -29 924 l 124 924 l 233 754 l 107 754 m 69 0 l 69 672 l 222 672 l 222 0 l 69 0 z "},"ĳ":{"ha":582,"x_min":69,"x_max":513,"o":"m 69 785 l 69 924 l 222 924 l 222 785 l 69 785 m 360 785 l 360 924 l 513 924 l 513 785 l 360 785 m 69 0 l 69 672 l 222 672 l 222 0 l 69 0 m 513 -51 q 477 -181 513 -129 q 358 -232 442 -232 q 297 -228 329 -232 q 244 -217 264 -224 l 244 -104 l 300 -104 q 344 -88 329 -104 q 360 -42 360 -72 l 360 672 l 513 672 l 513 -51 z "},"ī":{"ha":292,"x_min":-17,"x_max":310,"o":"m -17 875 l 310 875 l 310 765 l -17 765 l -17 875 m 69 672 l 222 672 l 222 0 l 69 0 l 69 672 z "},"į":{"ha":292,"x_min":60,"x_max":269,"o":"m 78 775 l 78 924 l 215 924 l 215 775 l 78 775 m 222 0 q 196 -40 208 -15 q 183 -89 183 -65 q 198 -135 183 -117 q 242 -154 213 -154 l 269 -154 l 269 -225 q 185 -243 228 -243 q 97 -215 135 -243 q 60 -128 60 -187 q 74 -56 60 -86 q 115 0 89 -26 l 69 0 l 69 672 l 222 672 l 222 0 z "},"ĩ":{"ha":292,"x_min":-69,"x_max":361,"o":"m 361 924 q 329 815 361 864 q 236 767 297 767 q 194 773 215 767 q 147 792 174 779 q 67 815 97 815 q 15 767 25 815 l -69 767 q -37 876 -69 828 q 57 924 -6 924 q 99 917 78 924 q 146 899 119 911 q 226 875 196 875 q 259 886 247 875 q 276 924 271 897 l 361 924 m 69 672 l 222 672 l 222 0 l 69 0 l 69 672 z "},"j":{"ha":292,"x_min":-47,"x_max":222,"o":"m 69 924 l 222 924 l 222 785 l 69 785 l 69 924 m 222 -51 q 187 -181 222 -129 q 67 -232 151 -232 q 6 -228 38 -232 q -47 -217 -26 -224 l -47 -104 l 8 -104 q 69 -42 69 -104 l 69 672 l 222 672 l 222 -51 z "},"ĵ":{"ha":292,"x_min":-47,"x_max":319,"o":"m 149 839 l 92 751 l -25 751 l 85 924 l 213 924 l 319 751 l 206 751 l 149 839 m 222 -51 q 187 -181 222 -129 q 67 -232 151 -232 q 6 -228 38 -232 q -47 -217 -26 -224 l -47 -104 l 8 -104 q 69 -42 69 -104 l 69 672 l 222 672 l 222 -51 z "},"k":{"ha":582,"x_min":69,"x_max":583,"o":"m 574 672 l 374 399 l 583 0 l 413 0 l 279 279 l 222 210 l 222 0 l 69 0 l 69 924 l 222 924 l 222 404 l 410 672 l 574 672 z "},"ķ":{"ha":582,"x_min":69,"x_max":583,"o":"m 574 672 l 374 399 l 583 0 l 413 0 l 279 279 l 222 210 l 222 0 l 69 0 l 69 924 l 222 924 l 222 404 l 410 672 l 574 672 m 229 -335 l 275 -226 l 214 -226 l 214 -71 l 369 -71 l 369 -214 l 314 -335 l 229 -335 z "},"ĸ":{"ha":583,"x_min":69,"x_max":583,"o":"m 413 0 l 279 279 l 222 210 l 222 0 l 69 0 l 69 672 l 222 672 l 222 404 l 410 672 l 574 672 l 374 399 l 583 0 l 413 0 z "},"l":{"ha":292,"x_min":69,"x_max":222,"o":"m 69 924 l 222 924 l 222 0 l 69 0 l 69 924 z "},"ĺ":{"ha":292,"x_min":58,"x_max":322,"o":"m 185 960 l 58 960 l 168 1128 l 321 1128 l 322 1124 l 185 960 m 69 0 l 69 924 l 222 924 l 222 0 l 69 0 z "},"ľ":{"ha":403,"x_min":69,"x_max":465,"o":"m 69 924 l 222 924 l 222 0 l 69 0 l 69 924 m 289 501 l 358 700 l 289 700 l 289 875 l 465 875 l 465 717 l 381 501 l 289 501 z "},"ļ":{"ha":292,"x_min":68,"x_max":225,"o":"m 69 924 l 222 924 l 222 0 l 69 0 l 69 924 m 83 -335 l 131 -226 l 68 -226 l 68 -71 l 225 -71 l 225 -214 l 168 -335 l 83 -335 z "},"ŀ":{"ha":426,"x_min":69,"x_max":426,"o":"m 69 924 l 222 924 l 222 0 l 69 0 l 69 924 m 272 522 l 426 522 l 426 356 l 272 356 l 272 522 z "},"ł":{"ha":292,"x_min":-17,"x_max":324,"o":"m 324 521 l 222 432 l 222 0 l 69 0 l 69 294 l -17 218 l -17 340 l 69 418 l 69 924 l 222 924 l 222 554 l 324 644 l 324 521 z "},"m":{"ha":931,"x_min":71,"x_max":864,"o":"m 699 688 q 864 471 864 688 l 864 0 l 711 0 l 711 429 q 693 520 711 493 q 636 547 675 547 q 570 513 597 547 q 543 424 543 478 l 543 0 l 392 0 l 392 429 q 373 520 392 493 q 315 547 354 547 q 249 510 275 547 q 224 413 224 472 l 224 0 l 71 0 l 71 672 l 197 672 l 214 589 l 221 589 q 288 660 247 633 q 381 688 328 688 q 525 589 488 688 q 597 660 553 632 q 699 688 642 688 z "},"n":{"ha":640,"x_min":71,"x_max":569,"o":"m 392 688 q 522 635 474 688 q 569 471 569 583 l 569 0 l 417 0 l 417 429 q 394 519 417 492 q 328 547 371 547 q 253 509 283 547 q 224 413 224 471 l 224 0 l 71 0 l 71 672 l 197 672 l 214 589 l 221 589 q 292 660 250 633 q 392 688 335 688 z "},"ń":{"ha":640,"x_min":71,"x_max":569,"o":"m 358 754 l 232 754 l 342 924 l 496 924 l 497 918 l 358 754 m 392 688 q 522 635 474 688 q 569 471 569 583 l 569 0 l 417 0 l 417 429 q 394 519 417 492 q 328 547 371 547 q 253 509 283 547 q 224 413 224 471 l 224 0 l 71 0 l 71 672 l 197 672 l 214 589 l 221 589 q 292 660 250 633 q 392 688 335 688 z "},"ŉ":{"ha":864,"x_min":85,"x_max":793,"o":"m 186 611 l 104 611 l 149 719 l 85 719 l 85 875 l 244 875 l 244 732 l 186 611 m 614 688 q 745 635 697 688 q 793 471 793 583 l 793 0 l 640 0 l 640 429 q 617 519 640 492 q 551 547 594 547 q 476 509 507 547 q 446 413 446 471 l 446 0 l 293 0 l 293 672 l 422 672 l 436 589 l 444 589 q 515 660 472 632 q 614 688 558 688 z "},"ň":{"ha":640,"x_min":71,"x_max":569,"o":"m 149 924 l 263 924 l 321 835 l 376 924 l 492 924 l 383 751 l 258 751 l 149 924 m 392 688 q 522 635 474 688 q 569 471 569 583 l 569 0 l 417 0 l 417 429 q 394 519 417 492 q 328 547 371 547 q 253 509 283 547 q 224 413 224 471 l 224 0 l 71 0 l 71 672 l 197 672 l 214 589 l 221 589 q 292 660 250 633 q 392 688 335 688 z "},"ņ":{"ha":640,"x_min":71,"x_max":569,"o":"m 392 688 q 522 635 474 688 q 569 471 569 583 l 569 0 l 417 0 l 417 429 q 394 519 417 492 q 328 547 371 547 q 253 509 283 547 q 224 413 224 471 l 224 0 l 71 0 l 71 672 l 197 672 l 214 589 l 221 589 q 292 660 250 633 q 392 688 335 688 m 258 -335 l 303 -226 l 242 -226 l 242 -71 l 399 -71 l 399 -214 l 340 -335 l 258 -335 z "},"ŋ":{"ha":640,"x_min":71,"x_max":569,"o":"m 392 688 q 522 635 474 688 q 569 471 569 583 l 569 -51 q 533 -181 569 -129 q 413 -232 497 -232 q 352 -228 385 -232 q 300 -217 319 -224 l 300 -104 l 357 -104 q 401 -88 386 -104 q 417 -42 417 -72 l 417 429 q 394 519 417 492 q 328 547 371 547 q 253 509 283 547 q 224 413 224 471 l 224 0 l 71 0 l 71 672 l 197 672 l 214 589 l 221 589 q 292 660 250 633 q 392 688 335 688 z "},"ñ":{"ha":640,"x_min":71,"x_max":569,"o":"m 535 924 q 503 815 535 863 q 408 767 471 767 q 367 773 388 767 q 321 792 347 779 q 240 815 271 815 q 190 767 196 815 l 106 767 q 138 876 106 828 q 231 924 169 924 q 272 917 251 924 q 319 899 293 911 q 364 881 346 888 q 401 875 382 875 q 450 924 444 875 l 535 924 m 392 688 q 522 635 474 688 q 569 471 569 583 l 569 0 l 417 0 l 417 429 q 394 519 417 492 q 328 547 371 547 q 253 509 283 547 q 224 413 224 471 l 224 0 l 71 0 l 71 672 l 197 672 l 214 589 l 221 589 q 292 660 250 633 q 392 688 335 688 z "},"o":{"ha":640,"x_min":51,"x_max":589,"o":"m 321 688 q 523 601 457 688 q 589 335 589 515 q 522 70 589 156 q 321 -15 456 -15 q 118 70 185 -15 q 51 335 51 156 q 118 601 51 515 q 321 688 185 688 m 321 557 q 238 508 263 557 q 213 360 213 460 l 213 313 q 238 163 213 211 q 321 114 263 114 q 404 163 379 114 q 429 313 429 211 l 429 360 q 404 508 429 460 q 321 557 379 557 z "},"ó":{"ha":640,"x_min":51,"x_max":589,"o":"m 358 754 l 232 754 l 342 924 l 496 924 l 497 918 l 358 754 m 321 688 q 523 601 457 688 q 589 335 589 515 q 522 70 589 156 q 321 -15 456 -15 q 118 70 185 -15 q 51 335 51 156 q 118 601 51 515 q 321 688 185 688 m 321 557 q 238 508 263 557 q 213 360 213 460 l 213 313 q 238 163 213 211 q 321 114 263 114 q 404 163 379 114 q 429 313 429 211 l 429 360 q 404 508 429 460 q 321 557 379 557 z "},"ŏ":{"ha":640,"x_min":51,"x_max":589,"o":"m 490 924 q 469 859 490 890 q 408 808 447 828 q 319 788 369 788 q 231 808 269 788 q 170 859 192 828 q 149 924 149 890 l 244 924 q 269 894 247 908 q 319 881 290 881 q 372 894 350 881 q 396 924 393 908 l 490 924 m 321 688 q 523 601 457 688 q 589 335 589 515 q 522 70 589 156 q 321 -15 456 -15 q 118 70 185 -15 q 51 335 51 156 q 118 601 51 515 q 321 688 185 688 m 321 557 q 238 508 263 557 q 213 360 213 460 l 213 313 q 238 163 213 211 q 321 114 263 114 q 404 163 379 114 q 429 313 429 211 l 429 360 q 404 508 429 460 q 321 557 379 557 z "},"ô":{"ha":640,"x_min":51,"x_max":589,"o":"m 321 839 l 263 751 l 149 751 l 258 924 l 383 924 l 492 751 l 376 751 l 321 839 m 321 688 q 523 601 457 688 q 589 335 589 515 q 522 70 589 156 q 321 -15 456 -15 q 118 70 185 -15 q 51 335 51 156 q 118 601 51 515 q 321 688 185 688 m 321 557 q 238 508 263 557 q 213 360 213 460 l 213 313 q 238 163 213 211 q 321 114 263 114 q 404 163 379 114 q 429 313 429 211 l 429 360 q 404 508 429 460 q 321 557 379 557 z "},"ö":{"ha":640,"x_min":51,"x_max":589,"o":"m 144 785 l 144 924 l 272 924 l 272 785 l 144 785 m 368 785 l 368 924 l 496 924 l 496 785 l 368 785 m 321 688 q 523 601 457 688 q 589 335 589 515 q 522 70 589 156 q 321 -15 456 -15 q 118 70 185 -15 q 51 335 51 156 q 118 601 51 515 q 321 688 185 688 m 321 557 q 238 508 263 557 q 213 360 213 460 l 213 313 q 238 163 213 211 q 321 114 263 114 q 404 163 379 114 q 429 313 429 211 l 429 360 q 404 508 429 460 q 321 557 379 557 z "},"ò":{"ha":640,"x_min":51,"x_max":589,"o":"m 281 754 l 143 918 l 144 924 l 297 924 l 407 754 l 281 754 m 321 688 q 523 601 457 688 q 589 335 589 515 q 522 70 589 156 q 321 -15 456 -15 q 118 70 185 -15 q 51 335 51 156 q 118 601 51 515 q 321 688 185 688 m 321 557 q 238 508 263 557 q 213 360 213 460 l 213 313 q 238 163 213 211 q 321 114 263 114 q 404 163 379 114 q 429 313 429 211 l 429 360 q 404 508 429 460 q 321 557 379 557 z "},"ő":{"ha":640,"x_min":51,"x_max":589,"o":"m 176 754 l 256 924 l 383 924 l 385 918 l 278 754 l 176 754 m 356 754 l 435 924 l 563 924 l 564 918 l 457 754 l 356 754 m 321 688 q 523 601 457 688 q 589 335 589 515 q 522 70 589 156 q 321 -15 456 -15 q 118 70 185 -15 q 51 335 51 156 q 118 601 51 515 q 321 688 185 688 m 321 557 q 238 508 263 557 q 213 360 213 460 l 213 313 q 238 163 213 211 q 321 114 263 114 q 404 163 379 114 q 429 313 429 211 l 429 360 q 404 508 429 460 q 321 557 379 557 z "},"ō":{"ha":640,"x_min":51,"x_max":589,"o":"m 157 875 l 482 875 l 482 765 l 157 765 l 157 875 m 321 688 q 523 601 457 688 q 589 335 589 515 q 522 70 589 156 q 321 -15 456 -15 q 118 70 185 -15 q 51 335 51 156 q 118 601 51 515 q 321 688 185 688 m 321 557 q 238 508 263 557 q 213 360 213 460 l 213 313 q 238 163 213 211 q 321 114 263 114 q 404 163 379 114 q 429 313 429 211 l 429 360 q 404 508 429 460 q 321 557 379 557 z "},"ø":{"ha":640,"x_min":51,"x_max":589,"o":"m 515 610 q 589 335 589 524 q 522 70 589 156 q 321 -15 456 -15 q 190 11 247 -15 l 161 -40 l 67 -40 l 124 64 q 51 335 51 151 q 118 601 51 515 q 321 688 185 688 q 447 660 394 688 l 476 713 l 572 713 l 515 610 m 321 557 q 238 508 263 557 q 213 360 213 460 l 213 313 q 215 233 213 281 l 381 538 q 321 557 357 557 m 258 136 q 321 114 282 114 q 404 163 379 114 q 429 313 429 211 l 429 360 q 424 440 429 393 l 258 136 z "},"ǿ":{"ha":640,"x_min":51,"x_max":589,"o":"m 358 754 l 232 754 l 342 924 l 496 924 l 497 918 l 358 754 m 515 610 q 589 335 589 524 q 522 70 589 156 q 321 -15 456 -15 q 190 11 247 -15 l 161 -40 l 67 -40 l 124 64 q 51 335 51 151 q 118 601 51 515 q 321 688 185 688 q 447 660 394 688 l 476 713 l 572 713 l 515 610 m 321 557 q 238 508 263 557 q 213 360 213 460 l 213 313 q 215 233 213 281 l 381 538 q 321 557 357 557 m 258 136 q 321 114 282 114 q 404 163 379 114 q 429 313 429 211 l 429 360 q 424 440 429 393 l 258 136 z "},"õ":{"ha":640,"x_min":51,"x_max":589,"o":"m 535 924 q 503 815 535 863 q 408 767 471 767 q 367 773 388 767 q 321 792 347 779 q 240 815 271 815 q 190 767 196 815 l 106 767 q 138 876 106 828 q 231 924 169 924 q 272 917 251 924 q 319 899 293 911 q 364 881 346 888 q 401 875 382 875 q 450 924 444 875 l 535 924 m 321 688 q 523 601 457 688 q 589 335 589 515 q 522 70 589 156 q 321 -15 456 -15 q 118 70 185 -15 q 51 335 51 156 q 118 601 51 515 q 321 688 185 688 m 321 557 q 238 508 263 557 q 213 360 213 460 l 213 313 q 238 163 213 211 q 321 114 263 114 q 404 163 379 114 q 429 313 429 211 l 429 360 q 404 508 429 460 q 321 557 379 557 z "},"œ":{"ha":988,"x_min":51,"x_max":931,"o":"m 688 688 q 871 602 811 688 q 931 335 931 517 l 931 297 l 589 297 q 615 157 590 204 q 693 110 639 110 q 756 144 733 110 q 779 238 779 178 l 931 238 q 866 49 931 113 q 693 -15 801 -15 q 510 68 572 -15 q 321 -15 444 -15 q 118 70 185 -15 q 51 335 51 156 q 118 601 51 515 q 321 688 185 688 q 508 603 444 688 q 688 688 572 688 m 688 563 q 618 524 640 563 q 590 408 596 485 l 769 408 q 688 563 769 563 m 321 557 q 238 508 263 557 q 213 360 213 460 l 213 313 q 238 163 213 211 q 321 114 263 114 q 404 163 379 114 q 429 313 429 211 l 429 360 q 404 508 429 460 q 321 557 379 557 z "},"p":{"ha":640,"x_min":71,"x_max":588,"o":"m 371 688 q 531 600 474 688 q 588 335 588 513 q 531 72 588 160 q 381 -15 474 -15 q 288 7 329 -15 q 229 69 247 29 l 224 69 l 224 -221 l 71 -221 l 71 672 l 197 672 l 214 589 l 219 589 q 284 663 244 638 q 371 688 324 688 m 325 547 q 247 500 271 547 q 224 360 224 453 l 224 314 q 247 172 224 219 q 325 124 271 124 q 403 171 379 124 q 428 313 428 218 l 428 360 q 403 501 428 454 q 325 547 379 547 z "},"þ":{"ha":640,"x_min":71,"x_max":588,"o":"m 371 688 q 531 600 474 688 q 588 335 588 513 q 531 72 588 160 q 381 -15 474 -15 q 288 7 329 -15 q 229 69 247 29 l 224 69 l 224 -221 l 71 -221 l 71 924 l 224 924 l 224 596 q 287 664 249 640 q 371 688 325 688 m 428 360 q 403 501 428 454 q 325 547 379 547 q 247 500 271 547 q 224 360 224 453 l 224 314 q 247 172 224 219 q 325 124 271 124 q 403 171 379 124 q 428 313 428 218 l 428 360 z "},"q":{"ha":640,"x_min":51,"x_max":569,"o":"m 268 688 q 356 663 317 688 q 421 589 396 638 l 426 589 l 442 672 l 569 672 l 569 -221 l 417 -221 l 417 69 l 410 69 q 351 7 392 29 q 260 -15 311 -15 q 109 72 167 -15 q 51 335 51 160 q 108 600 51 513 q 268 688 165 688 m 314 547 q 236 500 260 547 q 213 360 213 453 l 213 313 q 236 171 213 218 q 314 124 260 124 q 392 172 368 124 q 417 314 417 219 l 417 360 q 392 501 417 454 q 314 547 368 547 z "},"r":{"ha":407,"x_min":71,"x_max":403,"o":"m 339 688 q 382 683 365 688 q 403 678 399 679 l 403 529 l 349 529 q 258 493 293 529 q 224 374 224 457 l 224 0 l 71 0 l 71 672 l 197 672 l 215 574 l 224 574 q 267 656 240 624 q 339 688 293 688 z "},"ŕ":{"ha":407,"x_min":53,"x_max":403,"o":"m 182 754 l 53 754 l 164 924 l 318 924 l 319 918 l 182 754 m 339 688 q 382 683 365 688 q 403 678 399 679 l 403 529 l 349 529 q 258 493 293 529 q 224 374 224 457 l 224 0 l 71 0 l 71 672 l 197 672 l 215 574 l 224 574 q 267 656 240 624 q 339 688 293 688 z "},"ř":{"ha":407,"x_min":-29,"x_max":403,"o":"m -29 924 l 85 924 l 143 835 l 200 924 l 314 924 l 206 751 l 81 751 l -29 924 m 339 688 q 382 683 365 688 q 403 678 399 679 l 403 529 l 349 529 q 258 493 293 529 q 224 374 224 457 l 224 0 l 71 0 l 71 672 l 197 672 l 215 574 l 224 574 q 267 656 240 624 q 339 688 293 688 z "},"ŗ":{"ha":407,"x_min":71,"x_max":403,"o":"m 339 688 q 382 683 365 688 q 403 678 399 679 l 403 529 l 349 529 q 258 493 293 529 q 224 374 224 457 l 224 0 l 71 0 l 71 672 l 197 672 l 215 574 l 224 574 q 267 656 240 624 q 339 688 293 688 m 93 -335 l 138 -226 l 75 -226 l 75 -71 l 233 -71 l 233 -214 l 175 -335 l 93 -335 z "},"s":{"ha":582,"x_min":42,"x_max":536,"o":"m 292 688 q 456 638 392 688 q 519 504 519 589 l 518 475 l 363 475 l 363 478 q 342 541 361 519 q 288 563 322 563 q 230 544 251 563 q 208 496 208 526 q 238 444 208 460 q 329 411 267 428 q 435 376 393 394 q 506 317 476 358 q 536 203 536 275 q 286 -15 536 -15 q 107 43 172 -15 q 42 197 42 101 l 43 214 l 200 214 l 200 204 q 228 133 201 156 q 292 110 254 110 q 354 127 328 110 q 381 182 381 144 q 349 242 381 224 q 251 279 318 260 q 149 315 189 296 q 80 373 108 333 q 51 482 51 413 q 119 634 51 581 q 292 688 186 688 z "},"ś":{"ha":582,"x_min":42,"x_max":536,"o":"m 329 754 l 204 754 l 314 924 l 467 924 l 468 918 l 329 754 m 292 688 q 456 638 392 688 q 519 504 519 589 l 518 475 l 363 475 l 363 478 q 342 541 361 519 q 288 563 322 563 q 230 544 251 563 q 208 496 208 526 q 238 444 208 460 q 329 411 267 428 q 435 376 393 394 q 506 317 476 358 q 536 203 536 275 q 286 -15 536 -15 q 107 43 172 -15 q 42 197 42 101 l 43 214 l 200 214 l 200 204 q 228 133 201 156 q 292 110 254 110 q 354 127 328 110 q 381 182 381 144 q 349 242 381 224 q 251 279 318 260 q 149 315 189 296 q 80 373 108 333 q 51 482 51 413 q 119 634 51 581 q 292 688 186 688 z "},"š":{"ha":582,"x_min":42,"x_max":536,"o":"m 229 751 l 119 924 l 236 924 l 292 835 l 349 924 l 464 924 l 356 751 l 229 751 m 292 688 q 456 638 392 688 q 519 504 519 589 l 518 475 l 363 475 l 363 478 q 342 541 361 519 q 288 563 322 563 q 230 544 251 563 q 208 496 208 526 q 238 444 208 460 q 329 411 267 428 q 435 376 393 394 q 506 317 476 358 q 536 203 536 275 q 286 -15 536 -15 q 107 43 172 -15 q 42 197 42 101 l 43 214 l 200 214 l 200 204 q 228 133 201 156 q 292 110 254 110 q 354 127 328 110 q 381 182 381 144 q 349 242 381 224 q 251 279 318 260 q 149 315 189 296 q 80 373 108 333 q 51 482 51 413 q 119 634 51 581 q 292 688 186 688 z "},"ş":{"ha":582,"x_min":42,"x_max":536,"o":"m 292 688 q 456 638 392 688 q 519 504 519 589 l 518 475 l 363 475 l 363 478 q 342 541 361 519 q 288 563 322 563 q 230 544 251 563 q 208 496 208 526 q 238 444 208 460 q 329 411 267 428 q 435 376 393 394 q 506 317 476 358 q 536 203 536 275 q 478 44 536 94 q 317 -14 419 -7 l 314 -42 q 386 -66 358 -44 q 414 -129 414 -87 q 372 -209 414 -186 q 276 -232 331 -232 q 169 -222 224 -232 l 169 -160 l 258 -160 q 293 -153 282 -160 q 304 -129 304 -146 q 294 -106 304 -112 q 261 -99 285 -99 l 219 -99 l 229 -11 q 91 57 140 1 q 42 197 42 113 l 43 214 l 200 214 l 200 204 q 228 133 201 156 q 292 110 254 110 q 354 127 328 110 q 381 182 381 144 q 349 242 381 224 q 251 279 318 260 q 149 315 189 296 q 80 373 108 333 q 51 482 51 413 q 119 634 51 581 q 292 688 186 688 z "},"ŝ":{"ha":582,"x_min":42,"x_max":536,"o":"m 349 751 l 292 839 l 236 751 l 119 751 l 229 924 l 356 924 l 464 751 l 349 751 m 292 688 q 456 638 392 688 q 519 504 519 589 l 518 475 l 363 475 l 363 478 q 342 541 361 519 q 288 563 322 563 q 230 544 251 563 q 208 496 208 526 q 238 444 208 460 q 329 411 267 428 q 435 376 393 394 q 506 317 476 358 q 536 203 536 275 q 286 -15 536 -15 q 107 43 172 -15 q 42 197 42 101 l 43 214 l 200 214 l 200 204 q 228 133 201 156 q 292 110 254 110 q 354 127 328 110 q 381 182 381 144 q 349 242 381 224 q 251 279 318 260 q 149 315 189 296 q 80 373 108 333 q 51 482 51 413 q 119 634 51 581 q 292 688 186 688 z "},"ș":{"ha":582,"x_min":42,"x_max":536,"o":"m 42 0 m 292 688 q 456 638 392 688 q 519 504 519 589 l 518 475 l 363 475 l 363 478 q 342 541 361 519 q 288 563 322 563 q 230 544 251 563 q 208 496 208 526 q 238 444 208 460 q 329 411 267 428 q 435 376 393 394 q 506 317 476 358 q 536 203 536 275 q 286 -15 536 -15 q 107 43 172 -15 q 42 197 42 101 l 43 214 l 200 214 l 200 204 q 228 133 201 156 q 292 110 254 110 q 354 127 328 110 q 381 182 381 144 q 349 242 381 224 q 251 279 318 260 q 149 315 189 296 q 80 373 108 333 q 51 482 51 413 q 119 634 51 581 q 292 688 186 688 m 229 -335 l 276 -226 l 213 -226 l 213 -71 l 371 -71 l 371 -214 l 313 -335 l 229 -335 z "},"ß":{"ha":640,"x_min":50,"x_max":604,"o":"m 325 939 q 507 874 436 939 q 578 699 578 810 q 544 581 578 636 q 457 504 510 526 l 457 500 q 563 412 521 476 q 604 274 604 347 q 570 131 604 193 q 478 34 536 68 q 349 0 419 0 l 265 0 l 265 131 l 332 131 q 415 173 381 131 q 449 275 449 215 q 415 372 449 332 q 332 413 381 413 l 265 413 l 265 557 l 328 557 q 395 598 367 557 q 424 696 424 639 q 397 778 424 747 q 318 808 369 808 q 235 774 267 808 q 204 675 204 739 l 204 0 l 50 0 l 50 664 q 126 872 50 804 q 325 939 201 939 z "},"ſ":{"ha":292,"x_min":11,"x_max":349,"o":"m 238 933 q 297 929 264 933 q 349 918 329 925 l 349 804 l 286 804 q 232 750 232 804 l 232 0 l 79 0 l 79 543 l 11 543 l 11 672 l 79 672 l 79 754 q 116 882 79 831 q 238 933 153 933 z "},"t":{"ha":349,"x_min":11,"x_max":329,"o":"m 329 543 l 232 543 l 232 169 q 246 128 232 143 q 286 114 260 114 l 329 114 l 329 0 q 285 -10 313 -6 q 238 -15 258 -15 q 116 36 153 -15 q 79 165 79 88 l 79 543 l 11 543 l 11 672 l 79 672 l 103 861 l 232 861 l 232 672 l 329 672 l 329 543 z "},"ŧ":{"ha":349,"x_min":11,"x_max":329,"o":"m 329 672 l 329 543 l 232 543 l 232 446 l 325 446 l 325 335 l 232 335 l 232 169 q 246 128 232 143 q 286 114 260 114 l 329 114 l 329 0 q 285 -10 313 -6 q 238 -15 258 -15 q 116 36 153 -15 q 79 165 79 88 l 79 335 l 14 335 l 14 446 l 79 446 l 79 543 l 11 543 l 11 672 l 79 672 l 103 861 l 232 861 l 232 672 l 329 672 z "},"ť":{"ha":501,"x_min":11,"x_max":558,"o":"m 399 543 l 454 700 l 383 700 l 383 875 l 558 875 l 558 717 l 490 543 l 399 543 m 329 543 l 232 543 l 232 169 q 246 128 232 143 q 286 114 260 114 l 329 114 l 329 0 q 285 -10 313 -6 q 238 -15 258 -15 q 116 36 153 -15 q 79 165 79 88 l 79 543 l 11 543 l 11 672 l 79 672 l 103 861 l 232 861 l 232 672 l 329 672 l 329 543 z "},"ţ":{"ha":349,"x_min":11,"x_max":332,"o":"m 232 -42 q 304 -66 276 -44 q 332 -129 332 -87 q 290 -209 332 -186 q 193 -232 247 -232 q 86 -222 140 -232 l 86 -160 l 178 -160 q 211 -153 200 -160 q 222 -129 222 -146 q 213 -106 222 -112 q 179 -99 203 -99 l 138 -99 l 150 6 q 96 70 113 28 q 79 165 79 113 l 79 543 l 11 543 l 11 672 l 79 672 l 103 861 l 232 861 l 232 672 l 329 672 l 329 543 l 232 543 l 232 169 q 246 128 232 143 q 286 114 260 114 l 329 114 l 329 0 q 285 -10 313 -6 q 238 -15 258 -15 l 235 -15 l 232 -42 z "},"ț":{"ha":349,"x_min":11,"x_max":329,"o":"m 329 543 l 232 543 l 232 169 q 246 128 232 143 q 286 114 260 114 l 329 114 l 329 0 q 285 -10 313 -6 q 238 -15 258 -15 q 116 36 153 -15 q 79 165 79 88 l 79 543 l 11 543 l 11 672 l 79 672 l 103 861 l 232 861 l 232 672 l 329 672 l 329 543 m 113 -335 l 158 -226 l 96 -226 l 96 -71 l 254 -71 l 254 -214 l 194 -335 l 113 -335 z "},"u":{"ha":640,"x_min":71,"x_max":569,"o":"m 426 82 l 419 82 q 347 12 390 39 q 249 -15 304 -15 q 118 36 165 -15 q 71 201 71 88 l 71 672 l 224 672 l 224 243 q 246 151 224 179 q 313 124 268 124 q 387 162 357 124 q 417 256 417 200 l 417 672 l 569 672 l 569 0 l 442 0 l 426 82 z "},"ú":{"ha":640,"x_min":71,"x_max":569,"o":"m 358 754 l 232 754 l 342 924 l 496 924 l 497 918 l 358 754 m 442 0 l 426 82 l 419 82 q 347 12 390 39 q 249 -15 304 -15 q 118 36 165 -15 q 71 201 71 88 l 71 672 l 224 672 l 224 243 q 246 151 224 179 q 313 124 268 124 q 387 162 357 124 q 417 256 417 200 l 417 672 l 569 672 l 569 0 l 442 0 z "},"ŭ":{"ha":640,"x_min":71,"x_max":569,"o":"m 490 924 q 469 859 490 890 q 408 808 447 828 q 319 788 369 788 q 231 808 269 788 q 170 859 192 828 q 149 924 149 890 l 244 924 q 269 894 247 908 q 319 881 290 881 q 372 894 350 881 q 396 924 393 908 l 490 924 m 426 82 l 419 82 q 347 12 390 39 q 249 -15 304 -15 q 118 36 165 -15 q 71 201 71 88 l 71 672 l 224 672 l 224 243 q 246 151 224 179 q 313 124 268 124 q 387 162 357 124 q 417 256 417 200 l 417 672 l 569 672 l 569 0 l 442 0 l 426 82 z "},"û":{"ha":640,"x_min":71,"x_max":569,"o":"m 321 839 l 263 751 l 149 751 l 258 924 l 383 924 l 492 751 l 376 751 l 321 839 m 426 82 l 419 82 q 347 12 390 39 q 249 -15 304 -15 q 118 36 165 -15 q 71 201 71 88 l 71 672 l 224 672 l 224 243 q 246 151 224 179 q 313 124 268 124 q 387 162 357 124 q 417 256 417 200 l 417 672 l 569 672 l 569 0 l 442 0 l 426 82 z "},"ü":{"ha":640,"x_min":71,"x_max":569,"o":"m 144 785 l 144 924 l 272 924 l 272 785 l 144 785 m 368 785 l 368 924 l 496 924 l 496 785 l 368 785 m 442 0 l 426 82 l 419 82 q 347 12 390 39 q 249 -15 304 -15 q 118 36 165 -15 q 71 201 71 88 l 71 672 l 224 672 l 224 243 q 246 151 224 179 q 313 124 268 124 q 387 162 357 124 q 417 256 417 200 l 417 672 l 569 672 l 569 0 l 442 0 z "},"ù":{"ha":640,"x_min":71,"x_max":569,"o":"m 281 754 l 143 918 l 144 924 l 297 924 l 407 754 l 281 754 m 442 0 l 426 82 l 419 82 q 347 12 390 39 q 249 -15 304 -15 q 118 36 165 -15 q 71 201 71 88 l 71 672 l 224 672 l 224 243 q 246 151 224 179 q 313 124 268 124 q 387 162 357 124 q 417 256 417 200 l 417 672 l 569 672 l 569 0 l 442 0 z "},"ű":{"ha":640,"x_min":71,"x_max":569,"o":"m 278 754 l 176 754 l 256 924 l 383 924 l 385 918 l 278 754 m 457 754 l 356 754 l 435 924 l 563 924 l 564 918 l 457 754 m 442 0 l 426 82 l 419 82 q 347 12 390 39 q 249 -15 304 -15 q 118 36 165 -15 q 71 201 71 88 l 71 672 l 224 672 l 224 243 q 246 151 224 179 q 313 124 268 124 q 387 162 357 124 q 417 256 417 200 l 417 672 l 569 672 l 569 0 l 442 0 z "},"ū":{"ha":640,"x_min":71,"x_max":569,"o":"m 157 875 l 482 875 l 482 765 l 157 765 l 157 875 m 426 82 l 419 82 q 347 12 390 39 q 249 -15 304 -15 q 118 36 165 -15 q 71 201 71 88 l 71 672 l 224 672 l 224 243 q 246 151 224 179 q 313 124 268 124 q 387 162 357 124 q 417 256 417 200 l 417 672 l 569 672 l 569 0 l 442 0 l 426 82 z "},"ų":{"ha":640,"x_min":71,"x_max":617,"o":"m 617 -154 l 617 -225 q 533 -243 575 -243 q 443 -215 481 -243 q 406 -128 406 -187 q 420 -58 406 -87 q 463 0 435 -28 l 442 0 l 426 82 l 419 82 q 347 12 390 39 q 249 -15 304 -15 q 118 36 165 -15 q 71 201 71 88 l 71 672 l 224 672 l 224 243 q 246 151 224 179 q 313 124 268 124 q 387 162 357 124 q 417 256 417 200 l 417 672 l 569 672 l 569 0 q 544 -40 556 -15 q 532 -89 532 -64 q 545 -135 532 -117 q 589 -154 558 -154 l 617 -154 z "},"ů":{"ha":640,"x_min":71,"x_max":569,"o":"m 321 963 q 408 926 372 963 q 443 839 443 889 q 408 752 443 788 q 321 717 372 717 q 234 752 271 717 q 197 839 197 788 q 233 926 197 890 q 321 963 269 963 m 321 897 q 278 881 296 897 q 261 839 261 864 q 278 797 261 814 q 321 781 296 781 q 363 797 346 781 q 381 839 381 814 q 363 881 381 864 q 321 897 346 897 m 426 82 l 419 82 q 347 12 390 39 q 249 -15 304 -15 q 118 36 165 -15 q 71 201 71 88 l 71 672 l 224 672 l 224 243 q 246 151 224 179 q 313 124 268 124 q 387 162 357 124 q 417 256 417 200 l 417 672 l 569 672 l 569 0 l 442 0 l 426 82 z "},"ũ":{"ha":640,"x_min":71,"x_max":569,"o":"m 535 924 q 503 815 535 863 q 408 767 471 767 q 367 773 388 767 q 321 792 347 779 q 240 815 271 815 q 190 767 196 815 l 106 767 q 138 876 106 828 q 231 924 169 924 q 272 917 251 924 q 319 899 293 911 q 364 881 346 888 q 401 875 382 875 q 450 924 444 875 l 535 924 m 426 82 l 419 82 q 347 12 390 39 q 249 -15 304 -15 q 118 36 165 -15 q 71 201 71 88 l 71 672 l 224 672 l 224 243 q 246 151 224 179 q 313 124 268 124 q 387 162 357 124 q 417 256 417 200 l 417 672 l 569 672 l 569 0 l 442 0 l 426 82 z "},"v":{"ha":582,"x_min":6,"x_max":578,"o":"m 214 0 l 6 672 l 167 672 l 253 383 q 272 303 264 346 q 282 250 281 261 l 294 182 l 300 182 q 314 263 304 204 q 322 313 315 275 q 338 383 329 351 l 424 672 l 578 672 l 368 0 l 214 0 z "},"w":{"ha":815,"x_min":1,"x_max":814,"o":"m 431 321 q 417 417 422 364 q 411 486 413 469 l 403 486 q 398 418 403 471 q 385 322 393 365 l 319 0 l 165 0 l 1 672 l 154 672 l 218 396 q 238 272 231 339 q 246 185 244 204 l 250 185 q 259 269 251 204 q 279 394 267 335 l 335 672 l 490 672 l 546 393 q 564 281 556 353 q 575 185 572 208 l 579 185 q 592 268 582 207 q 613 393 601 329 l 672 672 l 814 672 l 651 0 l 497 0 l 431 321 z "},"ẃ":{"ha":815,"x_min":1,"x_max":814,"o":"m 446 754 l 319 754 l 429 924 l 583 924 l 585 918 l 446 754 m 497 0 l 431 321 q 417 417 422 364 q 411 486 413 469 l 403 486 q 398 418 403 471 q 385 322 393 365 l 319 0 l 165 0 l 1 672 l 154 672 l 218 396 q 238 272 231 339 q 246 185 244 204 l 250 185 q 259 269 251 204 q 279 394 267 335 l 335 672 l 490 672 l 546 393 q 564 281 556 353 q 575 185 572 208 l 579 185 q 592 268 582 207 q 613 393 601 329 l 672 672 l 814 672 l 651 0 l 497 0 z "},"ŵ":{"ha":815,"x_min":1,"x_max":814,"o":"m 408 839 l 351 751 l 238 751 l 347 924 l 471 924 l 579 751 l 465 751 l 408 839 m 431 321 q 417 417 422 364 q 411 486 413 469 l 403 486 q 398 418 403 471 q 385 322 393 365 l 319 0 l 165 0 l 1 672 l 154 672 l 218 396 q 238 272 231 339 q 246 185 244 204 l 250 185 q 259 269 251 204 q 279 394 267 335 l 335 672 l 490 672 l 546 393 q 564 281 556 353 q 575 185 572 208 l 579 185 q 592 268 582 207 q 613 393 601 329 l 672 672 l 814 672 l 651 0 l 497 0 l 431 321 z "},"ẅ":{"ha":815,"x_min":1,"x_max":814,"o":"m 232 785 l 232 924 l 360 924 l 360 785 l 232 785 m 457 785 l 457 924 l 583 924 l 583 785 l 457 785 m 497 0 l 431 321 q 417 417 422 364 q 411 486 413 469 l 403 486 q 398 418 403 471 q 385 322 393 365 l 319 0 l 165 0 l 1 672 l 154 672 l 218 396 q 238 272 231 339 q 246 185 244 204 l 250 185 q 259 269 251 204 q 279 394 267 335 l 335 672 l 490 672 l 546 393 q 564 281 556 353 q 575 185 572 208 l 579 185 q 592 268 582 207 q 613 393 601 329 l 672 672 l 814 672 l 651 0 l 497 0 z "},"ẁ":{"ha":815,"x_min":1,"x_max":814,"o":"m 368 754 l 231 918 l 232 924 l 386 924 l 496 754 l 368 754 m 497 0 l 431 321 q 417 417 422 364 q 411 486 413 469 l 403 486 q 398 418 403 471 q 385 322 393 365 l 319 0 l 165 0 l 1 672 l 154 672 l 218 396 q 238 272 231 339 q 246 185 244 204 l 250 185 q 259 269 251 204 q 279 394 267 335 l 335 672 l 490 672 l 546 393 q 564 281 556 353 q 575 185 572 208 l 579 185 q 592 268 582 207 q 613 393 601 329 l 672 672 l 814 672 l 651 0 l 497 0 z "},"x":{"ha":582,"x_min":6,"x_max":576,"o":"m 576 0 l 403 0 l 290 222 l 283 222 l 171 0 l 6 0 l 201 347 l 22 672 l 194 672 l 294 476 l 301 476 l 401 672 l 567 672 l 385 351 l 576 0 z "},"y":{"ha":582,"x_min":6,"x_max":578,"o":"m 393 35 q 302 -160 358 -89 q 156 -232 246 -232 q 87 -227 117 -232 q 57 -221 57 -222 l 57 -104 l 125 -104 q 188 -78 161 -104 q 228 0 215 -53 l 6 672 l 168 672 l 268 357 q 293 236 283 308 l 303 182 l 310 182 l 318 236 q 340 356 329 317 l 424 672 l 578 672 l 393 35 z "},"ý":{"ha":582,"x_min":6,"x_max":578,"o":"m 329 754 l 204 754 l 314 924 l 467 924 l 468 918 l 329 754 m 393 35 q 302 -160 358 -89 q 156 -232 246 -232 q 87 -227 117 -232 q 57 -221 57 -222 l 57 -104 l 125 -104 q 188 -78 161 -104 q 228 0 215 -53 l 6 672 l 168 672 l 268 357 q 293 236 283 308 l 303 182 l 310 182 l 318 236 q 340 356 329 317 l 424 672 l 578 672 l 393 35 z "},"ŷ":{"ha":582,"x_min":6,"x_max":578,"o":"m 292 839 l 236 751 l 119 751 l 229 924 l 356 924 l 464 751 l 349 751 l 292 839 m 393 35 q 302 -160 358 -89 q 156 -232 246 -232 q 87 -227 117 -232 q 57 -221 57 -222 l 57 -104 l 125 -104 q 188 -78 161 -104 q 228 0 215 -53 l 6 672 l 168 672 l 268 357 q 293 236 283 308 l 303 182 l 310 182 l 318 236 q 340 356 329 317 l 424 672 l 578 672 l 393 35 z "},"ÿ":{"ha":582,"x_min":6,"x_max":578,"o":"m 115 785 l 115 924 l 244 924 l 244 785 l 115 785 m 339 785 l 339 924 l 468 924 l 468 785 l 339 785 m 393 35 q 302 -160 358 -89 q 156 -232 246 -232 q 87 -227 117 -232 q 57 -221 57 -222 l 57 -104 l 125 -104 q 188 -78 161 -104 q 228 0 215 -53 l 6 672 l 168 672 l 268 357 q 293 236 283 308 l 303 182 l 310 182 l 318 236 q 340 356 329 317 l 424 672 l 578 672 l 393 35 z "},"ỳ":{"ha":582,"x_min":6,"x_max":578,"o":"m 253 754 l 115 918 l 115 924 l 269 924 l 381 754 l 253 754 m 393 35 q 302 -160 358 -89 q 156 -232 246 -232 q 87 -227 117 -232 q 57 -221 57 -222 l 57 -104 l 125 -104 q 188 -78 161 -104 q 228 0 215 -53 l 6 672 l 168 672 l 268 357 q 293 236 283 308 l 303 182 l 310 182 l 318 236 q 340 356 329 317 l 424 672 l 578 672 l 393 35 z "},"z":{"ha":522,"x_min":24,"x_max":501,"o":"m 501 129 l 501 0 l 24 0 l 24 65 l 283 543 l 39 543 l 39 672 l 492 672 l 492 608 l 229 129 l 501 129 z "},"ź":{"ha":522,"x_min":24,"x_max":501,"o":"m 300 754 l 174 754 l 283 924 l 436 924 l 438 918 l 300 754 m 229 129 l 501 129 l 501 0 l 24 0 l 24 65 l 283 543 l 39 543 l 39 672 l 492 672 l 492 608 l 229 129 z "},"ž":{"ha":522,"x_min":24,"x_max":501,"o":"m 92 924 l 206 924 l 263 835 l 319 924 l 435 924 l 325 751 l 201 751 l 92 924 m 501 129 l 501 0 l 24 0 l 24 65 l 283 543 l 39 543 l 39 672 l 492 672 l 492 608 l 229 129 l 501 129 z "},"ż":{"ha":522,"x_min":24,"x_max":501,"o":"m 193 924 l 331 924 l 331 775 l 193 775 l 193 924 m 501 129 l 501 0 l 24 0 l 24 65 l 283 543 l 39 543 l 39 672 l 492 672 l 492 608 l 229 129 l 501 129 z "},"ﬁ":{"ha":640,"x_min":11,"x_max":571,"o":"m 238 933 q 297 929 264 933 q 349 918 329 925 l 349 804 l 286 804 q 232 750 232 804 l 232 672 l 349 672 l 349 543 l 232 543 l 232 0 l 79 0 l 79 543 l 11 543 l 11 672 l 79 672 l 79 754 q 116 882 79 831 q 238 933 153 933 m 418 924 l 571 924 l 571 785 l 418 785 l 418 924 m 418 672 l 571 672 l 571 0 l 418 0 l 418 672 z "},"ﬂ":{"ha":640,"x_min":11,"x_max":571,"o":"m 238 933 q 297 929 264 933 q 349 918 329 925 l 349 804 l 286 804 q 232 750 232 804 l 232 672 l 349 672 l 349 543 l 232 543 l 232 0 l 79 0 l 79 543 l 11 543 l 11 672 l 79 672 l 79 754 q 116 882 79 831 q 238 933 153 933 m 418 924 l 571 924 l 571 0 l 418 0 l 418 924 z "},"ª":{"ha":388,"x_min":17,"x_max":392,"o":"m 192 938 q 308 903 269 938 q 347 803 347 868 l 347 586 q 354 563 347 571 q 371 556 361 556 l 392 556 l 392 476 q 331 464 367 464 q 280 480 301 464 q 251 522 258 496 l 247 522 q 199 478 225 493 q 132 464 174 464 q 53 492 89 464 q 17 590 17 519 q 74 713 17 676 q 238 750 132 750 l 238 797 q 228 834 238 821 q 194 847 219 847 q 158 835 169 847 q 147 806 147 824 l 147 793 l 40 793 q 39 810 39 797 q 81 903 39 868 q 192 938 122 938 m 238 675 q 160 658 190 675 q 129 600 129 640 q 175 554 129 554 q 222 581 207 554 q 238 649 238 608 l 238 675 z "},"º":{"ha":382,"x_min":13,"x_max":375,"o":"m 193 938 q 331 880 286 938 q 375 699 375 822 q 330 520 375 578 q 193 463 285 463 q 57 520 101 463 q 13 699 13 578 q 57 880 13 822 q 193 938 101 938 m 193 843 q 143 812 158 843 q 128 717 128 781 l 128 683 q 143 587 128 618 q 193 556 158 556 q 246 587 231 556 q 261 683 261 618 l 261 717 q 246 812 261 781 q 193 843 231 843 z "},"ⁿ":{"ha":414,"x_min":39,"x_max":375,"o":"m 256 938 q 375 792 375 938 l 375 475 l 265 475 l 265 764 q 253 822 265 804 q 214 839 240 839 q 167 815 186 839 q 149 754 149 790 l 149 475 l 39 475 l 39 928 l 132 928 l 142 872 l 147 872 q 256 938 189 938 z "},"Δ":{"ha":753,"x_min":15,"x_max":725,"o":"m 725 0 l 15 0 l 15 71 l 276 875 l 467 875 l 725 71 l 725 0 m 196 146 l 536 146 l 368 690 l 364 690 l 196 146 z "},"Ω":{"ha":981,"x_min":125,"x_max":853,"o":"m 490 892 q 758 778 664 892 q 853 438 853 665 q 819 256 853 335 q 725 128 785 178 l 774 138 q 821 146 813 146 l 853 146 l 853 0 l 538 0 l 538 104 q 648 193 611 122 q 685 378 685 264 l 685 469 q 635 677 685 603 q 490 751 586 751 q 342 677 393 751 q 292 469 292 603 l 292 378 q 330 196 292 267 q 440 104 368 125 l 440 0 l 125 0 l 125 146 l 157 146 q 201 138 165 146 l 251 128 q 158 256 192 178 q 125 438 125 333 q 220 778 125 665 q 490 892 315 892 z "},"μ":{"ha":640,"x_min":71,"x_max":569,"o":"m 426 82 l 419 82 q 359 12 396 39 q 275 -15 322 -15 q 224 -6 250 -15 l 224 -221 l 71 -221 l 71 672 l 224 672 l 224 243 q 246 151 224 179 q 313 124 268 124 q 387 162 357 124 q 417 256 417 200 l 417 672 l 569 672 l 569 0 l 442 0 l 426 82 z "},"π":{"ha":801,"x_min":26,"x_max":743,"o":"m 625 200 q 643 0 625 72 l 492 0 q 472 188 472 32 l 472 543 l 332 543 q 301 240 325 408 q 249 0 278 72 l 97 0 q 152 258 128 93 q 179 543 176 424 q 94 539 124 543 q 40 526 65 535 l 26 633 q 229 672 82 672 l 743 672 l 732 543 l 625 543 l 625 200 z "},"ऄ":{"ha":924,"x_min":40,"x_max":938,"o":"m 938 742 l 822 742 l 822 0 l 669 0 l 669 315 l 510 315 l 510 274 q 444 118 510 175 q 272 61 379 61 q 103 117 165 61 q 40 267 40 174 q 44 311 40 289 l 201 311 l 201 279 q 221 212 201 235 q 276 189 240 189 q 350 274 349 189 l 350 321 q 261 419 350 419 l 219 419 l 219 546 l 263 546 q 316 568 296 546 q 338 635 336 590 l 338 678 q 276 764 338 764 q 214 674 214 764 l 214 647 l 60 647 q 56 697 56 672 q 117 839 56 786 q 276 892 178 892 q 438 835 378 892 q 497 678 497 779 l 497 635 q 422 492 497 538 l 422 486 q 471 449 450 474 l 669 449 l 669 742 l 551 742 l 551 875 l 671 875 l 671 956 q 660 983 671 975 q 629 992 650 992 l 328 992 q 181 1033 226 992 q 135 1163 135 1074 l 135 1194 l 288 1194 l 288 1163 q 297 1134 288 1143 q 328 1125 306 1125 l 629 1125 q 778 1085 732 1125 q 824 956 824 1044 l 824 875 l 938 875 l 938 742 z "},"ॲ":{"ha":924,"x_min":40,"x_max":938,"o":"m 40 0 m 938 742 l 822 742 l 822 0 l 669 0 l 669 315 l 510 315 l 510 274 q 444 118 510 175 q 272 61 379 61 q 103 117 165 61 q 40 267 40 174 q 44 311 40 289 l 201 311 l 201 279 q 221 212 201 235 q 276 189 240 189 q 350 274 349 189 l 350 321 q 261 419 350 419 l 219 419 l 219 546 l 263 546 q 316 568 296 546 q 338 635 336 590 l 338 678 q 276 764 338 764 q 214 674 214 764 l 214 647 l 60 647 q 56 697 56 672 q 117 839 56 786 q 276 892 178 892 q 438 835 378 892 q 497 678 497 779 l 497 635 q 422 492 497 538 l 422 486 q 471 449 450 474 l 669 449 l 669 742 l 551 742 l 551 875 l 938 875 l 938 742 m 693 1146 q 631 979 693 1043 q 461 915 568 915 q 294 979 356 915 q 232 1146 232 1043 l 364 1146 q 390 1055 364 1085 q 461 1025 417 1025 q 560 1146 560 1025 l 693 1146 z "},"अ":{"ha":924,"x_min":40,"x_max":938,"o":"m 938 742 l 822 742 l 822 0 l 669 0 l 669 315 l 510 315 l 510 274 q 444 118 510 175 q 272 61 379 61 q 103 117 165 61 q 40 267 40 174 q 44 311 40 289 l 201 311 l 201 279 q 221 212 201 235 q 276 189 240 189 q 350 274 349 189 l 350 321 q 261 419 350 419 l 219 419 l 219 546 l 263 546 q 316 568 296 546 q 338 635 336 590 l 338 678 q 276 764 338 764 q 214 674 214 764 l 214 647 l 60 647 q 56 697 56 672 q 117 839 56 786 q 276 892 178 892 q 438 835 378 892 q 497 678 497 779 l 497 635 q 422 492 497 538 l 422 486 q 471 449 450 474 l 669 449 l 669 742 l 551 742 l 551 875 l 938 875 l 938 742 z "},"आ":{"ha":1296,"x_min":40,"x_max":1311,"o":"m 1311 742 l 1186 742 l 1186 0 l 1033 0 l 1033 742 l 822 742 l 822 0 l 669 0 l 669 315 l 510 315 l 510 274 q 444 118 510 175 q 272 61 379 61 q 103 117 165 61 q 40 267 40 174 q 44 311 40 289 l 201 311 l 201 279 q 221 212 201 235 q 276 189 240 189 q 350 274 349 189 l 350 321 q 261 419 350 419 l 219 419 l 219 546 l 263 546 q 316 568 296 546 q 338 635 336 590 l 338 678 q 276 764 338 764 q 214 674 214 764 l 214 647 l 60 647 q 56 697 56 672 q 117 839 56 786 q 276 892 178 892 q 438 835 378 892 q 497 678 497 779 l 497 635 q 422 492 497 538 l 422 486 q 471 449 450 474 l 669 449 l 669 742 l 551 742 l 551 875 l 1311 875 l 1311 742 z "},"इ":{"ha":674,"x_min":-14,"x_max":688,"o":"m 315 521 q 257 479 257 521 q 278 445 257 456 q 344 435 299 435 l 393 435 q 563 390 503 435 q 624 240 624 344 q 562 83 624 133 q 394 32 500 32 q 253 63 311 32 l 253 -68 l 113 -68 l 113 261 l 281 261 l 281 251 q 308 181 281 206 q 383 157 336 157 q 447 176 425 157 q 468 232 468 196 q 442 288 468 275 q 363 300 415 300 l 349 300 q 101 481 101 300 q 160 614 101 572 q 319 656 218 656 l 413 656 l 413 742 l -14 742 l -14 875 l 688 875 l 688 742 l 567 742 l 567 521 l 315 521 z "},"ई":{"ha":674,"x_min":-14,"x_max":688,"o":"m 315 521 q 257 479 257 521 q 278 445 257 456 q 344 435 299 435 l 393 435 q 563 390 503 435 q 624 240 624 344 q 562 83 624 133 q 394 32 500 32 q 253 63 311 32 l 253 -68 l 113 -68 l 113 261 l 281 261 l 281 251 q 308 181 281 206 q 383 157 336 157 q 447 176 425 157 q 468 232 468 196 q 442 288 468 275 q 363 300 415 300 l 349 300 q 101 481 101 300 q 160 614 101 572 q 319 656 218 656 l 413 656 l 413 742 l -14 742 l -14 875 l 404 875 q 369 1008 369 946 q 440 1144 369 1093 q 626 1194 510 1194 l 668 1194 l 668 1060 l 651 1060 q 556 1036 589 1060 q 524 968 524 1013 q 549 875 524 921 l 688 875 l 688 742 l 567 742 l 567 521 l 315 521 z "},"उ":{"ha":536,"x_min":-14,"x_max":550,"o":"m 550 742 l 454 742 q 468 654 468 700 l 468 635 q 393 492 468 538 l 393 486 q 456 426 432 468 q 481 321 481 383 l 481 274 q 416 118 481 175 q 243 61 351 61 q 74 117 136 61 q 11 267 11 174 q 15 311 11 289 l 172 311 l 172 279 q 192 213 172 236 q 247 189 211 189 q 321 274 319 189 l 321 321 q 232 419 321 419 l 190 419 l 190 546 l 233 546 q 288 568 268 546 q 310 635 308 590 l 310 654 q 247 742 310 742 l -14 742 l -14 875 l 550 875 l 550 742 z "},"ऊ":{"ha":874,"x_min":-14,"x_max":889,"o":"m 454 742 q 468 654 468 700 l 468 635 q 393 492 468 538 l 393 486 q 433 457 414 476 q 604 540 489 540 q 780 476 714 540 q 846 299 846 411 q 779 120 846 179 q 600 61 713 61 q 572 64 592 61 l 572 201 l 585 201 q 664 227 635 201 q 693 296 693 253 l 693 308 q 668 375 693 350 q 600 400 643 400 q 508 366 536 400 q 481 265 481 332 q 413 116 478 171 q 243 61 349 61 q 74 117 136 61 q 11 267 11 174 q 15 311 11 289 l 172 311 l 172 279 q 192 213 172 236 q 247 189 211 189 q 321 274 319 189 l 321 321 q 232 419 321 419 l 190 419 l 190 546 l 233 546 q 288 568 268 546 q 310 635 308 590 l 310 654 q 247 742 310 742 l -14 742 l -14 875 l 889 875 l 889 742 l 454 742 z "},"ऋ":{"ha":1064,"x_min":-14,"x_max":1079,"o":"m 578 442 l 828 563 l 828 621 l 969 621 l 969 239 l 940 239 q 883 223 904 239 q 863 178 863 207 q 883 133 863 149 q 940 118 904 118 q 1033 138 986 118 l 1033 7 q 929 -15 983 -15 q 821 8 871 -15 q 740 74 771 31 q 710 178 710 118 q 742 285 710 240 q 828 353 774 329 l 828 414 l 578 293 l 578 0 l 425 0 l 425 229 l 146 96 l 146 244 l 394 364 l 360 401 q 290 458 322 442 q 225 475 258 475 q 154 461 200 475 l 113 447 l 113 579 q 160 599 119 583 q 240 611 203 611 q 338 589 297 611 q 425 521 379 567 l 425 742 l -14 742 l -14 875 l 1079 875 l 1079 742 l 578 742 l 578 442 z "},"ॠ":{"ha":1064,"x_min":-14,"x_max":1079,"o":"m 578 442 l 828 563 l 828 621 l 969 621 l 969 239 l 931 239 q 863 189 863 239 q 883 151 863 164 q 940 139 904 139 l 969 139 l 969 14 l 931 14 q 881 1 899 14 q 863 -37 863 -12 q 883 -74 863 -62 q 940 -86 904 -86 q 1033 -65 989 -86 l 1033 -197 q 929 -219 978 -219 q 822 -199 872 -219 q 740 -140 771 -178 q 710 -50 710 -101 q 768 76 710 22 q 710 201 710 128 q 742 294 710 254 q 828 354 774 333 l 828 414 l 578 293 l 578 0 l 425 0 l 425 229 l 146 96 l 146 244 l 394 364 l 360 401 q 290 458 322 442 q 225 475 258 475 q 154 461 200 475 l 113 447 l 113 579 q 160 599 119 583 q 240 611 203 611 q 338 589 297 611 q 425 521 379 567 l 425 742 l -14 742 l -14 875 l 1079 875 l 1079 742 l 578 742 l 578 442 z "},"ऌ":{"ha":933,"x_min":-14,"x_max":947,"o":"m 794 96 q 738 80 758 96 q 717 35 717 64 q 738 -10 717 6 q 794 -25 758 -25 q 888 -6 840 -25 l 888 -136 q 783 -158 838 -158 q 675 -135 725 -158 q 594 -69 625 -112 q 564 35 564 -25 q 593 138 564 94 q 671 204 622 181 l 671 388 q 651 481 671 447 q 594 514 632 514 q 517 378 517 514 l 517 278 l 357 278 l 357 378 q 279 514 357 514 q 223 465 242 514 q 204 331 204 415 q 243 180 204 231 q 357 129 282 129 l 404 129 l 404 6 q 356 0 383 0 q 124 88 204 0 q 44 346 44 176 q 70 498 44 431 q 144 604 96 565 q 256 643 192 643 q 371 608 325 643 q 435 513 417 572 l 439 513 q 498 608 457 572 q 604 643 539 643 q 671 629 639 643 l 671 742 l -14 742 l -14 875 l 947 875 l 947 742 l 824 742 l 824 96 l 794 96 z "},"ॡ":{"ha":933,"x_min":-14,"x_max":947,"o":"m 785 139 q 717 89 717 139 q 738 51 717 64 q 794 39 758 39 l 824 39 l 824 -86 l 785 -86 q 735 -99 753 -86 q 717 -137 717 -112 q 738 -174 717 -162 q 794 -186 758 -186 q 888 -165 843 -186 l 888 -297 q 783 -319 832 -319 q 676 -299 726 -319 q 594 -240 625 -278 q 564 -150 564 -201 q 622 -24 564 -78 q 564 101 564 28 q 593 190 564 151 q 671 249 622 228 l 671 388 q 651 481 671 447 q 594 514 632 514 q 517 378 517 514 l 517 301 l 357 301 l 357 378 q 279 514 357 514 q 223 465 242 514 q 204 331 204 415 q 243 180 204 231 q 357 129 282 129 l 404 129 l 404 6 q 356 0 383 0 q 124 88 204 0 q 44 346 44 176 q 70 498 44 431 q 144 604 96 565 q 256 643 192 643 q 371 608 325 643 q 435 513 417 572 l 439 513 q 498 608 457 572 q 604 643 539 643 q 671 629 639 643 l 671 742 l -14 742 l -14 875 l 947 875 l 947 742 l 824 742 l 824 139 l 785 139 z "},"ऍ":{"ha":746,"x_min":-14,"x_max":760,"o":"m 0 0 m 760 742 l 636 742 l 636 544 q 600 415 636 467 q 479 364 564 364 q 396 374 432 364 l 396 493 l 424 493 q 482 554 482 493 l 482 742 l 263 742 l 263 425 q 267 386 263 401 q 283 361 271 371 l 492 156 q 558 81 538 114 q 579 21 579 49 q 556 -68 579 -17 l 428 -68 q 431 -25 431 -50 q 422 20 431 1 q 394 61 414 39 l 160 290 q 122 344 133 315 q 110 414 110 372 l 110 742 l -14 742 l -14 875 l 760 875 l 760 742 m 603 1146 q 540 979 603 1043 q 371 915 478 915 q 203 979 265 915 q 142 1146 142 1043 l 274 1146 q 300 1055 274 1085 q 371 1025 326 1025 q 469 1146 469 1025 l 603 1146 z "},"ऎ":{"ha":746,"x_min":-50,"x_max":760,"o":"m 0 0 m 760 742 l 636 742 l 636 544 q 600 415 636 467 q 479 364 564 364 q 396 374 432 364 l 396 493 l 424 493 q 482 554 482 493 l 482 742 l 263 742 l 263 425 q 267 386 263 401 q 283 361 271 371 l 492 156 q 558 81 538 114 q 579 21 579 49 q 556 -68 579 -17 l 428 -68 q 431 -25 431 -50 q 422 20 431 1 q 394 61 414 39 l 160 290 q 122 344 133 315 q 110 414 110 372 l 110 742 l -14 742 l -14 875 l 760 875 l 760 742 m 486 828 l 486 956 q 476 983 486 975 q 444 992 465 992 l 143 992 q -4 1033 42 992 q -50 1163 -50 1074 l -50 1194 l 103 1194 l 103 1163 q 112 1134 103 1143 q 143 1125 121 1125 l 444 1125 q 593 1085 547 1125 q 639 956 639 1044 l 639 828 l 486 828 z "},"ए":{"ha":746,"x_min":-14,"x_max":760,"o":"m 760 742 l 636 742 l 636 544 q 600 415 636 467 q 479 364 564 364 q 396 374 432 364 l 396 493 l 424 493 q 482 554 482 493 l 482 742 l 263 742 l 263 425 q 267 386 263 401 q 283 361 271 371 l 492 156 q 558 81 538 114 q 579 21 579 49 q 556 -68 579 -17 l 428 -68 q 431 -25 431 -50 q 422 20 431 1 q 394 61 414 39 l 160 290 q 122 344 133 315 q 110 414 110 372 l 110 742 l -14 742 l -14 875 l 760 875 l 760 742 z "},"ऐ":{"ha":746,"x_min":-14,"x_max":760,"o":"m 760 742 l 636 742 l 636 544 q 600 415 636 467 q 479 364 564 364 q 396 374 432 364 l 396 493 l 424 493 q 482 554 482 493 l 482 742 l 263 742 l 263 425 q 267 386 263 401 q 283 361 271 371 l 492 156 q 558 81 538 114 q 579 21 579 49 q 556 -68 579 -17 l 428 -68 q 431 -25 431 -50 q 422 20 431 1 q 394 61 414 39 l 160 290 q 122 344 133 315 q 110 414 110 372 l 110 742 l -14 742 l -14 875 l 481 875 l 361 1258 l 517 1258 l 621 875 l 760 875 l 760 742 z "},"ऑ":{"ha":1296,"x_min":40,"x_max":1311,"o":"m 40 0 m 1311 742 l 1186 742 l 1186 0 l 1033 0 l 1033 742 l 822 742 l 822 0 l 669 0 l 669 315 l 510 315 l 510 274 q 444 118 510 175 q 272 61 379 61 q 103 117 165 61 q 40 267 40 174 q 44 311 40 289 l 201 311 l 201 279 q 221 212 201 235 q 276 189 240 189 q 350 274 349 189 l 350 321 q 261 419 350 419 l 219 419 l 219 546 l 263 546 q 316 568 296 546 q 338 635 336 590 l 338 678 q 276 764 338 764 q 214 674 214 764 l 214 647 l 60 647 q 56 697 56 672 q 117 839 56 786 q 276 892 178 892 q 438 835 378 892 q 497 678 497 779 l 497 635 q 422 492 497 538 l 422 486 q 471 449 450 474 l 669 449 l 669 742 l 551 742 l 551 875 l 1311 875 l 1311 742 m 879 1146 q 817 979 879 1043 q 647 915 754 915 q 480 979 542 915 q 418 1146 418 1043 l 550 1146 q 576 1055 550 1085 q 647 1025 603 1025 q 746 1146 746 1025 l 879 1146 z "},"ऒ":{"ha":1296,"x_min":40,"x_max":1311,"o":"m 1311 742 l 1186 742 l 1186 0 l 1033 0 l 1033 742 l 822 742 l 822 0 l 669 0 l 669 315 l 510 315 l 510 274 q 444 118 510 175 q 272 61 379 61 q 103 117 165 61 q 40 267 40 174 q 44 311 40 289 l 201 311 l 201 279 q 221 212 201 235 q 276 189 240 189 q 350 274 349 189 l 350 321 q 261 419 350 419 l 219 419 l 219 546 l 263 546 q 316 568 296 546 q 338 635 336 590 l 338 678 q 276 764 338 764 q 214 674 214 764 l 214 647 l 60 647 q 56 697 56 672 q 117 839 56 786 q 276 892 178 892 q 438 835 378 892 q 497 678 497 779 l 497 635 q 422 492 497 538 l 422 486 q 471 449 450 474 l 669 449 l 669 742 l 551 742 l 551 875 l 1035 875 l 1035 956 q 1024 983 1035 975 q 993 992 1014 992 l 692 992 q 544 1033 590 992 q 499 1163 499 1074 l 499 1194 l 651 1194 l 651 1163 q 660 1134 651 1143 q 692 1125 669 1125 l 993 1125 q 1142 1085 1096 1125 q 1188 956 1188 1044 l 1188 875 l 1311 875 l 1311 742 z "},"ओ":{"ha":1296,"x_min":40,"x_max":1311,"o":"m 1311 742 l 1186 742 l 1186 0 l 1033 0 l 1033 742 l 822 742 l 822 0 l 669 0 l 669 315 l 510 315 l 510 274 q 444 118 510 175 q 272 61 379 61 q 103 117 165 61 q 40 267 40 174 q 44 311 40 289 l 201 311 l 201 279 q 221 212 201 235 q 276 189 240 189 q 350 274 349 189 l 350 321 q 261 419 350 419 l 219 419 l 219 546 l 263 546 q 316 568 296 546 q 338 635 336 590 l 338 678 q 276 764 338 764 q 214 674 214 764 l 214 647 l 60 647 q 56 697 56 672 q 117 839 56 786 q 276 892 178 892 q 438 835 378 892 q 497 678 497 779 l 497 635 q 422 492 497 538 l 422 486 q 471 449 450 474 l 669 449 l 669 742 l 551 742 l 551 875 l 1029 875 l 910 1258 l 1065 1258 l 1169 875 l 1311 875 l 1311 742 z "},"औ":{"ha":1296,"x_min":40,"x_max":1311,"o":"m 1311 742 l 1186 742 l 1186 0 l 1033 0 l 1033 742 l 822 742 l 822 0 l 669 0 l 669 315 l 510 315 l 510 274 q 444 118 510 175 q 272 61 379 61 q 103 117 165 61 q 40 267 40 174 q 44 311 40 289 l 201 311 l 201 279 q 221 212 201 235 q 276 189 240 189 q 350 274 349 189 l 350 321 q 261 419 350 419 l 219 419 l 219 546 l 263 546 q 316 568 296 546 q 338 635 336 590 l 338 678 q 276 764 338 764 q 214 674 214 764 l 214 647 l 60 647 q 56 697 56 672 q 117 839 56 786 q 276 892 178 892 q 438 835 378 892 q 497 678 497 779 l 497 635 q 422 492 497 538 l 422 486 q 471 449 450 474 l 669 449 l 669 742 l 551 742 l 551 875 l 872 875 l 754 1258 l 908 1258 l 1015 875 l 1040 875 q 1028 1074 1028 994 l 1028 1258 l 1182 1258 l 1182 875 l 1311 875 l 1311 742 z "},"ॳ":{"ha":924,"x_min":40,"x_max":938,"o":"m 40 0 m 938 742 l 822 742 l 822 0 l 669 0 l 669 315 l 510 315 l 510 274 q 444 118 510 175 q 272 61 379 61 q 103 117 165 61 q 40 267 40 174 q 44 311 40 289 l 201 311 l 201 279 q 221 212 201 235 q 276 189 240 189 q 350 274 349 189 l 350 321 q 261 419 350 419 l 219 419 l 219 546 l 263 546 q 316 568 296 546 q 338 635 336 590 l 338 678 q 276 764 338 764 q 214 674 214 764 l 214 647 l 60 647 q 56 697 56 672 q 117 839 56 786 q 276 892 178 892 q 438 835 378 892 q 497 678 497 779 l 497 635 q 422 492 497 538 l 422 486 q 471 449 450 474 l 669 449 l 669 742 l 551 742 l 551 875 l 938 875 l 938 742 m 822 964 l 669 964 l 669 1213 l 822 1213 l 822 964 z "},"ॴ":{"ha":1296,"x_min":40,"x_max":1311,"o":"m 40 0 m 1311 742 l 1186 742 l 1186 0 l 1033 0 l 1033 742 l 822 742 l 822 0 l 669 0 l 669 315 l 510 315 l 510 274 q 444 118 510 175 q 272 61 379 61 q 103 117 165 61 q 40 267 40 174 q 44 311 40 289 l 201 311 l 201 279 q 221 212 201 235 q 276 189 240 189 q 350 274 349 189 l 350 321 q 261 419 350 419 l 219 419 l 219 546 l 263 546 q 316 568 296 546 q 338 635 336 590 l 338 678 q 276 764 338 764 q 214 674 214 764 l 214 647 l 60 647 q 56 697 56 672 q 117 839 56 786 q 276 892 178 892 q 438 835 378 892 q 497 678 497 779 l 497 635 q 422 492 497 538 l 422 486 q 471 449 450 474 l 669 449 l 669 742 l 551 742 l 551 875 l 1311 875 l 1311 742 m 1192 964 l 1039 964 l 1039 1213 l 1192 1213 l 1192 964 z "},"ॵ":{"ha":1296,"x_min":40,"x_max":1311,"o":"m 1311 742 l 1186 742 l 1186 0 l 1033 0 l 1033 742 l 822 742 l 822 0 l 669 0 l 669 315 l 510 315 l 510 274 q 444 118 510 175 q 272 61 379 61 q 103 117 165 61 q 40 267 40 174 q 44 311 40 289 l 201 311 l 201 279 q 221 212 201 235 q 276 189 240 189 q 350 274 349 189 l 350 321 q 261 419 350 419 l 219 419 l 219 546 l 263 546 q 316 568 296 546 q 338 635 336 590 l 338 678 q 276 764 338 764 q 214 674 214 764 l 214 647 l 60 647 q 56 697 56 672 q 117 839 56 786 q 276 892 178 892 q 438 835 378 892 q 497 678 497 779 l 497 635 q 422 492 497 538 l 422 486 q 471 449 450 474 l 669 449 l 669 742 l 551 742 l 551 875 l 939 875 l 939 879 q 929 907 939 899 q 897 915 919 915 l 654 915 q 495 956 544 915 q 446 1086 446 996 l 446 1118 l 599 1118 l 599 1086 q 611 1047 599 1058 q 654 1035 624 1035 l 897 1035 q 1047 998 1000 1035 q 1093 879 1093 961 l 1093 875 l 1106 875 q 1118 1017 1118 1004 q 1068 1076 1118 1076 l 839 1076 q 680 1113 729 1076 q 631 1232 631 1150 l 631 1264 l 783 1264 l 783 1232 q 797 1203 783 1213 q 839 1194 810 1194 l 1068 1194 q 1224 1153 1175 1194 q 1272 1022 1272 1113 q 1260 875 1272 1001 l 1311 875 l 1311 742 z "},"ॶ":{"ha":924,"x_min":40,"x_max":938,"o":"m 40 0 m 938 742 l 822 742 l 822 0 l 669 0 l 669 315 l 510 315 l 510 274 q 444 118 510 175 q 272 61 379 61 q 103 117 165 61 q 40 267 40 174 q 44 311 40 289 l 201 311 l 201 279 q 221 212 201 235 q 276 189 240 189 q 350 274 349 189 l 350 321 q 261 419 350 419 l 219 419 l 219 546 l 263 546 q 316 568 296 546 q 338 635 336 590 l 338 678 q 276 764 338 764 q 214 674 214 764 l 214 647 l 60 647 q 56 697 56 672 q 117 839 56 786 q 276 892 178 892 q 438 835 378 892 q 497 678 497 779 l 497 635 q 422 492 497 538 l 422 486 q 471 449 450 474 l 669 449 l 669 742 l 551 742 l 551 875 l 938 875 l 938 742 m 735 -43 q 697 -129 729 -87 q 608 -197 665 -171 q 472 -222 550 -222 q 338 -197 394 -222 q 248 -130 281 -171 q 210 -43 215 -89 l 332 -43 q 380 -92 343 -71 q 472 -114 417 -114 q 563 -92 525 -114 q 611 -43 601 -71 l 735 -43 z "},"ॷ":{"ha":924,"x_min":40,"x_max":938,"o":"m 40 0 m 938 742 l 822 742 l 822 0 l 669 0 l 669 315 l 510 315 l 510 274 q 444 118 510 175 q 272 61 379 61 q 103 117 165 61 q 40 267 40 174 q 44 311 40 289 l 201 311 l 201 279 q 221 212 201 235 q 276 189 240 189 q 350 274 349 189 l 350 321 q 261 419 350 419 l 219 419 l 219 546 l 263 546 q 316 568 296 546 q 338 635 336 590 l 338 678 q 276 764 338 764 q 214 674 214 764 l 214 647 l 60 647 q 56 697 56 672 q 117 839 56 786 q 276 892 178 892 q 438 835 378 892 q 497 678 497 779 l 497 635 q 422 492 497 538 l 422 486 q 471 449 450 474 l 669 449 l 669 742 l 551 742 l 551 875 l 938 875 l 938 742 z "},"ा":{"ha":372,"x_min":-14,"x_max":388,"o":"m 388 742 l 263 742 l 263 0 l 110 0 l 110 742 l -14 742 l -14 875 l 388 875 l 388 742 z "},"ि":{"ha":372,"x_min":-14,"x_max":939,"o":"m 690 1244 q 873 1166 807 1222 q 939 1031 939 1110 q 938 972 939 986 l 790 972 l 790 1021 q 762 1082 790 1054 q 669 1124 733 1110 q 547 1133 614 1133 l 522 1133 q 389 1124 442 1133 q 288 1078 314 1110 q 263 999 263 1047 l 263 875 l 388 875 l 388 742 l 263 742 l 263 0 l 110 0 l 110 742 l -14 742 l -14 875 l 110 875 l 110 1007 q 170 1159 110 1099 q 356 1242 231 1219 q 536 1258 431 1258 q 690 1244 622 1258 z "},"ी":{"ha":372,"x_min":-260,"x_max":388,"o":"m 388 742 l 263 742 l 263 0 l 110 0 l 110 742 l -14 742 l -14 875 l 110 875 l 110 1013 q 0 1133 110 1133 q -110 1021 -110 1133 l -110 972 l -258 972 q -260 1031 -260 986 q -193 1197 -260 1136 q -1 1258 -126 1258 q 194 1196 125 1258 q 263 1021 263 1133 l 263 875 l 388 875 l 388 742 z "},"ॉ":{"ha":372,"x_min":-44,"x_max":417,"o":"m 0 0 m 388 742 l 263 742 l 263 0 l 110 0 l 110 742 l -14 742 l -14 875 l 388 875 l 388 742 m 417 1146 q 354 979 417 1043 q 185 915 292 915 q 17 979 79 915 q -44 1146 -44 1043 l 88 1146 q 114 1055 88 1085 q 185 1025 140 1025 q 283 1146 283 1025 l 417 1146 z "},"ॊ":{"ha":372,"x_min":-425,"x_max":388,"o":"m 388 742 l 263 742 l 263 0 l 110 0 l 110 742 l -14 742 l -14 875 l 111 875 l 111 956 q 101 983 111 975 q 69 992 90 992 l -232 992 q -379 1033 -333 992 q -425 1163 -425 1074 l -425 1194 l -272 1194 l -272 1163 q -263 1134 -272 1143 q -232 1125 -254 1125 l 69 1125 q 218 1085 172 1125 q 264 956 264 1044 l 264 875 l 388 875 l 388 742 z "},"ो":{"ha":372,"x_min":-14,"x_max":388,"o":"m 388 742 l 263 742 l 263 0 l 110 0 l 110 742 l -14 742 l -14 875 l 106 875 l -14 1258 l 142 1258 l 246 875 l 388 875 l 388 742 z "},"ौ":{"ha":372,"x_min":-169,"x_max":388,"o":"m 388 742 l 263 742 l 263 0 l 110 0 l 110 742 l -62 742 l -62 875 l -51 875 l -169 1258 l -15 1258 l 92 875 l 117 875 q 104 1074 104 994 l 104 1258 l 258 1258 l 258 875 l 388 875 l 388 742 z "},"ॎ":{"ha":372,"x_min":110,"x_max":388,"o":"m 388 742 l 263 742 l 263 0 l 110 0 l 110 875 l 388 875 l 388 742 z "},"ऻ":{"ha":372,"x_min":-14,"x_max":388,"o":"m 388 742 l 263 742 l 263 0 l 110 0 l 110 742 l -14 742 l -14 875 l 110 875 l 110 1124 l 263 1124 l 263 875 l 388 875 l 388 742 z "},"ॏ":{"ha":372,"x_min":-478,"x_max":388,"o":"m 388 742 l 263 742 l 263 0 l 110 0 l 110 742 l -14 742 l -14 875 l 15 875 l 15 879 q 6 907 15 899 q -26 915 -4 915 l -269 915 q -428 956 -379 915 q -478 1086 -478 996 l -478 1118 l -325 1118 l -325 1086 q -312 1047 -325 1058 q -269 1035 -300 1035 l -26 1035 q 123 998 76 1035 q 169 879 169 961 l 169 875 l 182 875 q 194 1017 194 1004 q 144 1076 194 1076 l -85 1076 q -244 1113 -194 1076 q -293 1232 -293 1150 l -293 1264 l -140 1264 l -140 1232 q -127 1203 -140 1213 q -85 1194 -114 1194 l 144 1194 q 300 1153 251 1194 q 349 1022 349 1113 q 336 875 349 1001 l 388 875 l 388 742 z "},"क":{"ha":1000,"x_min":-14,"x_max":1014,"o":"m 568 574 q 714 643 621 643 q 869 572 811 643 q 926 378 926 500 q 862 178 926 250 q 686 106 797 106 q 651 108 671 106 l 651 246 l 664 246 q 742 274 718 246 q 765 358 765 303 l 765 390 q 742 474 765 446 q 664 503 718 503 q 586 475 610 503 q 563 390 563 447 l 563 0 l 410 0 l 410 181 l 403 181 q 343 126 381 147 q 254 104 306 104 q 103 178 160 104 q 46 382 46 253 q 102 583 46 510 q 253 656 158 656 q 344 634 306 656 q 403 579 382 613 l 410 579 l 410 742 l -14 742 l -14 875 l 1014 875 l 1014 742 l 563 742 l 563 574 l 568 574 m 410 393 q 385 485 410 454 q 304 515 360 515 q 225 485 250 515 q 200 396 200 456 l 200 364 q 225 274 200 304 q 304 244 250 244 q 385 274 360 244 q 410 364 410 304 l 410 393 z "},"ख":{"ha":1036,"x_min":-14,"x_max":1050,"o":"m 1050 742 l 925 742 l 925 0 l 772 0 l 772 104 q 662 55 732 72 q 511 38 592 38 q 256 89 365 38 q 85 244 146 140 q 24 497 24 347 l 128 497 q 198 529 174 497 q 222 622 222 561 l 222 742 l -14 742 l -14 875 l 1050 875 l 1050 742 m 772 742 l 375 742 l 375 639 q 326 447 375 515 q 185 371 278 379 q 297 219 218 274 q 501 164 375 164 q 688 196 619 164 q 772 283 756 228 l 772 285 l 765 285 q 710 256 743 267 q 638 244 678 244 q 490 297 543 244 q 438 457 438 350 q 490 614 438 563 q 638 665 543 665 q 710 654 678 665 q 765 625 743 643 l 772 625 l 772 742 m 772 463 q 751 510 772 494 q 685 526 731 526 q 617 511 638 526 q 597 464 597 496 l 597 446 q 617 400 597 415 q 685 385 638 385 q 752 400 732 385 q 772 446 772 415 l 772 463 z "},"ग":{"ha":860,"x_min":-14,"x_max":874,"o":"m 874 742 l 749 742 l 749 0 l 596 0 l 596 742 l 424 742 l 424 368 q 365 211 424 271 q 213 151 307 151 q 58 211 117 151 q 0 368 0 271 q 58 525 0 467 q 213 583 115 583 l 269 583 l 269 742 l -14 742 l -14 875 l 874 875 l 874 742 m 213 288 q 255 308 240 288 q 269 368 269 329 l 269 447 l 213 447 q 169 426 185 447 q 153 368 153 404 q 213 288 153 288 z "},"घ":{"ha":806,"x_min":-14,"x_max":821,"o":"m 821 742 l 696 742 l 696 0 l 543 0 l 543 156 q 374 106 482 106 q 226 135 292 106 q 123 216 160 164 q 86 335 86 268 q 117 442 86 397 q 197 507 147 488 q 86 654 86 547 q 110 742 86 703 l -14 742 l -14 875 l 821 875 l 821 742 m 399 231 q 543 390 543 231 l 543 742 l 294 742 q 258 717 268 742 q 247 663 247 693 q 270 590 247 617 q 329 564 293 564 l 414 564 l 414 438 l 331 438 q 271 416 294 438 q 247 353 247 394 q 290 263 247 296 q 399 231 332 231 z "},"ङ":{"ha":769,"x_min":-14,"x_max":785,"o":"m 785 742 l 551 742 l 551 521 l 329 521 q 265 508 286 521 q 243 467 243 494 q 329 411 243 411 l 378 411 q 548 366 486 411 q 610 211 610 321 q 537 38 610 92 q 342 -15 464 -15 q 137 42 208 -15 q 65 192 65 99 q 67 214 65 204 l 222 214 l 222 204 q 256 134 222 158 q 350 110 290 110 q 454 196 454 110 q 425 261 454 244 q 349 278 396 278 l 333 278 q 152 322 218 278 q 86 467 86 367 q 152 611 86 567 q 333 656 218 656 l 399 656 l 399 742 l -14 742 l -14 875 l 785 875 l 785 742 m 617 589 l 775 589 l 775 431 l 617 431 l 617 589 z "},"च":{"ha":743,"x_min":-14,"x_max":757,"o":"m 757 742 l 632 742 l 632 0 l 479 0 l 479 146 l 474 146 q 331 106 408 106 q 173 168 231 106 q 115 354 115 231 q 144 482 115 435 l 6 482 l 6 618 l 394 618 l 394 482 l 378 482 q 300 458 324 482 q 276 386 276 433 l 276 358 q 300 274 276 301 q 378 246 324 246 q 456 274 432 246 q 479 358 479 301 l 479 742 l -14 742 l -14 875 l 757 875 l 757 742 z "},"छ":{"ha":874,"x_min":-43,"x_max":889,"o":"m 889 742 l 703 742 l 703 642 q 831 436 831 601 q 778 247 831 333 q 626 111 725 161 q 399 61 528 61 q 222 92 299 61 q 101 176 144 122 q 57 297 57 229 q 89 402 57 356 q 167 467 121 449 q 88 531 119 486 q 57 640 57 576 q 86 742 57 700 l -43 742 l -43 875 l 889 875 l 889 742 m 550 742 l 281 742 q 218 639 218 742 q 236 553 218 583 q 286 522 254 522 l 331 522 l 331 397 l 288 397 q 237 376 256 397 q 218 318 218 356 q 265 221 218 256 q 400 186 313 186 q 561 222 497 186 q 655 313 625 258 q 685 422 685 367 l 685 457 q 670 521 685 500 q 619 542 656 542 q 564 494 564 542 l 564 463 l 435 463 q 429 508 429 490 q 460 594 429 558 q 550 644 492 631 l 550 742 z "},"ज":{"ha":857,"x_min":-14,"x_max":871,"o":"m 871 742 l 746 742 l 746 0 l 593 0 l 593 450 l 489 450 l 489 313 q 426 160 489 214 q 260 106 364 106 q 94 160 156 106 q 33 313 33 214 l 33 586 l 186 586 l 186 317 q 208 258 186 281 q 260 236 229 236 q 313 258 292 236 q 335 317 335 281 l 335 586 l 593 586 l 593 742 l -14 742 l -14 875 l 871 875 l 871 742 z "},"झ":{"ha":1019,"x_min":-22,"x_max":1035,"o":"m 1035 742 l 910 742 l 910 0 l 757 0 l 757 328 l 582 328 q 603 238 603 294 q 539 83 603 133 q 369 32 475 32 q 225 64 282 32 l 225 -68 l 85 -68 l 85 261 l 253 261 l 253 251 q 282 181 253 206 q 363 157 311 157 q 426 177 406 157 q 446 239 446 197 q 418 301 446 286 q 340 315 390 315 l 326 315 q 79 489 79 315 q 138 615 79 575 q 297 656 197 656 l 392 656 l 392 742 l -22 742 l -22 875 l 1035 875 l 1035 742 m 757 742 l 544 742 l 544 521 l 293 521 q 236 486 236 521 q 257 458 236 467 q 322 449 278 449 l 757 449 l 757 742 z "},"ञ":{"ha":885,"x_min":-29,"x_max":900,"o":"m 900 742 l 775 742 l 775 0 l 622 0 l 622 314 l 461 314 q 394 150 450 203 q 236 97 338 97 q 82 144 140 97 q 24 267 24 190 q 28 293 24 281 l 175 293 l 175 288 q 190 242 175 258 q 236 226 206 226 q 311 338 311 226 l 311 414 q 240 526 311 526 q 196 510 213 526 q 179 465 179 494 l 179 460 l 28 460 q 24 485 24 472 q 83 609 24 563 q 240 656 143 656 q 460 449 432 656 l 622 449 l 622 742 l -29 742 l -29 875 l 900 875 l 900 742 z "},"ट":{"ha":600,"x_min":-14,"x_max":614,"o":"m 313 526 q 229 490 254 526 q 204 382 204 454 l 204 335 q 226 226 204 263 q 297 190 247 190 q 369 217 347 190 q 392 299 392 243 l 392 329 l 549 329 q 551 292 551 313 q 488 117 551 174 q 297 61 425 61 q 106 134 169 61 q 43 358 43 207 q 110 583 43 510 q 313 656 176 656 l 344 656 l 344 742 l -14 742 l -14 875 l 614 875 l 614 742 l 497 742 l 497 526 l 313 526 z "},"ठ":{"ha":639,"x_min":-14,"x_max":653,"o":"m 497 742 l 497 607 q 589 358 589 536 q 522 133 589 206 q 321 61 456 61 q 118 134 185 61 q 51 358 51 207 q 118 583 51 510 q 321 656 185 656 l 344 656 l 344 742 l -14 742 l -14 875 l 653 875 l 653 742 l 497 742 m 429 382 q 415 476 429 440 q 369 526 401 511 l 321 526 q 238 490 263 526 q 213 382 213 454 l 213 335 q 238 226 213 263 q 321 190 263 190 q 404 226 379 190 q 429 335 429 263 l 429 382 z "},"ड":{"ha":658,"x_min":-14,"x_max":674,"o":"m 329 521 q 265 508 286 521 q 243 467 243 494 q 329 411 243 411 l 378 411 q 548 366 486 411 q 610 211 610 321 q 537 38 610 92 q 342 -15 464 -15 q 137 42 208 -15 q 65 192 65 99 q 67 214 65 204 l 222 214 l 222 204 q 256 134 222 158 q 350 110 290 110 q 454 196 454 110 q 425 261 454 244 q 349 278 396 278 l 333 278 q 152 322 218 278 q 86 467 86 367 q 152 611 86 567 q 333 656 218 656 l 399 656 l 399 742 l -14 742 l -14 875 l 674 875 l 674 742 l 551 742 l 551 521 l 329 521 z "},"ॸ":{"ha":656,"x_min":-14,"x_max":671,"o":"m 424 594 q 404 461 424 517 q 550 378 501 442 q 599 228 599 315 q 522 0 599 138 l 365 0 q 440 221 440 132 q 410 305 440 276 q 308 333 381 333 l 100 333 l 100 468 l 204 468 q 269 579 269 468 l 269 742 l -14 742 l -14 875 l 671 875 l 671 742 l 424 742 l 424 594 z "},"ढ":{"ha":633,"x_min":-14,"x_max":647,"o":"m 324 526 q 230 490 258 526 q 201 382 201 454 l 201 335 q 233 229 201 265 q 224 289 224 254 q 267 414 224 361 q 406 467 311 467 q 547 419 492 467 q 601 283 601 372 q 531 122 601 183 q 338 61 461 61 q 119 142 197 61 q 40 372 40 224 q 113 583 40 511 q 324 656 185 656 l 368 656 l 368 742 l -14 742 l -14 875 l 647 875 l 647 742 l 521 742 l 521 526 l 324 526 m 399 342 q 346 263 346 342 q 396 182 346 182 q 438 203 424 182 q 453 265 453 225 q 399 342 453 342 z "},"ण":{"ha":1008,"x_min":-14,"x_max":1024,"o":"m 1024 742 l 899 742 l 899 0 l 746 0 l 746 742 l 576 742 l 576 326 q 509 164 576 222 q 326 106 442 106 q 144 163 211 106 q 78 326 78 221 l 78 742 l -14 742 l -14 875 l 1024 875 l 1024 742 m 424 742 l 231 742 l 231 331 q 257 262 231 288 q 326 236 283 236 q 397 262 369 236 q 424 331 424 288 l 424 742 z "},"त":{"ha":700,"x_min":-14,"x_max":728,"o":"m 728 742 l 603 742 l 603 0 l 450 0 l 450 457 l 276 457 q 210 432 229 457 q 190 358 190 407 q 311 0 190 218 l 144 0 q 53 224 74 142 q 33 368 33 307 q 92 528 33 464 q 275 592 151 592 l 450 592 l 450 742 l -14 742 l -14 875 l 728 875 l 728 742 z "},"थ":{"ha":908,"x_min":65,"x_max":924,"o":"m 924 742 l 799 742 l 799 0 l 646 0 l 646 257 q 554 213 611 228 q 433 197 497 197 q 205 274 289 197 q 121 497 121 351 q 342 674 342 497 q 326 742 342 719 q 276 765 310 765 q 215 701 215 765 l 215 664 l 71 664 q 65 713 65 697 q 121 842 65 793 q 276 892 176 892 q 442 831 385 892 q 500 669 500 771 q 447 500 500 569 q 303 399 393 431 q 450 324 344 324 q 597 378 547 324 q 646 526 646 432 l 646 742 l 536 742 l 536 875 l 924 875 l 924 742 z "},"द":{"ha":626,"x_min":-14,"x_max":642,"o":"m 313 526 q 229 490 254 526 q 204 382 204 454 l 204 335 q 230 225 204 260 q 317 190 256 190 q 413 232 386 190 l 396 301 l 549 301 l 621 0 l 468 0 l 446 93 q 306 61 393 61 q 43 361 43 61 q 110 583 43 511 q 313 656 178 656 l 357 656 l 357 742 l -14 742 l -14 875 l 642 875 l 642 742 l 510 742 l 510 526 l 313 526 z "},"ध":{"ha":900,"x_min":86,"x_max":914,"o":"m 914 742 l 790 742 l 790 0 l 638 0 l 638 168 q 414 106 563 106 q 238 135 313 106 q 125 219 164 165 q 86 342 86 272 q 117 453 86 406 q 197 519 147 500 q 86 693 86 568 q 141 838 86 785 q 293 892 196 892 q 434 847 383 892 q 485 729 485 801 q 479 683 485 711 l 335 683 l 335 721 q 325 753 335 740 q 296 765 315 765 q 258 741 268 765 q 247 683 247 717 q 270 604 247 632 q 329 576 293 576 l 414 576 l 414 450 l 331 450 q 270 427 293 450 q 247 360 247 404 q 295 264 247 297 q 433 231 343 231 q 587 272 536 231 q 638 390 638 314 l 638 742 l 529 742 l 529 875 l 914 875 l 914 742 z "},"न":{"ha":821,"x_min":-14,"x_max":835,"o":"m 835 742 l 710 742 l 710 0 l 557 0 l 557 432 l 425 432 l 425 365 q 367 217 425 274 q 215 161 310 161 q 61 217 119 161 q 3 365 3 274 q 61 513 3 457 q 215 568 119 568 l 557 568 l 557 742 l -14 742 l -14 875 l 835 875 l 835 742 m 272 432 l 215 432 q 172 414 189 432 q 156 365 156 396 q 173 317 156 338 q 215 296 190 296 q 256 315 240 296 q 272 365 272 335 l 272 432 z "},"ऩ":{"ha":821,"x_min":-14,"x_max":835,"o":"m 0 0 m 835 742 l 710 742 l 710 0 l 557 0 l 557 432 l 425 432 l 425 365 q 367 217 425 274 q 215 161 310 161 q 61 217 119 161 q 3 365 3 274 q 61 513 3 457 q 215 568 119 568 l 557 568 l 557 742 l -14 742 l -14 875 l 835 875 l 835 742 m 272 432 l 215 432 q 172 414 189 432 q 156 365 156 396 q 173 317 156 338 q 215 296 190 296 q 256 315 240 296 q 272 365 272 335 l 272 432 z "},"प":{"ha":682,"x_min":-14,"x_max":697,"o":"m 697 742 l 572 742 l 572 0 l 419 0 l 419 235 q 286 197 365 197 q 130 256 188 197 q 72 419 72 314 l 72 742 l -14 742 l -14 875 l 697 875 l 697 742 m 324 328 q 392 354 365 328 q 419 424 419 381 l 419 742 l 225 742 l 225 436 q 252 357 225 386 q 324 328 279 328 z "},"फ":{"ha":1010,"x_min":-14,"x_max":1024,"o":"m 572 574 l 578 574 q 724 643 631 643 q 878 572 821 643 q 936 378 936 500 q 872 178 936 250 q 696 106 807 106 q 661 108 681 106 l 661 246 l 674 246 q 751 274 728 246 q 775 358 775 303 l 775 390 q 751 474 775 446 q 674 503 728 503 q 596 475 619 503 q 572 390 572 447 l 572 0 l 419 0 l 419 235 q 286 197 365 197 q 130 256 188 197 q 72 419 72 314 l 72 742 l -14 742 l -14 875 l 1024 875 l 1024 742 l 572 742 l 572 574 m 225 742 l 225 436 q 252 357 225 386 q 324 328 279 328 q 392 354 365 328 q 419 424 419 381 l 419 742 l 225 742 z "},"ब":{"ha":703,"x_min":-14,"x_max":717,"o":"m 717 742 l 592 742 l 592 0 l 439 0 l 439 151 l 432 151 q 363 118 404 132 q 275 104 321 104 q 107 178 168 104 q 46 382 46 251 q 106 583 46 510 q 275 656 167 656 q 364 642 321 656 q 432 608 407 628 l 439 608 l 439 742 l -14 742 l -14 875 l 717 875 l 717 742 m 414 281 q 439 364 439 310 l 439 393 q 408 484 439 453 q 313 515 378 515 q 286 514 294 515 l 414 281 m 185 364 q 215 274 185 304 q 313 244 246 244 q 343 246 333 244 l 214 485 q 185 396 185 454 l 185 364 z "},"भ":{"ha":938,"x_min":58,"x_max":951,"o":"m 951 742 l 828 742 l 828 0 l 675 0 l 675 335 l 497 335 l 497 269 q 439 122 497 178 q 286 65 381 65 q 132 122 190 65 q 74 269 74 178 q 132 416 74 361 q 286 471 190 471 l 344 471 l 344 676 q 279 765 344 765 q 225 741 242 765 q 208 683 208 717 l 208 631 l 64 631 q 61 651 64 635 q 58 692 58 667 q 117 837 58 782 q 275 892 176 892 q 441 838 385 892 q 497 686 497 783 l 497 471 l 675 471 l 675 742 l 544 742 l 544 875 l 951 875 l 951 742 m 344 335 l 286 335 q 242 317 258 335 q 226 269 226 300 q 244 221 226 240 q 286 201 261 201 q 328 220 313 201 q 344 269 344 239 l 344 335 z "},"म":{"ha":875,"x_min":-14,"x_max":890,"o":"m 890 742 l 765 742 l 765 0 l 613 0 l 613 335 l 424 335 l 424 268 q 365 121 424 176 q 213 65 307 65 q 58 121 115 65 q 0 268 0 176 q 58 415 0 360 q 213 471 115 471 l 269 471 l 269 742 l -14 742 l -14 875 l 890 875 l 890 742 m 613 471 l 613 742 l 424 742 l 424 471 l 613 471 m 269 335 l 213 335 q 169 317 185 335 q 153 268 153 299 q 171 220 153 240 q 213 200 189 200 q 254 219 239 200 q 269 268 269 238 l 269 335 z "},"य":{"ha":756,"x_min":-14,"x_max":771,"o":"m 771 742 l 646 742 l 646 0 l 493 0 l 493 232 q 332 197 435 197 q 114 273 189 197 q 39 497 39 349 q 157 527 104 497 q 210 624 210 557 q 182 707 210 672 q 115 742 154 742 l -14 742 l -14 875 l 771 875 l 771 742 m 346 324 q 493 482 493 324 l 493 742 l 313 742 q 351 678 338 715 q 364 599 364 640 q 324 480 364 532 q 214 399 285 428 q 346 324 246 324 z "},"र":{"ha":526,"x_min":-14,"x_max":540,"o":"m 540 742 l 424 742 l 424 594 q 374 412 424 476 q 226 340 324 347 l 406 0 l 246 0 l 71 367 l 71 468 l 175 468 q 246 497 222 468 q 269 579 269 525 l 269 742 l -14 742 l -14 875 l 540 875 l 540 742 z "},"ऱ":{"ha":526,"x_min":-49,"x_max":540,"o":"m 0 0 m 540 742 l 424 742 l 424 594 q 374 412 424 476 q 226 340 324 347 l 406 0 l 246 0 l 71 367 l 71 468 l 175 468 q 246 497 222 468 q 269 579 269 525 l 269 742 l -14 742 l -14 875 l 540 875 l 540 742 z "},"ल":{"ha":933,"x_min":-14,"x_max":949,"o":"m 949 742 l 824 742 l 824 0 l 671 0 l 671 388 q 651 481 671 447 q 594 514 632 514 q 517 378 517 514 l 517 278 l 357 278 l 357 378 q 279 514 357 514 q 223 465 242 514 q 204 331 204 415 q 357 129 204 129 l 419 129 l 419 6 q 356 0 392 0 q 124 88 203 0 q 44 346 44 176 q 70 498 44 431 q 144 604 96 565 q 256 643 192 643 q 371 608 325 643 q 435 513 417 572 l 439 513 q 498 608 457 572 q 604 643 539 643 q 671 629 639 643 l 671 742 l -14 742 l -14 875 l 949 875 l 949 742 z "},"ळ":{"ha":1015,"x_min":-14,"x_max":1031,"o":"m 807 742 l 807 639 q 926 538 882 611 q 969 364 969 465 q 938 208 969 276 q 847 100 906 139 q 710 61 788 61 q 501 168 579 61 q 301 61 435 61 q 168 98 226 61 q 78 201 110 135 q 46 354 46 268 q 78 510 46 442 q 169 617 110 578 q 306 656 228 656 q 514 550 436 656 q 654 650 567 629 l 654 742 l -14 742 l -14 875 l 1031 875 l 1031 742 l 807 742 m 313 194 q 395 238 358 194 q 446 382 432 281 q 394 487 428 453 q 318 521 360 521 q 235 472 265 521 q 204 353 204 424 q 234 238 204 282 q 313 194 264 194 m 697 194 q 781 244 750 194 q 811 365 811 294 q 781 478 811 435 q 703 521 751 521 q 620 478 657 521 q 569 336 583 436 q 622 229 588 264 q 697 194 656 194 z "},"ऴ":{"ha":1015,"x_min":-14,"x_max":1031,"o":"m 0 0 m 807 742 l 807 639 q 926 538 882 611 q 969 364 969 465 q 938 208 969 276 q 847 100 906 139 q 710 61 788 61 q 501 168 579 61 q 301 61 435 61 q 168 98 226 61 q 78 201 110 135 q 46 354 46 268 q 78 510 46 442 q 169 617 110 578 q 306 656 228 656 q 514 550 436 656 q 654 650 567 629 l 654 742 l -14 742 l -14 875 l 1031 875 l 1031 742 l 807 742 m 313 194 q 395 238 358 194 q 446 382 432 281 q 394 487 428 453 q 318 521 360 521 q 235 472 265 521 q 204 353 204 424 q 234 238 204 282 q 313 194 264 194 m 697 194 q 781 244 750 194 q 811 365 811 294 q 781 478 811 435 q 703 521 751 521 q 620 478 657 521 q 569 336 583 436 q 622 229 588 264 q 697 194 656 194 z "},"व":{"ha":674,"x_min":-14,"x_max":688,"o":"m 688 742 l 563 742 l 563 0 l 410 0 l 410 151 l 403 151 q 260 104 340 104 q 102 178 158 104 q 46 382 46 251 q 102 583 46 511 q 260 656 158 656 q 342 642 306 656 q 403 608 379 629 l 410 608 l 410 742 l -14 742 l -14 875 l 688 875 l 688 742 m 304 244 q 385 274 360 244 q 410 364 410 304 l 410 393 q 385 485 410 454 q 304 515 360 515 q 225 485 250 515 q 200 396 200 456 l 200 364 q 225 274 200 304 q 304 244 250 244 z "},"श":{"ha":893,"x_min":65,"x_max":907,"o":"m 500 664 q 468 517 500 583 q 380 408 436 450 q 254 353 324 365 l 486 0 l 326 0 l 96 367 l 96 468 l 139 468 q 292 520 243 468 q 342 667 342 572 q 326 742 342 718 q 276 765 311 765 q 215 701 215 765 l 215 664 l 71 664 q 65 713 65 697 q 121 842 65 793 q 276 892 176 892 q 442 831 385 892 q 500 664 500 771 m 907 742 l 783 742 l 783 0 l 629 0 l 629 742 l 543 742 l 543 875 l 907 875 l 907 742 z "},"ष":{"ha":682,"x_min":-14,"x_max":697,"o":"m 697 742 l 572 742 l 572 0 l 419 0 l 419 235 q 286 197 365 197 q 130 256 188 197 q 72 419 72 314 l 72 742 l -14 742 l -14 875 l 697 875 l 697 742 m 244 742 l 419 419 l 419 424 l 419 742 l 244 742 m 225 436 q 252 357 225 386 q 324 328 279 328 q 376 342 351 328 l 225 618 l 225 436 z "},"स":{"ha":840,"x_min":-14,"x_max":869,"o":"m 869 742 l 744 742 l 744 0 l 592 0 l 592 322 l 236 322 l 406 0 l 246 0 l 71 367 l 71 468 l 175 468 q 246 497 222 468 q 269 579 269 525 l 269 742 l -14 742 l -14 875 l 869 875 l 869 742 m 592 742 l 424 742 l 424 594 q 396 449 424 508 l 592 449 l 592 742 z "},"ह":{"ha":694,"x_min":-14,"x_max":710,"o":"m 300 521 q 260 508 278 521 q 243 472 243 496 q 273 435 243 443 q 349 426 303 426 q 392 428 363 428 q 584 361 517 428 q 651 186 651 294 q 649 144 651 161 l 503 144 l 503 189 q 469 277 503 246 q 376 308 436 308 q 239 179 239 308 q 285 74 239 108 q 426 39 332 39 l 533 39 l 533 -75 q 413 -92 464 -92 q 177 -22 261 -92 q 93 172 93 49 q 160 350 93 283 q 86 483 86 390 q 145 614 86 572 q 304 656 204 656 l 385 656 l 385 742 l -14 742 l -14 875 l 710 875 l 710 742 l 558 742 l 558 521 l 300 521 z "},"क़":{"ha":1000,"x_min":-14,"x_max":1014,"o":"m 0 0 m 568 574 q 714 643 621 643 q 869 572 811 643 q 926 378 926 500 q 862 178 926 250 q 686 106 797 106 q 651 108 671 106 l 651 246 l 664 246 q 742 274 718 246 q 765 358 765 303 l 765 390 q 742 474 765 446 q 664 503 718 503 q 586 475 610 503 q 563 390 563 447 l 563 0 l 410 0 l 410 181 l 403 181 q 343 126 381 147 q 254 104 306 104 q 103 178 160 104 q 46 382 46 253 q 102 583 46 510 q 253 656 158 656 q 344 634 306 656 q 403 579 382 613 l 410 579 l 410 742 l -14 742 l -14 875 l 1014 875 l 1014 742 l 563 742 l 563 574 l 568 574 m 410 393 q 385 485 410 454 q 304 515 360 515 q 225 485 250 515 q 200 396 200 456 l 200 364 q 225 274 200 304 q 304 244 250 244 q 385 274 360 244 q 410 364 410 304 l 410 393 z "},"ख़":{"ha":1036,"x_min":-14,"x_max":1050,"o":"m 0 0 m 1050 742 l 925 742 l 925 0 l 772 0 l 772 104 q 662 55 732 72 q 511 38 592 38 q 256 89 365 38 q 85 244 146 140 q 24 497 24 347 l 128 497 q 198 529 174 497 q 222 622 222 561 l 222 742 l -14 742 l -14 875 l 1050 875 l 1050 742 m 772 742 l 375 742 l 375 639 q 326 447 375 515 q 185 371 278 379 q 297 219 218 274 q 501 164 375 164 q 688 196 619 164 q 772 283 756 228 l 772 285 l 765 285 q 710 256 743 267 q 638 244 678 244 q 490 297 543 244 q 438 457 438 350 q 490 614 438 563 q 638 665 543 665 q 710 654 678 665 q 765 625 743 643 l 772 625 l 772 742 m 772 463 q 751 510 772 494 q 685 526 731 526 q 617 511 638 526 q 597 464 597 496 l 597 446 q 617 400 597 415 q 685 385 638 385 q 752 400 732 385 q 772 446 772 415 l 772 463 z "},"ग़":{"ha":860,"x_min":-14,"x_max":874,"o":"m 0 0 m 874 742 l 749 742 l 749 0 l 596 0 l 596 742 l 424 742 l 424 368 q 365 211 424 271 q 213 151 307 151 q 58 211 117 151 q 0 368 0 271 q 58 525 0 467 q 213 583 115 583 l 269 583 l 269 742 l -14 742 l -14 875 l 874 875 l 874 742 m 213 288 q 255 308 240 288 q 269 368 269 329 l 269 447 l 213 447 q 169 426 185 447 q 153 368 153 404 q 213 288 153 288 z "},"ज़":{"ha":857,"x_min":-14,"x_max":871,"o":"m 0 0 m 871 742 l 746 742 l 746 0 l 593 0 l 593 450 l 489 450 l 489 313 q 426 160 489 214 q 260 106 364 106 q 94 160 156 106 q 33 313 33 214 l 33 586 l 186 586 l 186 317 q 208 258 186 281 q 260 236 229 236 q 313 258 292 236 q 335 317 335 281 l 335 586 l 593 586 l 593 742 l -14 742 l -14 875 l 871 875 l 871 742 z "},"ड़":{"ha":658,"x_min":-14,"x_max":674,"o":"m 0 0 m 329 521 q 265 508 286 521 q 243 467 243 494 q 329 411 243 411 l 378 411 q 548 366 486 411 q 610 211 610 321 q 537 38 610 92 q 342 -15 464 -15 q 137 42 208 -15 q 65 192 65 99 q 67 214 65 204 l 222 214 l 222 204 q 256 134 222 158 q 350 110 290 110 q 454 196 454 110 q 425 261 454 244 q 349 278 396 278 l 333 278 q 152 322 218 278 q 86 467 86 367 q 152 611 86 567 q 333 656 218 656 l 399 656 l 399 742 l -14 742 l -14 875 l 674 875 l 674 742 l 551 742 l 551 521 l 329 521 z "},"ढ़":{"ha":633,"x_min":-14,"x_max":647,"o":"m 0 0 m 324 526 q 230 490 258 526 q 201 382 201 454 l 201 335 q 233 229 201 265 q 224 289 224 254 q 267 414 224 361 q 406 467 311 467 q 547 419 492 467 q 601 283 601 372 q 531 122 601 183 q 338 61 461 61 q 119 142 197 61 q 40 372 40 224 q 113 583 40 511 q 324 656 185 656 l 368 656 l 368 742 l -14 742 l -14 875 l 647 875 l 647 742 l 521 742 l 521 526 l 324 526 m 399 342 q 346 263 346 342 q 396 182 346 182 q 438 203 424 182 q 453 265 453 225 q 399 342 453 342 z "},"फ़":{"ha":1010,"x_min":-24,"x_max":1024,"o":"m 0 0 m 572 574 l 578 574 q 724 643 631 643 q 878 572 821 643 q 936 378 936 500 q 872 178 936 250 q 696 106 807 106 q 661 108 681 106 l 661 246 l 674 246 q 751 274 728 246 q 775 358 775 303 l 775 390 q 751 474 775 446 q 674 503 728 503 q 596 475 619 503 q 572 390 572 447 l 572 0 l 419 0 l 419 235 q 286 197 365 197 q 130 256 188 197 q 72 419 72 314 l 72 742 l -14 742 l -14 875 l 1024 875 l 1024 742 l 572 742 l 572 574 m 225 742 l 225 436 q 252 357 225 386 q 324 328 279 328 q 392 354 365 328 q 419 424 419 381 l 419 742 l 225 742 z "},"य़":{"ha":756,"x_min":-14,"x_max":771,"o":"m 0 0 m 771 742 l 646 742 l 646 0 l 493 0 l 493 232 q 332 197 435 197 q 114 273 189 197 q 39 497 39 349 q 157 527 104 497 q 210 624 210 557 q 182 707 210 672 q 115 742 154 742 l -14 742 l -14 875 l 771 875 l 771 742 m 346 324 q 493 482 493 324 l 493 742 l 313 742 q 351 678 338 715 q 364 599 364 640 q 324 480 364 532 q 214 399 285 428 q 346 324 246 324 z "},"ॹ":{"ha":857,"x_min":-14,"x_max":871,"o":"m 871 742 l 746 742 l 746 0 l 593 0 l 593 450 l 489 450 l 489 313 q 426 160 489 214 q 260 106 364 106 q 94 160 156 106 q 33 313 33 214 l 33 586 l 186 586 l 186 317 q 208 258 186 281 q 260 236 229 236 q 313 258 292 236 q 335 317 335 281 l 335 586 l 593 586 l 593 742 l -14 742 l -14 875 l 871 875 l 871 742 m 333 25 l 508 25 l 508 -150 l 358 -150 l 358 -299 l 183 -299 l 183 -150 l 38 -150 l 38 25 l 213 25 l 213 -124 l 333 -124 l 333 25 z "},"ॺ":{"ha":756,"x_min":-14,"x_max":771,"o":"m 771 742 l 646 742 l 646 0 l 493 0 l 493 232 q 332 197 435 197 q 114 273 189 197 q 39 497 39 349 q 157 527 104 497 q 210 624 210 557 q 182 707 210 672 q 115 742 154 742 l -14 742 l -14 875 l 771 875 l 771 742 m 319 742 l 489 431 q 493 482 493 456 l 493 742 l 319 742 m 214 399 q 346 324 246 324 q 446 353 408 324 l 350 526 q 299 452 335 485 q 214 399 264 419 z "},"ॻ":{"ha":860,"x_min":-14,"x_max":874,"o":"m 749 742 l 749 115 l 750 115 l 750 0 l 58 0 l 58 115 l 596 115 l 596 742 l 424 742 l 424 383 q 365 226 424 286 q 213 167 307 167 q 58 226 115 167 q 0 383 0 285 q 58 540 0 481 q 213 599 115 599 l 269 599 l 269 742 l -14 742 l -14 875 l 874 875 l 874 742 l 749 742 m 213 301 q 255 322 240 301 q 269 383 269 343 l 269 463 l 213 463 q 169 441 186 463 q 153 383 153 419 q 213 301 153 301 z "},"ॼ":{"ha":860,"x_min":-14,"x_max":874,"o":"m 749 742 l 749 115 l 750 115 l 750 0 l 36 0 l 36 115 l 596 115 l 596 450 l 492 450 l 492 369 q 429 218 492 272 q 263 164 367 164 q 98 218 160 164 q 36 369 36 272 l 36 586 l 189 586 l 189 374 q 210 315 189 338 q 263 293 232 293 q 315 315 293 293 q 338 374 338 338 l 338 586 l 596 586 l 596 742 l -14 742 l -14 875 l 874 875 l 874 742 l 749 742 z "},"ॾ":{"ha":649,"x_min":-14,"x_max":663,"o":"m 299 521 q 247 510 263 521 q 232 478 232 500 q 248 446 232 456 q 299 436 264 436 l 397 436 q 547 390 493 436 q 600 263 600 344 q 526 106 600 154 q 332 57 453 57 q 127 110 199 57 q 56 250 56 163 l 57 272 l 213 272 l 213 261 q 246 202 213 222 q 339 182 279 182 q 443 253 443 182 q 419 306 443 293 q 353 319 394 319 l 275 319 q 76 482 76 319 q 303 656 76 656 l 389 656 l 389 742 l -14 742 l -14 875 l 663 875 l 663 742 l 542 742 l 542 521 l 299 521 m 56 0 l 571 0 l 571 -115 l 56 -115 l 56 0 z "},"ॿ":{"ha":700,"x_min":-14,"x_max":715,"o":"m 715 742 l 590 742 l 590 0 l 60 0 l 60 115 l 438 115 l 438 231 l 431 231 q 356 202 400 214 q 258 190 313 190 q 101 249 158 190 q 44 429 44 308 q 103 607 44 549 q 267 665 161 665 q 360 654 318 665 q 431 625 403 643 l 438 625 l 438 742 l -14 742 l -14 875 l 715 875 l 715 742 m 393 343 q 438 411 438 361 l 438 440 q 408 505 438 483 q 315 526 379 526 l 293 526 l 393 343 m 186 411 q 217 351 186 371 q 315 331 247 331 l 325 331 l 226 511 q 186 443 186 492 l 186 411 z "},"⁄":{"ha":175,"x_min":-212,"x_max":378,"o":"m 293 892 l 378 892 l -128 -15 l -212 -15 l 293 892 z "},"½":{"ha":874,"x_min":40,"x_max":846,"o":"m 665 892 l 750 892 l 246 -15 l 158 -15 l 665 892 m 324 361 l 42 361 l 42 449 l 138 449 l 138 747 l 40 747 l 40 819 q 114 838 71 822 q 188 875 157 854 l 239 875 l 239 449 l 324 449 l 324 361 m 700 529 q 804 496 765 529 q 843 392 843 463 q 815 285 843 333 q 735 176 788 238 q 707 143 715 154 q 671 94 693 128 l 846 94 l 846 0 l 543 0 l 543 24 q 567 119 543 78 q 640 215 592 160 q 715 312 692 275 q 738 392 738 349 q 728 425 738 411 q 697 439 719 439 q 664 419 675 439 q 653 368 653 400 l 653 333 l 551 333 q 549 346 550 336 q 547 368 547 356 q 591 489 547 449 q 700 529 635 529 z "},"¼":{"ha":874,"x_min":40,"x_max":843,"o":"m 672 892 l 756 892 l 251 -15 l 167 -15 l 672 892 m 324 361 l 42 361 l 42 449 l 138 449 l 138 747 l 40 747 l 40 819 q 114 838 71 822 q 188 875 157 854 l 239 875 l 239 449 l 324 449 l 324 361 m 738 529 q 677 346 719 442 q 603 203 635 250 l 689 203 l 689 249 q 726 330 706 276 q 756 417 747 383 l 790 417 l 790 203 l 843 203 l 843 114 l 790 114 l 790 0 l 689 0 l 689 114 l 507 114 l 507 192 q 578 349 544 260 q 638 529 613 438 l 738 529 z "},"¾":{"ha":874,"x_min":38,"x_max":840,"o":"m 192 892 q 298 853 258 892 q 338 746 338 815 q 322 678 338 704 q 274 631 306 651 q 326 583 306 615 q 347 504 347 550 q 305 394 347 435 q 193 353 263 353 q 78 395 119 353 q 38 511 38 438 l 38 532 l 142 532 l 142 510 q 192 440 142 440 q 228 458 215 440 q 242 510 242 475 q 188 583 242 583 l 156 583 l 156 669 l 189 669 q 220 688 208 669 q 232 743 232 707 q 192 803 232 803 q 150 739 150 803 l 150 719 l 46 719 l 46 746 q 86 851 46 811 q 192 892 126 892 m 665 892 l 751 892 l 247 -15 l 160 -15 l 665 892 m 733 529 q 674 345 715 442 q 600 203 632 249 l 686 203 l 686 249 q 724 331 703 278 q 753 417 744 385 l 788 417 l 788 203 l 840 203 l 840 114 l 788 114 l 788 0 l 686 0 l 686 114 l 503 114 l 503 192 q 633 529 576 322 l 733 529 z "},"⅛":{"ha":874,"x_min":40,"x_max":839,"o":"m 661 892 l 746 892 l 242 -15 l 156 -15 l 661 892 m 324 361 l 42 361 l 42 449 l 138 449 l 138 747 l 40 747 l 40 819 q 114 838 71 822 q 188 875 157 854 l 239 875 l 239 449 l 324 449 l 324 361 m 686 522 q 792 481 754 522 q 829 374 829 439 q 816 310 829 340 q 779 260 803 279 q 824 211 810 243 q 839 138 839 179 q 801 26 839 68 q 686 -15 764 -15 q 571 26 608 -15 q 533 138 533 68 q 592 258 533 222 q 556 310 569 279 q 543 374 543 342 q 580 481 543 439 q 686 522 617 522 m 686 435 q 646 368 646 435 q 686 301 646 301 q 725 368 725 301 q 686 435 725 435 m 686 215 q 638 143 638 215 q 686 71 638 71 q 733 143 733 71 q 686 215 733 215 z "},"⅜":{"ha":874,"x_min":29,"x_max":839,"o":"m 150 -15 l 656 892 l 742 892 l 238 -15 l 150 -15 m 183 875 q 290 838 250 875 q 331 731 331 800 q 314 664 331 690 q 265 615 297 638 q 317 567 297 599 q 338 490 338 535 q 296 378 338 419 q 186 336 254 336 q 70 380 111 336 q 29 497 29 424 l 29 515 l 135 515 l 135 494 q 185 425 135 425 q 233 494 233 425 q 181 568 233 568 l 149 568 l 149 654 l 182 654 q 213 673 200 654 q 225 726 225 692 q 185 788 225 788 q 143 724 143 788 l 143 703 l 39 703 l 39 731 q 79 835 39 796 q 183 875 119 875 m 686 522 q 792 481 754 522 q 829 375 829 439 q 816 311 829 342 q 779 261 803 281 q 824 213 810 244 q 839 139 839 181 q 801 27 839 69 q 686 -15 764 -15 q 571 27 608 -15 q 533 139 533 69 q 592 260 533 225 q 556 312 569 281 q 543 375 543 343 q 580 481 543 440 q 686 522 617 522 m 686 436 q 646 368 646 436 q 686 303 646 303 q 725 368 725 303 q 686 436 725 436 m 686 217 q 638 144 638 217 q 686 72 638 72 q 733 144 733 72 q 686 217 733 217 z "},"⅝":{"ha":874,"x_min":32,"x_max":839,"o":"m 654 892 l 738 892 l 233 -15 l 149 -15 l 654 892 m 149 676 q 176 691 158 685 q 214 697 194 697 q 308 653 271 697 q 346 528 346 610 q 303 395 346 443 q 189 347 261 347 q 75 392 118 347 q 32 513 32 436 l 138 513 q 151 455 138 476 q 189 433 164 433 q 225 458 211 433 q 239 528 239 482 q 226 591 239 568 q 193 614 214 614 q 143 568 160 614 l 47 583 l 64 875 l 322 875 l 322 781 l 153 781 l 149 676 m 686 522 q 792 481 754 522 q 829 374 829 439 q 816 310 829 340 q 779 260 803 279 q 824 211 810 243 q 839 138 839 179 q 801 26 839 68 q 686 -15 764 -15 q 571 26 608 -15 q 533 138 533 68 q 592 258 533 222 q 556 310 569 279 q 543 374 543 342 q 580 481 543 439 q 686 522 617 522 m 686 435 q 646 368 646 435 q 686 301 646 301 q 725 368 725 301 q 686 435 725 435 m 686 215 q 638 143 638 215 q 686 71 638 71 q 733 143 733 71 q 686 215 733 215 z "},"⅞":{"ha":874,"x_min":56,"x_max":839,"o":"m 115 -15 l 622 892 l 707 892 l 203 -15 l 115 -15 m 369 808 q 263 610 306 711 q 221 404 221 510 q 222 361 221 375 l 111 361 q 152 584 111 475 q 256 781 193 693 l 56 781 l 56 875 l 369 875 l 369 808 m 686 522 q 792 481 754 522 q 829 374 829 439 q 816 310 829 340 q 779 260 803 279 q 824 211 810 243 q 839 138 839 179 q 801 26 839 68 q 686 -15 764 -15 q 571 26 608 -15 q 533 138 533 68 q 592 258 533 222 q 556 310 569 279 q 543 374 543 342 q 580 481 543 439 q 686 522 617 522 m 686 435 q 646 368 646 435 q 686 301 646 301 q 725 368 725 301 q 686 435 725 435 m 686 215 q 638 143 638 215 q 686 71 638 71 q 733 143 733 71 q 686 215 733 215 z "},"¹":{"ha":349,"x_min":40,"x_max":324,"o":"m 324 408 l 42 408 l 42 497 l 138 497 l 138 794 l 40 794 l 40 865 q 114 886 71 869 q 188 924 157 903 l 239 924 l 239 497 l 324 497 l 324 408 z "},"²":{"ha":349,"x_min":19,"x_max":324,"o":"m 178 938 q 281 903 242 938 q 321 799 321 869 q 293 694 321 740 q 210 583 265 647 l 185 556 q 168 532 178 544 q 147 503 158 519 l 324 503 l 324 408 l 19 408 l 19 432 q 44 526 19 485 q 115 624 68 567 q 192 718 168 681 q 215 800 215 756 q 206 833 215 819 q 174 847 196 847 q 140 828 151 847 q 129 778 129 808 l 129 743 l 28 743 q 26 754 28 746 q 25 775 25 763 q 68 897 25 857 q 178 938 111 938 z "},"³":{"ha":349,"x_min":17,"x_max":326,"o":"m 172 938 q 279 899 239 938 q 319 792 319 861 q 302 724 319 751 q 254 678 285 697 q 306 628 286 660 q 326 550 326 596 q 285 440 326 481 q 175 399 243 399 q 58 442 100 399 q 17 557 17 485 l 17 578 l 122 578 l 122 556 q 174 486 122 486 q 222 556 222 486 q 207 613 222 596 q 169 629 192 629 l 138 629 l 138 715 l 171 715 q 201 734 188 715 q 214 788 214 753 q 203 834 214 818 q 174 850 192 850 q 132 786 132 850 l 132 765 l 28 765 l 28 792 q 67 897 28 857 q 172 938 107 938 z "},"०":{"ha":658,"x_min":61,"x_max":599,"o":"m 329 746 q 530 672 461 746 q 599 456 599 597 q 530 239 599 313 q 329 165 461 165 q 129 239 197 165 q 61 456 61 313 q 130 672 61 597 q 329 746 199 746 m 329 615 q 244 578 274 615 q 214 472 214 542 l 214 438 q 244 331 214 368 q 329 294 274 294 q 415 331 385 294 q 444 438 444 368 l 444 472 q 415 578 444 542 q 329 615 385 615 z "},"१":{"ha":561,"x_min":65,"x_max":500,"o":"m 383 224 q 450 149 429 182 q 471 85 471 117 q 447 0 471 51 l 319 0 q 322 43 322 17 q 314 88 322 69 q 286 129 306 107 l 97 315 l 97 411 q 306 539 242 450 l 300 539 q 131 592 197 539 q 65 736 65 646 q 124 872 65 824 q 279 919 182 919 q 440 863 381 919 q 500 697 500 806 q 431 485 500 576 q 265 340 361 394 l 383 224 m 350 657 q 351 688 351 667 q 279 794 351 794 q 232 776 249 794 q 215 729 215 758 q 240 676 215 696 q 304 657 264 657 l 350 657 z "},"२":{"ha":611,"x_min":72,"x_max":550,"o":"m 300 918 q 490 833 429 918 q 550 568 550 749 q 492 301 550 388 q 319 215 435 215 q 215 238 258 215 l 215 0 l 75 0 l 75 483 l 229 483 q 304 346 229 346 q 370 394 350 346 q 390 543 390 443 l 390 590 q 369 740 390 692 q 300 789 349 789 q 243 755 261 789 q 225 650 225 721 l 76 650 q 72 696 72 671 q 138 858 72 799 q 300 918 203 918 z "},"३":{"ha":608,"x_min":72,"x_max":547,"o":"m 418 543 q 513 478 478 524 q 547 361 547 432 q 485 206 547 264 q 322 147 422 147 q 217 168 263 147 l 217 0 l 76 0 l 76 413 l 217 413 l 217 386 q 238 305 217 333 q 301 276 260 276 q 365 299 342 276 q 388 369 388 322 q 283 475 388 475 l 240 475 l 240 603 l 285 603 q 347 630 322 603 q 371 708 371 657 q 301 793 371 793 q 249 767 268 793 q 231 689 231 740 l 231 663 l 72 663 l 72 700 q 136 859 72 799 q 301 919 200 919 q 469 866 407 919 q 532 715 532 813 q 418 547 532 601 l 418 543 z "},"४":{"ha":626,"x_min":61,"x_max":567,"o":"m 218 628 q 242 527 218 563 q 314 492 267 492 q 383 527 358 492 q 407 628 408 563 l 407 906 l 567 906 l 567 636 q 453 426 567 482 q 523 344 499 396 q 547 228 547 292 q 486 53 547 122 q 314 -15 425 -15 q 140 53 201 -15 q 78 228 78 122 q 101 344 78 292 q 172 426 125 396 q 61 636 61 482 l 61 906 l 218 906 l 218 628 m 314 111 q 372 144 351 111 q 393 239 393 176 q 372 332 393 300 q 314 364 351 364 q 253 332 274 364 q 233 239 233 300 q 314 111 233 111 z "},"५":{"ha":628,"x_min":61,"x_max":565,"o":"m 565 526 l 565 0 l 425 0 l 425 200 q 297 165 374 165 q 61 499 61 165 q 81 683 61 589 q 151 906 100 778 l 315 906 q 214 510 214 683 l 214 482 q 325 297 214 297 q 401 342 376 297 q 425 497 425 386 l 425 526 l 565 526 z "},"६":{"ha":608,"x_min":61,"x_max":618,"o":"m 465 0 l 421 183 q 286 147 368 147 q 124 206 186 147 q 61 361 61 264 q 96 478 61 432 q 190 543 131 524 l 190 547 q 76 715 76 600 q 139 866 76 813 q 306 919 201 919 q 472 859 407 919 q 536 700 536 799 l 536 663 l 376 663 l 376 689 q 306 793 376 793 q 255 772 272 793 q 238 708 238 750 q 262 630 238 657 q 324 603 286 603 l 368 603 l 368 475 l 325 475 q 221 369 221 475 q 243 299 221 322 q 306 276 265 276 q 385 335 368 276 l 367 413 l 519 413 l 618 0 l 465 0 z "},"७":{"ha":775,"x_min":61,"x_max":715,"o":"m 517 746 q 668 674 621 746 q 715 444 715 603 q 627 103 715 221 q 371 -15 539 -15 q 137 92 213 -15 q 61 410 61 199 q 81 631 61 513 q 151 906 101 749 l 315 906 q 214 393 214 618 l 214 357 q 256 176 214 235 q 386 117 297 117 q 499 160 457 117 q 558 315 542 204 q 533 314 550 314 q 373 374 435 314 q 311 539 311 433 q 365 690 311 635 q 517 746 419 746 m 568 432 l 568 479 l 568 510 q 514 619 568 619 q 474 597 488 619 q 461 535 461 574 q 483 458 461 485 q 546 432 504 432 l 568 432 z "},"८":{"ha":671,"x_min":61,"x_max":613,"o":"m 519 907 q 299 545 382 715 q 217 251 217 375 q 247 146 217 182 q 339 110 278 110 q 424 141 393 110 q 456 232 456 172 l 456 269 l 608 269 q 613 224 613 253 q 579 101 613 156 q 483 16 546 47 q 335 -15 419 -15 q 136 52 211 -15 q 61 253 61 119 q 339 907 61 506 l 519 907 z "},"९":{"ha":629,"x_min":61,"x_max":561,"o":"m 478 219 q 561 83 561 146 q 538 0 561 57 l 408 0 q 411 43 411 17 q 401 91 411 69 q 369 133 390 113 q 311 186 361 142 q 188 306 238 251 q 99 444 138 361 q 61 635 61 528 q 126 845 61 771 q 304 919 192 919 q 474 857 408 919 q 539 685 539 794 q 505 545 539 604 q 410 455 471 486 q 274 424 350 424 l 272 424 q 338 343 301 379 q 428 263 374 307 l 478 219 m 303 794 q 210 642 210 794 q 221 542 210 590 l 269 542 q 356 578 324 542 q 389 681 389 615 q 367 763 389 731 q 303 794 346 794 z "},"*":{"ha":407,"x_min":10,"x_max":399,"o":"m 399 736 l 281 681 l 399 626 l 349 540 l 242 617 l 254 486 l 154 486 l 168 617 l 61 540 l 10 626 l 129 681 l 10 736 l 61 821 l 168 746 l 154 875 l 254 875 l 242 747 l 349 821 l 399 736 z "},"\\":{"ha":292,"x_min":1,"x_max":292,"o":"m 1 939 l 110 939 l 292 -62 l 182 -62 l 1 939 z "},"·":{"ha":292,"x_min":68,"x_max":222,"o":"m 68 522 l 222 522 l 222 356 l 68 356 l 68 522 z "},"•":{"ha":367,"x_min":29,"x_max":336,"o":"m 182 597 q 291 551 246 597 q 336 439 336 504 q 291 328 336 375 q 182 281 246 281 q 74 328 119 281 q 29 439 29 375 q 74 551 29 504 q 182 597 118 597 z "},"‸":{"ha":432,"x_min":14,"x_max":418,"o":"m 215 -147 l 150 -332 l 14 -332 l 174 64 l 258 64 l 418 -332 l 282 -332 l 215 -147 z "},":":{"ha":349,"x_min":71,"x_max":247,"o":"m 71 672 l 247 672 l 247 497 l 71 497 l 71 672 m 71 175 l 247 175 l 247 0 l 71 0 l 71 175 z "},",":{"ha":292,"x_min":58,"x_max":233,"o":"m 58 -200 l 128 0 l 58 0 l 58 175 l 233 175 l 233 15 l 149 -200 l 58 -200 z "},"…":{"ha":1047,"x_min":86,"x_max":961,"o":"m 86 175 l 263 175 l 263 0 l 86 0 l 86 175 m 435 175 l 611 175 l 611 0 l 435 0 l 435 175 m 785 175 l 961 175 l 961 0 l 785 0 l 785 175 z "},"!":{"ha":349,"x_min":76,"x_max":272,"o":"m 272 875 q 225 251 243 475 l 121 251 l 104 499 l 76 875 l 272 875 m 86 0 l 86 175 l 263 175 l 263 0 l 86 0 z "},"‼":{"ha":697,"x_min":76,"x_max":621,"o":"m 272 875 q 225 251 243 475 l 121 251 l 104 499 l 76 875 l 272 875 m 621 875 q 606 663 610 733 q 575 251 593 515 l 469 251 q 446 592 457 446 q 428 835 435 738 l 425 875 l 621 875 m 86 0 l 86 175 l 263 175 l 263 0 l 86 0 m 435 0 l 435 175 l 611 175 l 611 0 l 435 0 z "},"¡":{"ha":349,"x_min":76,"x_max":272,"o":"m 86 497 l 86 672 l 263 672 l 263 497 l 86 497 m 225 421 q 272 -204 242 213 l 76 -204 q 103 171 86 -79 q 121 421 110 254 l 225 421 z "},"#":{"ha":582,"x_min":6,"x_max":575,"o":"m 575 536 l 471 536 l 432 357 l 525 357 l 525 249 l 407 249 l 351 0 l 239 0 l 294 249 l 200 249 l 143 0 l 31 0 l 86 249 l 6 249 l 6 357 l 111 357 l 150 536 l 57 536 l 57 644 l 175 644 l 231 892 l 344 892 l 288 644 l 383 644 l 439 892 l 551 892 l 496 644 l 575 644 l 575 536 m 319 357 l 358 536 l 263 536 l 224 357 l 319 357 z "},"‾":{"ha":639,"x_min":0,"x_max":639,"o":"m 0 1097 l 639 1097 l 639 1010 l 0 1010 l 0 1097 z "},".":{"ha":292,"x_min":58,"x_max":233,"o":"m 58 175 l 233 175 l 233 0 l 58 0 l 58 175 z "},"?":{"ha":640,"x_min":61,"x_max":578,"o":"m 332 892 q 511 828 444 892 q 578 664 578 765 q 554 532 578 581 q 486 432 531 483 q 436 363 453 393 q 419 288 419 332 l 419 251 l 258 251 l 258 306 q 277 392 258 357 q 333 471 296 426 q 392 556 372 518 q 411 650 411 593 q 392 719 411 685 q 322 754 374 754 q 245 713 267 754 q 224 621 224 671 q 224 598 224 607 q 225 586 225 589 l 64 586 q 63 603 64 590 q 61 631 61 617 q 131 818 61 744 q 332 892 200 892 m 251 175 l 428 175 l 428 0 l 251 0 l 251 175 z "},"¿":{"ha":640,"x_min":61,"x_max":579,"o":"m 213 672 l 389 672 l 389 497 l 213 497 l 213 672 m 382 365 q 363 281 382 315 q 307 200 344 246 q 247 115 267 151 q 228 22 228 78 q 247 -47 228 -12 q 318 -82 267 -82 q 395 -40 374 -82 q 417 50 417 1 q 415 74 417 65 q 414 85 414 82 l 576 85 q 578 67 576 81 q 579 40 579 54 q 509 -147 579 -74 q 308 -219 439 -219 q 128 -157 194 -219 q 61 7 61 -94 q 85 139 61 90 q 154 240 108 188 q 204 310 188 279 q 221 385 221 340 l 221 421 l 382 421 l 382 365 z "},"\"":{"ha":497,"x_min":58,"x_max":444,"o":"m 186 519 l 85 519 l 58 688 l 58 875 l 214 875 l 214 688 l 186 519 m 418 519 l 317 519 l 289 688 l 289 875 l 444 875 l 444 688 l 418 519 z "},"'":{"ha":249,"x_min":47,"x_max":204,"o":"m 176 519 l 75 519 l 47 688 l 47 875 l 204 875 l 204 688 l 176 519 z "},";":{"ha":349,"x_min":69,"x_max":247,"o":"m 71 672 l 247 672 l 247 497 l 71 497 l 71 672 m 69 -200 l 139 0 l 69 0 l 69 175 l 246 175 l 246 15 l 160 -200 l 69 -200 z "},"/":{"ha":292,"x_min":1,"x_max":292,"o":"m 182 939 l 292 939 l 111 -62 l 1 -62 l 182 939 z "},"_":{"ha":582,"x_min":0,"x_max":581,"o":"m 0 -81 l 581 -81 l 581 -169 l 0 -169 l 0 -81 z "},"‗":{"ha":639,"x_min":0,"x_max":639,"o":"m 0 -112 l 639 -112 l 639 -178 l 0 -178 l 0 -112 m 0 -224 l 639 -224 l 639 -289 l 0 -289 l 0 -224 z "},"{":{"ha":407,"x_min":31,"x_max":381,"o":"m 381 840 q 281 763 281 840 q 274 590 281 688 l 269 511 q 236 408 268 443 q 133 374 204 374 l 133 361 q 235 326 204 361 q 269 224 267 292 l 274 147 q 281 -28 281 50 q 381 -104 281 -104 l 381 -204 q 197 -165 264 -204 q 129 -14 129 -125 l 129 232 q 100 291 129 272 q 31 310 71 310 l 31 426 q 100 445 71 426 q 129 503 129 464 l 129 750 q 197 899 129 860 q 381 939 264 939 l 381 840 z "},"}":{"ha":407,"x_min":28,"x_max":376,"o":"m 28 939 q 211 899 143 939 q 279 750 279 860 l 279 503 q 308 445 279 464 q 376 426 336 426 l 376 310 q 308 291 336 310 q 279 232 279 272 l 279 -14 q 211 -164 279 -124 q 28 -204 143 -204 l 28 -104 q 128 -28 128 -104 q 133 126 128 26 l 138 224 q 172 327 140 293 q 275 361 203 361 l 275 374 q 171 408 203 374 q 138 511 139 443 l 133 610 q 128 763 128 713 q 28 840 128 840 l 28 939 z "},"[":{"ha":349,"x_min":63,"x_max":317,"o":"m 211 -83 l 317 -83 l 317 -206 l 63 -206 l 63 939 l 317 939 l 317 818 l 211 818 l 211 -83 z "},"]":{"ha":349,"x_min":32,"x_max":286,"o":"m 32 -83 l 138 -83 l 138 818 l 32 818 l 32 939 l 286 939 l 286 -206 l 32 -206 l 32 -83 z "},"(":{"ha":349,"x_min":39,"x_max":329,"o":"m 329 939 q 221 664 263 815 q 179 369 179 513 q 221 76 179 228 q 329 -201 263 -76 l 228 -201 q 88 64 136 -83 q 39 368 39 211 q 88 674 39 526 q 228 939 136 822 l 329 939 z "},")":{"ha":349,"x_min":19,"x_max":311,"o":"m 119 939 q 262 673 213 821 q 311 368 311 525 q 262 65 311 211 q 119 -201 213 -82 l 19 -201 q 128 75 86 -76 q 171 369 171 226 q 128 664 171 513 q 19 939 86 815 l 119 939 z "},"—":{"ha":1047,"x_min":0,"x_max":1047,"o":"m 0 407 l 1047 407 l 1047 282 l 0 282 l 0 407 z "},"–":{"ha":582,"x_min":0,"x_max":582,"o":"m 0 407 l 582 407 l 582 282 l 0 282 l 0 407 z "},"―":{"ha":1047,"x_min":131,"x_max":913,"o":"m 131 406 l 913 406 l 913 285 l 131 285 l 131 406 z "},"-":{"ha":349,"x_min":21,"x_max":328,"o":"m 21 421 l 328 421 l 328 269 l 21 269 l 21 421 z "},"­":{"ha":349,"x_min":21,"x_max":328,"o":"m 21 269 m 21 421 l 328 421 l 328 269 l 21 269 l 21 421 z "},"«":{"ha":582,"x_min":25,"x_max":547,"o":"m 197 160 l 25 417 l 197 672 l 314 672 l 176 417 l 314 160 l 197 160 m 432 160 l 258 417 l 432 672 l 547 672 l 410 417 l 547 160 l 432 160 z "},"»":{"ha":582,"x_min":35,"x_max":557,"o":"m 35 160 l 172 417 l 35 672 l 150 672 l 325 417 l 150 160 l 35 160 m 268 160 l 406 417 l 268 672 l 385 672 l 557 417 l 385 160 l 268 160 z "},"‹":{"ha":349,"x_min":25,"x_max":314,"o":"m 197 160 l 25 417 l 197 672 l 314 672 l 176 417 l 314 160 l 197 160 z "},"›":{"ha":349,"x_min":35,"x_max":325,"o":"m 35 160 l 172 417 l 35 672 l 150 672 l 325 417 l 150 160 l 35 160 z "},"„":{"ha":522,"x_min":58,"x_max":468,"o":"m 58 -200 l 128 0 l 58 0 l 58 175 l 233 175 l 233 15 l 149 -200 l 58 -200 m 292 -200 l 361 0 l 292 0 l 292 175 l 468 175 l 468 15 l 383 -200 l 292 -200 z "},"“":{"ha":522,"x_min":57,"x_max":467,"o":"m 232 678 l 232 501 l 57 501 l 57 661 l 140 875 l 232 875 l 161 678 l 232 678 m 467 678 l 467 501 l 290 501 l 290 661 l 374 875 l 467 875 l 396 678 l 467 678 z "},"”":{"ha":522,"x_min":58,"x_max":468,"o":"m 58 501 l 128 700 l 58 700 l 58 875 l 233 875 l 233 717 l 149 501 l 58 501 m 292 501 l 361 700 l 292 700 l 292 875 l 468 875 l 468 717 l 383 501 l 292 501 z "},"‘":{"ha":292,"x_min":58,"x_max":233,"o":"m 233 501 l 58 501 l 58 661 l 142 875 l 233 875 l 164 678 l 233 678 l 233 501 z "},"‛":{"ha":292,"x_min":58,"x_max":233,"o":"m 233 501 l 142 501 l 58 717 l 58 875 l 233 875 l 233 700 l 164 700 l 233 501 z "},"’":{"ha":292,"x_min":58,"x_max":233,"o":"m 58 501 l 128 700 l 58 700 l 58 875 l 233 875 l 233 717 l 149 501 l 58 501 z "},"‚":{"ha":292,"x_min":58,"x_max":233,"o":"m 58 -200 l 128 0 l 58 0 l 58 175 l 233 175 l 233 15 l 149 -200 l 58 -200 z "},"ॽ":{"ha":642,"x_min":61,"x_max":578,"o":"m 332 892 q 511 828 444 892 q 578 664 578 765 q 552 528 578 581 q 478 415 526 475 q 422 336 440 369 q 404 258 404 303 l 404 0 l 244 0 l 244 278 q 265 369 244 329 q 328 465 286 410 q 390 561 369 522 q 411 650 411 600 q 392 719 411 685 q 322 754 374 754 q 245 713 267 754 q 224 621 224 671 q 224 598 224 607 q 225 586 225 589 l 64 586 q 63 603 64 590 q 61 631 61 617 q 131 818 61 744 q 332 892 200 892 z "},"।":{"ha":413,"x_min":131,"x_max":283,"o":"m 283 0 l 131 0 l 131 875 l 283 875 l 283 0 z "},"॥":{"ha":696,"x_min":131,"x_max":567,"o":"m 131 0 m 567 0 l 414 0 l 414 875 l 567 875 l 567 0 m 283 0 l 131 0 l 131 875 l 283 875 l 283 0 z "},"॰":{"ha":608,"x_min":86,"x_max":522,"o":"m 303 890 q 413 861 363 890 q 493 782 464 832 q 522 674 522 732 q 493 564 522 614 q 413 485 464 514 q 303 456 363 456 q 194 485 243 456 q 115 564 144 514 q 86 674 86 614 q 115 782 86 732 q 194 861 144 832 q 303 890 243 890 m 303 785 q 224 752 257 785 q 190 674 190 719 q 224 593 190 626 q 303 560 257 560 q 383 593 350 560 q 417 674 417 626 q 383 753 417 721 q 303 785 350 785 z "},"ॱ":{"ha":397,"x_min":111,"x_max":286,"o":"m 111 931 l 286 931 l 286 756 l 111 756 l 111 931 z "},"꣺":{"ha":317,"x_min":-43,"x_max":360,"o":"m 360 1194 l 201 799 l 115 799 l -43 1194 l 78 1194 l 157 967 l 239 1194 l 360 1194 z "},"ꣻ":{"ha":582,"x_min":0,"x_max":581,"o":"m 0 1106 m 0 1194 l 581 1194 l 581 1106 l 0 1106 l 0 1194 z "}," ":{"ha":292,"x_min":0,"x_max":0,"o":""},"‍":{"ha":0,"x_min":0,"x_max":331,"o":"m 114 1088 l 114 -583 l 0 -583 l 0 1194 l 331 1194 l 331 1088 l 114 1088 z "},"‌":{"ha":0,"x_min":0,"x_max":114,"o":"m 114 -583 l 0 -583 l 0 1194 l 114 1194 l 114 -583 z "},"¢":{"ha":582,"x_min":51,"x_max":536,"o":"m 335 788 q 483 712 431 778 q 536 521 536 646 l 394 521 q 335 658 394 638 l 335 215 q 400 356 400 231 l 536 356 q 483 162 536 228 q 335 88 431 96 l 335 -62 l 264 -62 l 264 89 q 103 187 154 101 q 51 438 51 272 q 104 689 51 603 q 264 788 157 775 l 264 924 l 335 924 l 335 788 m 264 657 q 196 463 196 629 l 196 413 q 264 219 196 251 l 264 657 z "},"¤":{"ha":582,"x_min":0,"x_max":581,"o":"m 292 736 q 450 675 378 736 l 504 728 l 581 649 l 518 586 q 554 436 554 518 q 517 285 554 356 l 581 222 l 503 144 l 449 197 q 292 138 378 138 q 132 197 203 138 l 78 144 l 0 222 l 64 286 q 28 436 28 351 q 63 585 28 519 l 0 649 l 76 728 l 131 675 q 292 736 203 736 m 292 622 q 213 597 249 622 q 157 530 178 572 q 136 436 136 488 q 157 344 136 386 q 214 277 178 301 q 292 253 250 253 q 369 278 333 253 q 425 344 404 303 q 446 436 446 386 q 425 530 446 488 q 369 597 404 572 q 292 622 333 622 z "},"$":{"ha":582,"x_min":42,"x_max":536,"o":"m 324 788 q 465 732 410 781 q 519 607 519 683 q 519 588 519 596 q 518 578 518 581 l 378 578 l 378 579 q 324 672 376 650 l 324 507 q 433 470 390 489 q 506 411 475 451 q 536 303 536 371 q 324 88 536 104 l 324 -62 l 253 -62 l 253 88 q 97 154 153 97 q 42 300 42 211 l 43 315 l 183 315 l 183 306 q 203 240 183 264 q 253 206 222 215 l 253 389 q 149 424 190 406 q 80 481 108 443 q 51 585 51 519 q 107 726 51 674 q 253 788 163 778 l 253 924 l 324 924 l 324 788 m 253 672 q 208 643 225 663 q 192 599 192 624 q 208 557 192 574 q 253 529 224 540 l 253 672 m 324 204 q 375 231 354 211 q 396 285 396 251 q 377 333 396 314 q 324 365 358 351 l 324 204 z "},"€":{"ha":582,"x_min":13,"x_max":554,"o":"m 460 892 q 554 878 513 892 l 554 751 q 472 763 514 763 q 333 716 390 763 q 247 586 275 669 l 478 586 l 478 482 l 228 482 q 226 438 226 468 q 228 393 226 407 l 478 393 l 478 290 l 247 290 q 333 160 275 207 q 472 114 390 114 q 554 125 521 114 l 554 -1 q 460 -15 501 -15 q 221 66 318 -15 q 89 290 124 147 l 13 290 l 13 393 l 75 393 q 74 438 74 407 q 75 482 74 468 l 13 482 l 13 586 l 89 586 q 221 810 124 729 q 460 892 318 892 z "},"ƒ":{"ha":582,"x_min":25,"x_max":571,"o":"m 463 933 q 520 929 489 933 q 571 918 551 925 l 554 804 l 492 804 q 431 750 438 804 l 413 622 l 529 622 l 511 493 l 394 493 l 318 -51 q 262 -181 306 -129 q 133 -232 218 -232 q 75 -228 107 -232 q 25 -217 43 -224 l 40 -104 l 104 -104 q 144 -90 129 -104 q 165 -49 160 -75 l 242 493 l 149 493 l 167 622 l 258 622 l 278 754 q 333 882 289 831 q 463 933 378 933 z "},"₣":{"ha":644,"x_min":50,"x_max":638,"o":"m 621 467 q 531 431 565 467 q 496 313 496 394 l 496 0 l 342 0 l 342 364 l 215 364 l 215 0 l 50 0 l 50 875 l 501 875 l 501 731 l 215 731 l 215 510 l 342 510 l 342 610 l 469 610 l 489 511 l 496 511 q 600 624 526 624 q 624 619 614 624 q 638 614 635 615 l 638 467 l 621 467 z "},"₤":{"ha":582,"x_min":11,"x_max":553,"o":"m 322 892 q 491 828 429 892 q 553 644 553 765 l 553 638 l 401 638 l 401 660 q 380 736 401 710 q 322 763 358 763 q 266 739 286 763 q 246 671 246 715 l 246 554 l 392 554 l 392 446 l 246 446 l 246 393 l 392 393 l 392 285 l 244 285 l 229 138 l 544 138 l 544 0 l 26 0 l 26 138 l 92 138 l 92 285 l 11 285 l 11 393 l 92 393 l 92 446 l 11 446 l 11 554 l 92 554 l 92 638 q 152 827 92 763 q 322 892 213 892 z "},"₧":{"ha":1226,"x_min":64,"x_max":1192,"o":"m 263 875 q 447 820 378 875 q 533 672 517 765 l 556 672 l 593 861 l 706 861 l 706 672 l 889 672 q 979 688 935 688 q 1088 661 1043 688 q 1156 594 1133 635 q 1178 511 1178 553 l 1176 475 l 1028 475 l 1028 492 q 1013 544 1026 525 q 974 563 999 563 q 931 545 944 563 q 917 506 917 528 q 944 445 917 467 q 1026 400 971 424 q 1112 357 1079 378 q 1168 298 1144 336 q 1192 200 1192 260 q 1138 40 1192 94 q 982 -15 1083 -15 q 801 56 860 -15 l 801 0 q 760 -10 785 -6 q 715 -15 735 -15 q 592 36 629 -15 q 556 165 556 88 l 556 543 l 531 543 q 438 394 510 449 q 263 339 367 339 l 226 339 l 226 0 l 64 0 l 64 875 l 263 875 m 226 483 l 247 483 q 337 518 306 483 q 368 613 368 553 q 337 699 368 668 q 247 731 306 731 l 226 731 l 226 483 m 706 169 q 758 114 706 114 l 768 114 q 758 186 758 153 q 760 204 758 197 q 761 213 761 211 l 908 213 l 908 192 q 926 133 908 156 q 976 110 944 110 q 1023 127 1006 110 q 1040 172 1040 144 q 1014 235 1040 214 q 931 281 988 257 q 847 325 879 304 q 790 387 814 346 q 767 492 767 428 q 774 543 767 515 l 706 543 l 706 169 z "},"₹":{"ha":613,"x_min":33,"x_max":563,"o":"m 422 764 q 464 660 456 722 l 563 660 l 563 549 l 464 549 q 381 388 447 453 q 211 311 315 324 l 490 0 l 299 0 l 33 308 l 33 453 l 178 453 q 300 549 278 453 l 33 549 l 33 660 l 301 660 q 183 756 282 756 l 33 756 l 33 875 l 563 875 l 563 764 l 422 764 z "},"£":{"ha":582,"x_min":11,"x_max":553,"o":"m 322 892 q 491 828 429 892 q 553 644 553 765 l 553 626 l 401 626 l 401 660 q 380 736 401 710 q 322 763 358 763 q 266 739 286 763 q 246 671 246 715 l 246 497 l 399 497 l 399 368 l 244 368 l 229 138 l 544 138 l 544 0 l 26 0 l 26 138 l 92 138 l 92 368 l 11 368 l 11 497 l 92 497 l 92 638 q 152 827 92 763 q 322 892 213 892 z "},"¥":{"ha":582,"x_min":6,"x_max":576,"o":"m 546 388 l 368 388 l 368 299 l 546 299 l 546 194 l 368 194 l 368 0 l 215 0 l 215 194 l 36 194 l 36 299 l 214 299 l 214 389 l 36 389 l 36 492 l 171 492 l 6 875 l 172 875 l 292 540 l 297 540 l 417 875 l 576 875 l 413 492 l 546 492 l 546 388 z "},"Ω":{"ha":981,"x_min":125,"x_max":853,"o":"m 125 0 m 490 892 q 758 778 664 892 q 853 438 853 665 q 819 256 853 335 q 725 128 785 178 l 774 138 q 821 146 813 146 l 853 146 l 853 0 l 538 0 l 538 104 q 648 193 611 122 q 685 378 685 264 l 685 469 q 635 677 685 603 q 490 751 586 751 q 342 677 393 751 q 292 469 292 603 l 292 378 q 330 196 292 267 q 440 104 368 125 l 440 0 l 125 0 l 125 146 l 157 146 q 201 138 165 146 l 251 128 q 158 256 192 178 q 125 438 125 333 q 220 778 125 665 q 490 892 315 892 z "},"≈":{"ha":700,"x_min":35,"x_max":664,"o":"m 664 396 q 640 369 664 393 q 576 324 617 344 q 481 303 535 303 q 422 313 450 303 q 351 342 393 322 q 278 371 308 361 q 217 381 249 381 q 129 360 169 381 q 62 315 89 339 q 35 288 35 290 l 35 440 q 58 468 35 443 q 122 514 82 493 q 217 535 163 535 q 278 525 249 535 q 349 496 307 515 q 419 467 389 476 q 481 457 449 457 q 569 477 529 457 q 637 522 610 497 q 664 549 664 546 l 664 396 m 664 128 q 640 99 664 124 q 576 54 617 75 q 481 33 535 33 q 422 43 450 33 q 351 72 393 53 q 278 101 308 92 q 217 111 249 111 q 129 90 169 111 q 62 44 89 69 q 35 17 35 19 l 35 171 q 58 198 35 174 q 122 243 82 222 q 217 264 163 264 q 278 254 249 264 q 349 225 307 244 q 419 196 389 206 q 481 186 449 186 q 569 207 529 186 q 637 253 610 228 q 664 281 664 278 l 664 128 z "},"~":{"ha":611,"x_min":35,"x_max":578,"o":"m 578 360 q 558 333 578 357 q 502 288 538 308 q 421 267 467 267 q 368 276 393 267 q 307 306 343 286 q 247 335 272 325 q 192 346 221 346 q 116 325 151 346 q 58 279 81 304 q 35 251 35 254 l 35 404 q 55 433 35 408 q 110 478 75 457 q 192 499 144 499 q 242 490 218 499 q 303 461 267 481 q 365 431 339 442 q 421 421 392 421 q 496 441 461 421 q 554 485 531 461 q 578 513 578 510 l 578 360 z "},"∙":{"ha":292,"x_min":68,"x_max":222,"o":"m 68 356 m 68 522 l 222 522 l 222 356 l 68 356 l 68 522 z "},"÷":{"ha":700,"x_min":42,"x_max":657,"o":"m 283 600 l 417 600 l 417 458 l 283 458 l 283 600 m 42 392 l 657 392 l 657 258 l 42 258 l 42 392 m 283 192 l 417 192 l 417 51 l 283 51 l 283 192 z "},"∕":{"ha":119,"x_min":-211,"x_max":381,"o":"m 294 892 l 381 892 l -125 -15 l -211 -15 l 294 892 z "},"=":{"ha":611,"x_min":42,"x_max":568,"o":"m 42 526 l 568 526 l 568 393 l 42 393 l 42 526 m 42 254 l 568 254 l 568 122 l 42 122 l 42 254 z "},"≡":{"ha":611,"x_min":42,"x_max":568,"o":"m 42 697 l 568 697 l 568 565 l 42 565 l 42 697 m 42 425 l 568 425 l 568 292 l 42 292 l 42 425 m 42 153 l 568 153 l 568 22 l 42 22 l 42 153 z "},">":{"ha":611,"x_min":43,"x_max":569,"o":"m 43 -11 l 43 139 l 440 333 l 43 528 l 43 678 l 569 413 l 569 251 l 43 -11 z "},"≥":{"ha":700,"x_min":88,"x_max":614,"o":"m 88 183 l 88 335 l 485 529 l 88 722 l 88 874 l 614 610 l 614 446 l 88 183 m 88 132 l 614 132 l 614 0 l 88 0 l 88 132 z "},"∆":{"ha":753,"x_min":15,"x_max":725,"o":"m 15 0 m 725 0 l 15 0 l 15 71 l 276 875 l 467 875 l 725 71 l 725 0 m 196 146 l 536 146 l 368 690 l 364 690 l 196 146 z "},"∞":{"ha":910,"x_min":61,"x_max":847,"o":"m 654 583 q 791 530 735 583 q 847 386 847 476 q 820 274 847 322 q 749 201 793 226 q 654 176 706 176 q 553 201 603 176 q 453 296 503 225 q 357 207 404 238 q 250 176 310 176 q 156 201 200 176 q 87 272 113 226 q 61 378 61 318 q 117 526 61 469 q 260 583 174 583 q 372 555 324 583 q 463 468 419 526 q 499 508 469 475 q 569 563 529 542 q 654 583 608 583 m 263 478 q 204 452 228 478 q 181 381 181 426 q 205 310 181 339 q 267 282 229 282 q 394 374 332 282 q 331 454 357 431 q 263 478 306 478 m 643 478 q 580 454 607 478 q 514 381 553 431 q 586 301 557 321 q 649 282 615 282 q 706 313 683 282 q 728 378 728 343 q 704 449 728 421 q 643 478 681 478 z "},"∫":{"ha":350,"x_min":29,"x_max":331,"o":"m 331 1008 q 259 991 286 1008 q 232 936 232 974 q 253 447 238 811 q 268 -37 268 82 q 205 -151 268 -121 q 29 -181 142 -181 l 29 -92 q 125 -15 125 -92 q 106 472 119 110 q 92 953 92 833 q 155 1066 92 1036 q 331 1096 218 1096 l 331 1008 z "},"⌡":{"ha":771,"x_min":225,"x_max":467,"o":"m 447 1096 q 467 -176 467 -26 q 403 -289 467 -258 q 225 -319 339 -319 l 225 -231 q 325 -158 325 -231 l 303 1096 l 447 1096 z "},"⌠":{"ha":771,"x_min":304,"x_max":544,"o":"m 544 1008 q 473 991 500 1008 q 446 936 446 974 q 455 478 449 825 q 468 -319 461 131 l 324 -319 q 304 953 304 806 q 368 1066 304 1036 q 544 1096 432 1096 l 544 1008 z "},"∩":{"ha":922,"x_min":101,"x_max":817,"o":"m 458 875 q 639 829 557 875 q 769 703 721 783 q 817 522 817 622 l 817 0 l 665 0 l 665 522 q 638 635 665 585 q 564 712 611 685 q 460 739 517 739 q 357 712 404 739 q 282 635 310 685 q 254 522 254 585 l 254 0 l 101 0 l 101 522 q 149 703 101 622 q 278 829 196 783 q 458 875 360 875 z "},"<":{"ha":611,"x_min":43,"x_max":569,"o":"m 569 139 l 569 -11 l 43 251 l 43 413 l 569 678 l 569 528 l 172 333 l 569 139 z "},"≤":{"ha":700,"x_min":88,"x_max":614,"o":"m 614 335 l 614 183 l 88 446 l 88 610 l 614 874 l 614 722 l 217 529 l 614 335 m 88 132 l 614 132 l 614 0 l 88 0 l 88 132 z "},"¬":{"ha":611,"x_min":38,"x_max":568,"o":"m 435 446 l 38 446 l 38 590 l 568 590 l 568 239 l 435 239 l 435 446 z "},"⌐":{"ha":611,"x_min":43,"x_max":575,"o":"m 176 239 l 43 239 l 43 590 l 575 590 l 575 446 l 176 446 l 176 239 z "},"µ":{"ha":640,"x_min":71,"x_max":569,"o":"m 71 0 m 426 82 l 419 82 q 359 12 396 39 q 275 -15 322 -15 q 224 -6 250 -15 l 224 -221 l 71 -221 l 71 672 l 224 672 l 224 243 q 246 151 224 179 q 313 124 268 124 q 387 162 357 124 q 417 256 417 200 l 417 672 l 569 672 l 569 0 l 442 0 l 426 82 z "},"−":{"ha":611,"x_min":42,"x_max":568,"o":"m 42 392 l 568 392 l 568 258 l 42 258 l 42 392 z "},"×":{"ha":611,"x_min":38,"x_max":592,"o":"m 406 326 l 592 142 l 501 49 l 314 238 l 129 49 l 38 142 l 224 326 l 38 513 l 129 606 l 314 419 l 501 606 l 592 513 l 406 326 z "},"≠":{"ha":700,"x_min":93,"x_max":618,"o":"m 618 393 l 442 393 l 369 254 l 618 254 l 618 122 l 303 122 l 258 32 l 154 32 l 201 122 l 93 122 l 93 254 l 267 254 l 338 393 l 93 393 l 93 526 l 404 526 l 453 618 l 556 618 l 508 526 l 618 526 l 618 393 z "},"∟":{"ha":1250,"x_min":201,"x_max":1024,"o":"m 1024 0 l 201 0 l 201 797 l 351 797 l 351 140 l 1024 140 l 1024 0 z "},"∂":{"ha":631,"x_min":46,"x_max":582,"o":"m 283 939 q 431 891 363 939 q 540 742 499 843 q 582 490 582 642 q 502 118 582 251 q 278 -15 422 -15 q 106 64 167 -15 q 46 260 46 143 q 79 426 46 354 q 168 535 113 497 q 288 574 224 574 q 372 547 336 574 q 424 490 408 521 l 429 490 q 431 535 431 499 q 408 674 431 611 q 347 774 386 738 q 258 811 307 811 q 119 768 178 811 l 119 901 q 283 939 189 939 m 317 449 q 238 392 271 449 q 206 257 206 336 q 227 154 206 193 q 286 115 249 115 q 376 186 340 115 q 421 357 413 257 q 383 421 410 393 q 317 449 356 449 z "},"%":{"ha":931,"x_min":44,"x_max":888,"o":"m 221 892 q 353 840 308 892 q 397 660 397 788 q 353 482 397 533 q 221 431 308 431 q 89 482 133 431 q 44 660 44 533 q 89 840 44 788 q 221 892 133 892 m 146 0 l 679 875 l 789 875 l 254 0 l 146 0 m 221 797 q 172 765 186 797 q 158 671 158 732 l 158 651 q 172 556 158 589 q 221 522 186 522 q 270 556 257 522 q 283 651 283 589 l 283 671 q 270 765 283 733 q 221 797 257 797 m 711 446 q 843 394 799 446 q 888 215 888 342 q 843 36 888 88 q 711 -15 799 -15 q 579 37 624 -15 q 535 215 535 89 q 579 394 535 342 q 711 446 624 446 m 711 353 q 662 320 675 353 q 649 225 649 288 l 649 206 q 662 110 649 143 q 711 78 675 78 q 760 110 747 78 q 774 206 774 143 l 774 225 q 760 320 774 288 q 711 353 747 353 z "},"‰":{"ha":1047,"x_min":3,"x_max":1047,"o":"m 158 892 q 277 840 238 892 q 317 660 317 788 q 277 481 317 532 q 158 431 238 431 q 42 482 81 431 q 3 660 3 533 q 42 840 3 788 q 158 892 81 892 m 447 875 l 538 875 l 253 0 l 165 0 l 447 875 m 158 797 q 124 769 133 797 q 115 671 115 742 l 115 651 q 124 551 115 579 q 158 522 133 522 q 194 551 185 522 q 204 651 204 579 l 204 671 q 194 769 204 742 q 158 797 185 797 m 544 446 q 663 394 624 446 q 701 215 701 342 q 663 36 701 88 q 544 -15 624 -15 q 428 37 467 -15 q 389 215 389 89 q 428 394 389 342 q 544 446 467 446 m 890 446 q 1008 394 968 446 q 1047 215 1047 342 q 1008 37 1047 89 q 890 -15 968 -15 q 772 37 811 -15 q 732 215 732 89 q 772 394 732 342 q 890 446 811 446 m 544 353 q 510 324 519 353 q 501 225 501 296 l 501 206 q 510 106 501 135 q 544 78 519 78 q 580 106 571 78 q 589 206 589 135 l 589 225 q 580 324 589 296 q 544 353 571 353 m 890 353 q 855 324 864 353 q 846 225 846 296 l 846 206 q 855 106 846 135 q 890 78 864 78 q 925 106 917 78 q 933 206 933 133 l 933 225 q 925 325 933 297 q 890 353 917 353 z "},"+":{"ha":611,"x_min":42,"x_max":568,"o":"m 568 258 l 369 258 l 369 0 l 239 0 l 239 258 l 42 258 l 42 392 l 239 392 l 239 653 l 369 653 l 369 392 l 568 392 l 568 258 z "},"±":{"ha":700,"x_min":86,"x_max":613,"o":"m 613 404 l 414 404 l 414 183 l 283 183 l 283 404 l 86 404 l 86 538 l 283 538 l 283 760 l 414 760 l 414 538 l 613 538 l 613 404 m 86 132 l 613 132 l 613 0 l 86 0 l 86 132 z "},"∏":{"ha":1051,"x_min":122,"x_max":929,"o":"m 822 -164 l 667 -164 l 667 793 l 382 793 l 382 -164 l 226 -164 l 226 793 l 122 793 l 122 924 l 929 924 l 929 793 l 822 793 l 822 -164 z "},"√":{"ha":700,"x_min":26,"x_max":713,"o":"m 365 -189 q 221 186 268 61 l 149 374 l 50 335 l 26 413 l 246 500 q 342 238 299 347 q 407 57 399 82 q 435 -39 418 29 l 610 1094 l 713 1094 l 506 -189 l 365 -189 z "},"∑":{"ha":910,"x_min":99,"x_max":858,"o":"m 339 793 l 649 401 l 325 -7 l 325 -12 l 858 -12 l 858 -164 l 99 -164 l 99 -82 l 468 382 l 110 838 l 110 924 l 836 924 l 836 797 l 339 797 l 339 793 z "},"↑":{"ha":639,"x_min":86,"x_max":556,"o":"m 392 657 l 392 -264 l 251 -264 l 251 657 l 86 589 l 86 656 l 308 908 l 335 908 l 556 656 l 556 589 l 392 657 z "},"→":{"ha":1276,"x_min":53,"x_max":1226,"o":"m 974 86 l 908 86 l 975 253 l 53 253 l 53 392 l 975 392 l 908 556 l 974 556 l 1226 335 l 1226 308 l 974 86 z "},"↓":{"ha":639,"x_min":86,"x_max":556,"o":"m 556 -12 l 335 -264 l 308 -264 l 86 -12 l 86 53 l 253 -14 l 253 908 l 392 908 l 392 -14 l 556 53 l 556 -12 z "},"←":{"ha":1276,"x_min":53,"x_max":1226,"o":"m 1226 253 l 303 253 l 371 86 l 304 86 l 53 310 l 53 335 l 304 556 l 371 556 l 303 392 l 1226 392 l 1226 253 z "},"↔":{"ha":1276,"x_min":53,"x_max":1226,"o":"m 974 88 l 908 88 l 975 253 l 303 253 l 371 88 l 304 88 l 53 310 l 53 335 l 304 556 l 371 556 l 303 392 l 975 392 l 908 556 l 974 556 l 1226 335 l 1226 310 l 974 88 z "},"↕":{"ha":639,"x_min":82,"x_max":553,"o":"m 388 657 l 388 -14 l 553 53 l 553 -12 l 332 -264 l 304 -264 l 82 -12 l 82 53 l 249 -14 l 249 657 l 82 589 l 82 656 l 304 908 l 332 908 l 553 656 l 553 589 l 388 657 z "},"↨":{"ha":639,"x_min":82,"x_max":553,"o":"m 388 657 l 388 122 l 553 190 l 553 124 l 332 -128 l 304 -128 l 82 124 l 82 190 l 249 122 l 249 657 l 82 589 l 82 656 l 304 908 l 332 908 l 553 656 l 553 589 l 388 657 m 83 -187 l 553 -187 l 553 -297 l 83 -297 l 83 -187 z "},"◌":{"ha":633,"x_min":0,"x_max":633,"o":"m 114 547 q 290 619 194 611 l 290 565 q 154 511 210 554 l 114 547 m 479 511 q 344 565 422 554 l 344 619 q 519 547 444 611 l 479 511 m 0 338 q 74 511 8 436 l 113 471 q 56 338 64 415 l 0 338 m 578 338 q 519 472 572 413 l 557 511 q 633 338 622 439 l 578 338 m 71 107 q 0 288 8 181 l 56 288 q 108 147 63 207 l 71 107 m 633 288 q 564 107 625 181 l 522 146 q 578 288 572 211 l 633 288 m 290 -6 q 108 71 193 3 l 144 107 q 290 49 211 54 l 290 -6 m 522 71 q 344 -6 442 3 l 344 49 q 486 107 419 54 l 522 71 z "},"◊":{"ha":753,"x_min":135,"x_max":608,"o":"m 276 -3 l 135 436 l 276 875 l 467 875 l 608 436 l 467 -3 l 276 -3 m 364 690 l 286 436 l 364 182 l 368 182 l 446 436 l 368 690 l 364 690 z "},"|":{"ha":293,"x_min":89,"x_max":204,"o":"m 89 924 l 204 924 l 204 -221 l 89 -221 l 89 924 z "},"¦":{"ha":293,"x_min":89,"x_max":204,"o":"m 89 924 l 204 924 l 204 447 l 89 447 l 89 924 m 89 254 l 204 254 l 204 -221 l 89 -221 l 89 254 z "},"@":{"ha":1021,"x_min":32,"x_max":990,"o":"m 526 892 q 865 774 739 892 q 990 410 990 656 q 951 189 990 275 q 853 65 911 103 q 736 28 796 28 q 649 49 678 28 q 604 108 619 69 l 599 108 q 535 48 569 68 q 444 28 501 28 q 340 67 388 28 q 292 200 292 107 q 371 364 292 315 q 593 413 450 413 l 593 476 q 580 532 593 513 q 531 551 567 551 q 474 533 490 551 q 457 489 457 514 l 457 471 l 322 471 q 321 497 321 478 q 377 619 321 574 q 526 665 433 665 q 682 619 631 665 q 733 485 733 572 l 733 193 q 772 146 733 146 q 860 210 824 146 q 897 411 897 274 q 798 706 897 610 q 525 803 699 803 q 231 684 336 803 q 125 333 125 565 q 213 3 125 113 q 485 -107 301 -107 q 594 -95 531 -107 q 689 -67 657 -83 l 689 -160 q 592 -185 653 -175 q 485 -194 531 -194 q 150 -65 268 -194 q 32 335 32 65 q 169 757 32 622 q 526 892 307 892 m 593 313 q 435 213 435 313 q 451 163 435 181 q 501 144 468 144 q 571 182 549 144 q 593 278 593 219 l 593 313 z "},"&":{"ha":756,"x_min":46,"x_max":736,"o":"m 357 892 q 558 826 481 892 q 636 651 636 760 l 636 615 l 482 615 l 482 640 q 449 731 482 700 q 354 763 417 763 q 258 731 293 763 q 224 644 224 700 q 258 547 224 583 q 349 510 293 510 l 401 510 l 401 381 l 353 381 q 206 243 206 381 q 242 146 206 178 q 347 114 279 114 q 482 244 482 114 l 482 510 l 736 510 l 736 381 l 636 381 l 636 247 q 560 55 636 125 q 344 -15 485 -15 q 129 53 213 -15 q 46 236 46 121 q 87 374 46 319 q 194 449 128 428 l 194 456 q 98 531 132 485 q 64 651 64 578 q 144 828 64 765 q 357 892 224 892 z "},"¶":{"ha":582,"x_min":24,"x_max":574,"o":"m 511 -221 l 408 -221 l 408 779 l 340 779 l 340 -221 l 239 -221 l 239 319 q 128 365 178 326 q 51 465 79 404 q 24 597 24 526 q 56 737 24 674 q 145 838 89 800 q 268 875 201 875 l 574 875 l 574 779 l 511 779 l 511 -221 z "},"℅":{"ha":1008,"x_min":49,"x_max":925,"o":"m 225 892 q 348 845 304 892 q 392 701 392 799 l 281 701 q 225 800 281 800 q 176 765 192 800 q 161 660 161 731 l 161 626 q 177 521 161 556 q 228 486 193 486 q 270 510 257 486 q 283 585 283 535 l 392 585 q 349 442 392 489 q 228 396 306 396 q 92 456 136 396 q 49 644 49 517 q 92 831 49 771 q 225 892 136 892 m 160 -15 l 692 892 l 789 892 l 258 -15 l 160 -15 m 735 478 q 878 418 832 478 q 925 231 925 358 q 878 44 925 104 q 735 -15 831 -15 q 593 44 640 -15 q 546 231 546 104 q 593 417 546 357 q 735 478 640 478 m 735 389 q 676 353 694 389 q 658 247 658 318 l 658 215 q 676 108 658 143 q 735 74 694 74 q 794 108 776 74 q 811 215 811 143 l 811 247 q 794 354 811 319 q 735 389 776 389 z "},"©":{"ha":771,"x_min":21,"x_max":751,"o":"m 386 892 q 581 836 499 892 q 707 678 663 781 q 751 438 751 575 q 707 198 751 300 q 581 40 663 96 q 386 -15 499 -15 q 191 40 274 -15 q 65 198 108 96 q 21 438 21 300 q 65 678 21 575 q 191 836 108 781 q 386 892 274 892 m 386 821 q 172 717 250 821 q 93 438 93 614 q 128 235 93 321 q 230 102 164 149 q 386 56 296 56 q 542 102 476 56 q 644 235 608 149 q 679 438 679 321 q 601 717 679 614 q 386 821 522 821 m 389 707 q 526 656 475 707 q 578 504 578 606 l 468 504 q 447 584 468 557 q 389 611 425 611 q 318 571 342 611 q 294 457 294 531 l 294 421 q 319 307 294 347 q 392 267 343 267 q 449 293 428 267 q 471 371 471 319 l 578 371 q 526 222 578 274 q 389 171 474 171 q 235 238 289 171 q 182 438 182 304 q 235 640 182 572 q 389 707 289 707 z "},"®":{"ha":771,"x_min":21,"x_max":751,"o":"m 386 892 q 581 836 499 892 q 707 678 663 781 q 751 438 751 575 q 707 198 751 300 q 581 40 663 96 q 386 -15 499 -15 q 191 40 274 -15 q 65 198 108 96 q 21 438 21 300 q 65 678 21 575 q 191 836 108 781 q 386 892 274 892 m 386 821 q 172 717 250 821 q 93 438 93 614 q 128 235 93 321 q 230 102 164 149 q 386 56 296 56 q 542 102 476 56 q 644 235 608 149 q 679 438 679 321 q 601 717 679 614 q 386 821 522 821 m 424 697 q 527 661 486 697 q 568 567 568 625 q 547 490 568 519 q 489 446 525 460 l 489 440 q 540 399 517 431 q 564 303 564 367 q 573 237 564 257 q 600 211 582 217 l 600 185 q 577 178 592 181 q 550 175 563 175 q 454 274 454 175 q 432 364 454 338 q 378 390 410 390 l 332 390 l 332 179 l 222 179 l 222 697 l 424 697 m 385 489 q 437 504 417 489 q 457 546 457 519 q 438 584 457 569 q 389 599 419 599 l 332 599 l 332 489 l 385 489 z "},"§":{"ha":582,"x_min":47,"x_max":550,"o":"m 304 892 q 469 842 404 892 q 533 710 533 793 l 532 679 l 375 679 l 375 682 q 300 765 374 765 q 242 748 264 765 q 221 699 221 731 q 239 638 221 663 q 283 596 257 613 q 360 553 310 579 q 459 497 421 522 q 524 426 497 471 q 550 317 550 382 q 528 217 550 264 q 468 135 507 169 q 533 -28 533 67 q 467 -180 533 -128 q 292 -232 400 -232 q 129 -183 193 -232 q 65 -49 65 -133 l 67 -21 l 222 -21 l 222 -24 q 297 -107 224 -107 q 355 -89 333 -107 q 376 -40 376 -71 q 342 41 376 11 q 238 106 308 71 q 138 162 176 136 q 74 232 100 188 q 47 342 47 276 q 69 442 47 393 q 131 525 90 490 q 65 688 65 590 q 132 839 65 786 q 304 892 199 892 m 225 458 q 197 388 197 421 q 221 308 197 340 q 271 258 244 275 q 371 200 297 242 q 400 272 400 232 q 381 344 400 314 q 332 395 361 375 q 253 443 303 415 l 225 458 z "},"™":{"ha":1047,"x_min":99,"x_max":932,"o":"m 322 360 l 225 360 l 225 790 l 99 790 l 99 875 l 450 875 l 450 790 l 322 790 l 322 360 m 840 733 l 835 733 l 751 360 l 665 360 l 582 733 l 576 733 l 576 360 l 492 360 l 492 875 l 633 875 l 714 514 l 719 514 l 799 875 l 932 875 l 932 360 l 840 360 l 840 733 z "},"°":{"ha":511,"x_min":72,"x_max":435,"o":"m 253 892 q 344 867 303 892 q 410 801 386 843 q 435 711 435 760 q 410 619 435 661 q 344 553 386 578 q 253 529 303 529 q 124 582 176 529 q 72 711 72 635 q 97 801 72 760 q 162 867 121 843 q 253 892 203 892 m 253 803 q 186 776 214 803 q 158 711 158 750 q 186 643 158 671 q 253 615 214 615 q 319 643 292 615 q 347 711 347 671 q 319 776 347 750 q 253 803 292 803 z "},"℮":{"ha":765,"x_min":58,"x_max":714,"o":"m 386 688 q 560 641 486 688 q 674 512 635 594 q 714 324 714 429 l 714 317 l 194 317 l 194 106 q 386 39 269 39 q 532 76 469 39 q 628 178 594 113 l 672 150 q 557 28 631 72 q 386 -15 483 -15 q 212 30 286 -15 q 98 154 138 75 q 58 335 58 233 q 98 517 58 438 q 212 642 138 597 q 386 688 286 688 m 386 633 q 194 565 271 633 l 194 369 l 576 369 l 576 564 q 386 633 500 633 z "},"ℓ":{"ha":625,"x_min":71,"x_max":535,"o":"m 292 253 q 319 145 292 179 q 390 111 346 111 q 515 149 450 111 l 515 17 q 372 -15 449 -15 q 197 48 254 -15 q 138 214 139 111 l 138 217 q 114 199 121 206 l 71 169 l 71 282 q 138 335 94 299 l 138 649 q 198 869 138 800 q 351 939 258 939 q 487 888 439 939 q 535 743 535 838 q 469 556 535 660 q 292 347 403 453 l 292 253 m 292 486 q 422 744 422 639 q 408 808 422 786 q 368 831 394 831 q 314 788 336 831 q 292 649 292 744 l 292 486 z "}}}
